<mxfile host="app.diagrams.net" modified="2022-11-09T06:01:35.093Z" agent="5.0 (Windows NT 10.0; Win64; x64) AppleWebKit/537.36 (KHTML, like Gecko) Chrome/107.0.0.0 Safari/537.36" etag="ZA23QaNtJjAMn9k8pjyZ" version="20.5.3" type="github">
  <diagram id="M1k3Hc8_i_z2ZXBIXbyz" name="第 1 页">
    <mxGraphModel dx="1332" dy="599" grid="1" gridSize="10" guides="1" tooltips="1" connect="1" arrows="1" fold="1" page="1" pageScale="1" pageWidth="1200" pageHeight="1600" math="0" shadow="0">
      <root>
        <mxCell id="0" />
        <mxCell id="1" parent="0" />
        <mxCell id="rJS2hNAMHHPs58hexdFA-31" value="" style="rounded=0;whiteSpace=wrap;html=1;fontSize=14;" vertex="1" parent="1">
          <mxGeometry x="130" y="560" width="1420" height="2010" as="geometry" />
        </mxCell>
        <mxCell id="rJS2hNAMHHPs58hexdFA-11" value="" style="rounded=0;whiteSpace=wrap;html=1;fontSize=14;" vertex="1" parent="1">
          <mxGeometry x="190" y="280" width="510" height="90" as="geometry" />
        </mxCell>
        <mxCell id="rJS2hNAMHHPs58hexdFA-10" value="" style="rounded=0;whiteSpace=wrap;html=1;fontSize=14;" vertex="1" parent="1">
          <mxGeometry x="190" y="120" width="620" height="150" as="geometry" />
        </mxCell>
        <mxCell id="rJS2hNAMHHPs58hexdFA-1" value="&lt;font style=&quot;vertical-align: inherit;&quot;&gt;&lt;font style=&quot;vertical-align: inherit; font-size: 24px;&quot;&gt;SQL注入&lt;/font&gt;&lt;/font&gt;" style="text;html=1;align=center;verticalAlign=middle;resizable=0;points=[];autosize=1;strokeColor=none;fillColor=none;" vertex="1" parent="1">
          <mxGeometry x="340" y="40" width="120" height="40" as="geometry" />
        </mxCell>
        <mxCell id="rJS2hNAMHHPs58hexdFA-2" value="&lt;font style=&quot;vertical-align: inherit;&quot;&gt;&lt;font style=&quot;vertical-align: inherit;&quot;&gt;1，原理&lt;br&gt;2，类型&lt;br&gt;3，防御&lt;br&gt;&lt;/font&gt;&lt;/font&gt;" style="text;html=1;align=center;verticalAlign=middle;resizable=0;points=[];autosize=1;strokeColor=none;fillColor=none;fontSize=24;" vertex="1" parent="1">
          <mxGeometry x="480" y="10" width="110" height="100" as="geometry" />
        </mxCell>
        <mxCell id="rJS2hNAMHHPs58hexdFA-3" value="&lt;font style=&quot;vertical-align: inherit;&quot;&gt;&lt;font style=&quot;vertical-align: inherit;&quot;&gt;&lt;br&gt;原理&lt;/font&gt;&lt;/font&gt;" style="text;html=1;align=center;verticalAlign=middle;resizable=0;points=[];autosize=1;strokeColor=none;fillColor=none;fontSize=24;" vertex="1" parent="1">
          <mxGeometry x="200" y="140" width="70" height="70" as="geometry" />
        </mxCell>
        <mxCell id="rJS2hNAMHHPs58hexdFA-5" value="&lt;font style=&quot;vertical-align: inherit;&quot;&gt;&lt;font style=&quot;vertical-align: inherit;&quot;&gt;&lt;font style=&quot;font-size: 14px;&quot;&gt;&lt;font style=&quot;&quot;&gt;&lt;font style=&quot;vertical-align: inherit;&quot;&gt;&lt;font style=&quot;vertical-align: inherit;&quot;&gt;&lt;font style=&quot;vertical-align: inherit;&quot;&gt;&lt;font style=&quot;vertical-align: inherit;&quot;&gt;&lt;font style=&quot;vertical-align: inherit;&quot;&gt;&lt;font style=&quot;vertical-align: inherit;&quot;&gt;&lt;font style=&quot;vertical-align: inherit;&quot;&gt;&lt;font style=&quot;vertical-align: inherit;&quot;&gt;1，用户输入&lt;/font&gt;&lt;/font&gt;&lt;/font&gt;&lt;/font&gt;&lt;/font&gt;&lt;/font&gt;&lt;/font&gt;&lt;/font&gt;&lt;br&gt;&lt;font style=&quot;vertical-align: inherit;&quot;&gt;&lt;font style=&quot;vertical-align: inherit;&quot;&gt;&lt;font style=&quot;vertical-align: inherit;&quot;&gt;&lt;font style=&quot;vertical-align: inherit;&quot;&gt;&lt;font style=&quot;vertical-align: inherit;&quot;&gt;&lt;font style=&quot;vertical-align: inherit;&quot;&gt;&lt;font style=&quot;vertical-align: inherit;&quot;&gt;&lt;font style=&quot;vertical-align: inherit;&quot;&gt;2，字符串拼接&lt;br&gt;&lt;/font&gt;&lt;/font&gt;&lt;/font&gt;&lt;/font&gt;&lt;/font&gt;&lt;/font&gt;&lt;/font&gt;&lt;/font&gt;&lt;/font&gt;&lt;font style=&quot;vertical-align: inherit;&quot;&gt;&lt;font style=&quot;vertical-align: inherit;&quot;&gt;3，服务器解析并执行&lt;/font&gt;&lt;/font&gt;&lt;/font&gt;&lt;br&gt;&lt;/font&gt;&lt;/font&gt;" style="whiteSpace=wrap;html=1;aspect=fixed;fontSize=24;" vertex="1" parent="1">
          <mxGeometry x="340" y="130" width="130" height="130" as="geometry" />
        </mxCell>
        <mxCell id="rJS2hNAMHHPs58hexdFA-6" value="&lt;font style=&quot;vertical-align: inherit;&quot;&gt;&lt;font style=&quot;vertical-align: inherit;&quot;&gt;&lt;font style=&quot;vertical-align: inherit;&quot;&gt;&lt;font style=&quot;vertical-align: inherit;&quot;&gt;&lt;font style=&quot;vertical-align: inherit;&quot;&gt;&lt;font style=&quot;vertical-align: inherit;&quot;&gt;SQL注入就是指Web应用程序对&lt;/font&gt;&lt;/font&gt;&lt;br&gt;&lt;font style=&quot;vertical-align: inherit;&quot;&gt;&lt;font style=&quot;vertical-align: inherit;&quot;&gt;用户输入的数据的合法性没有判断&lt;br&gt;&lt;/font&gt;&lt;/font&gt;&lt;font style=&quot;vertical-align: inherit;&quot;&gt;&lt;font style=&quot;vertical-align: inherit;&quot;&gt;前端传入后端的参数是可控的，并且&lt;br&gt;&lt;/font&gt;&lt;/font&gt;&lt;font style=&quot;vertical-align: inherit;&quot;&gt;&lt;font style=&quot;vertical-align: inherit;&quot;&gt;参数带入数据库查询。攻击者可以&lt;br&gt;&lt;/font&gt;&lt;/font&gt;&lt;font style=&quot;vertical-align: inherit;&quot;&gt;&lt;font style=&quot;vertical-align: inherit;&quot;&gt;通过构造不同的SQL语句来实现&lt;br&gt;&lt;/font&gt;&lt;/font&gt;&lt;font style=&quot;vertical-align: inherit;&quot;&gt;&lt;font style=&quot;vertical-align: inherit;&quot;&gt;对数据库的任意操作。&lt;/font&gt;&lt;/font&gt;&lt;br&gt;&lt;/font&gt;&lt;/font&gt;&lt;/font&gt;&lt;/font&gt;" style="text;html=1;align=center;verticalAlign=middle;resizable=0;points=[];autosize=1;strokeColor=none;fillColor=none;fontSize=14;" vertex="1" parent="1">
          <mxGeometry x="520" y="140" width="250" height="110" as="geometry" />
        </mxCell>
        <mxCell id="rJS2hNAMHHPs58hexdFA-7" value="&lt;font style=&quot;vertical-align: inherit;&quot;&gt;&lt;font style=&quot;vertical-align: inherit;&quot;&gt;原因&lt;/font&gt;&lt;/font&gt;" style="text;html=1;align=center;verticalAlign=middle;resizable=0;points=[];autosize=1;strokeColor=none;fillColor=none;fontSize=14;" vertex="1" parent="1">
          <mxGeometry x="185" y="295" width="50" height="30" as="geometry" />
        </mxCell>
        <mxCell id="rJS2hNAMHHPs58hexdFA-8" value="&lt;font style=&quot;vertical-align: inherit;&quot;&gt;&lt;font style=&quot;vertical-align: inherit;&quot;&gt;1，字符串拼接&lt;br&gt;2，过滤不足&lt;br&gt;&lt;/font&gt;&lt;/font&gt;" style="text;html=1;align=center;verticalAlign=middle;resizable=0;points=[];autosize=1;strokeColor=none;fillColor=none;fontSize=14;" vertex="1" parent="1">
          <mxGeometry x="235" y="285" width="120" height="50" as="geometry" />
        </mxCell>
        <mxCell id="rJS2hNAMHHPs58hexdFA-9" value="&lt;font style=&quot;vertical-align: inherit;&quot;&gt;&lt;font style=&quot;vertical-align: inherit;&quot;&gt;&lt;font style=&quot;vertical-align: inherit;&quot;&gt;&lt;font style=&quot;vertical-align: inherit;&quot;&gt;&lt;font style=&quot;vertical-align: inherit;&quot;&gt;&lt;font style=&quot;vertical-align: inherit;&quot;&gt;1，编写程序者在处理应用程序和数据库时，&lt;/font&gt;&lt;/font&gt;&lt;br&gt;&lt;font style=&quot;vertical-align: inherit;&quot;&gt;&lt;font style=&quot;vertical-align: inherit;&quot;&gt;使用笔记本电脑的构造SQL语句&lt;br&gt;&lt;/font&gt;&lt;/font&gt;&lt;font style=&quot;vertical-align: inherit;&quot;&gt;&lt;font style=&quot;vertical-align: inherit;&quot;&gt;2未对用户可控参数进行足够的过滤便将&lt;br&gt;&lt;/font&gt;&lt;/font&gt;&lt;font style=&quot;vertical-align: inherit;&quot;&gt;&lt;font style=&quot;vertical-align: inherit;&quot;&gt;参数内容拼接进入到SQL语句中&lt;/font&gt;&lt;/font&gt;&lt;br&gt;&lt;/font&gt;&lt;/font&gt;&lt;/font&gt;&lt;/font&gt;" style="text;html=1;align=center;verticalAlign=middle;resizable=0;points=[];autosize=1;strokeColor=none;fillColor=none;fontSize=14;" vertex="1" parent="1">
          <mxGeometry x="340" y="280" width="300" height="80" as="geometry" />
        </mxCell>
        <mxCell id="rJS2hNAMHHPs58hexdFA-13" value="&lt;font style=&quot;vertical-align: inherit;&quot;&gt;&lt;font style=&quot;vertical-align: inherit;&quot;&gt;&lt;font style=&quot;vertical-align: inherit;&quot;&gt;&lt;font style=&quot;vertical-align: inherit; font-size: 24px;&quot;&gt;类型&lt;/font&gt;&lt;/font&gt;&lt;/font&gt;&lt;/font&gt;" style="text;html=1;align=center;verticalAlign=middle;resizable=0;points=[];autosize=1;strokeColor=none;fillColor=none;fontSize=14;" vertex="1" parent="1">
          <mxGeometry x="165" y="430" width="70" height="40" as="geometry" />
        </mxCell>
        <mxCell id="rJS2hNAMHHPs58hexdFA-14" value="&lt;font style=&quot;vertical-align: inherit;&quot;&gt;&lt;font style=&quot;vertical-align: inherit;&quot;&gt;&lt;font style=&quot;font-size: 14px;&quot;&gt;&lt;font style=&quot;vertical-align: inherit;&quot;&gt;&lt;font style=&quot;vertical-align: inherit;&quot;&gt;&lt;font style=&quot;vertical-align: inherit;&quot;&gt;&lt;font style=&quot;vertical-align: inherit;&quot;&gt;1，联合注入&amp;nbsp; &amp;nbsp;2，布尔盲注&amp;nbsp; &amp;nbsp;3，文件读写&amp;nbsp; 4，报错注入&amp;nbsp; &amp;nbsp;5，时间盲注&amp;nbsp; 6，宽字节注入&lt;br&gt;&lt;/font&gt;&lt;/font&gt;&lt;/font&gt;&lt;/font&gt;&lt;font style=&quot;vertical-align: inherit;&quot;&gt;&lt;font style=&quot;vertical-align: inherit;&quot;&gt;7，堆叠注入&amp;nbsp; 8，二次注入&amp;nbsp; 9，User-Agent注入&amp;nbsp; 10，Cookie注入&amp;nbsp; 11，过滤绕过&amp;nbsp; 12，万能密码&lt;/font&gt;&lt;/font&gt;&lt;br&gt;&lt;/font&gt;&lt;br&gt;&lt;/font&gt;&lt;/font&gt;" style="text;html=1;align=center;verticalAlign=middle;resizable=0;points=[];autosize=1;strokeColor=none;fillColor=none;fontSize=24;" vertex="1" parent="1">
          <mxGeometry x="235" y="410" width="610" height="100" as="geometry" />
        </mxCell>
        <mxCell id="rJS2hNAMHHPs58hexdFA-15" value="&lt;font style=&quot;vertical-align: inherit;&quot;&gt;&lt;font style=&quot;vertical-align: inherit;&quot;&gt;&lt;font style=&quot;vertical-align: inherit;&quot;&gt;&lt;font style=&quot;vertical-align: inherit; font-size: 24px;&quot;&gt;1联合注入&lt;/font&gt;&lt;/font&gt;&lt;/font&gt;&lt;/font&gt;" style="text;html=1;align=center;verticalAlign=middle;resizable=0;points=[];autosize=1;strokeColor=none;fillColor=none;fontSize=14;" vertex="1" parent="1">
          <mxGeometry x="140" y="770" width="130" height="40" as="geometry" />
        </mxCell>
        <mxCell id="rJS2hNAMHHPs58hexdFA-17" value="&lt;table style=&quot;border-collapse: collapse; border-spacing: 0px; font-size: 0.875em; margin: 0px; width: auto; border: 0px; color: rgb(77, 77, 76); font-family: Lato, &amp;quot;PingFang SC&amp;quot;, &amp;quot;Microsoft YaHei&amp;quot;, sans-serif; font-style: normal; font-variant-ligatures: normal; font-variant-caps: normal; font-weight: 400; letter-spacing: normal; orphans: 2; text-align: justify; text-transform: none; widows: 2; word-spacing: 0px; -webkit-text-stroke-width: 0px; background-color: rgb(247, 247, 247); text-decoration-thickness: initial; text-decoration-style: initial; text-decoration-color: initial;&quot;&gt;&lt;tbody&gt;&lt;tr style=&quot;background: var(--table-row-hover-bg-color);&quot;&gt;&lt;td style=&quot;font-weight: normal; padding: 0px; vertical-align: middle; border: 0px; user-select: none;&quot; class=&quot;gutter&quot;&gt;&lt;pre style=&quot;font-family: consolas, Menlo, monospace, &amp;quot;PingFang SC&amp;quot;, &amp;quot;Microsoft YaHei&amp;quot;; font-size: 1em; background: rgb(239, 242, 243); color: rgb(134, 145, 148); line-height: 1.6; margin: 0px; overflow: auto; padding: 10px; border: 0px; text-align: right;&quot;&gt;&lt;span class=&quot;line&quot;&gt;1&lt;/span&gt;&lt;br&gt;&lt;span class=&quot;line&quot;&gt;2&lt;/span&gt;&lt;br&gt;&lt;span class=&quot;line&quot;&gt;3&lt;/span&gt;&lt;br&gt;&lt;span class=&quot;line&quot;&gt;4&lt;/span&gt;&lt;br&gt;&lt;span class=&quot;line&quot;&gt;5&lt;/span&gt;&lt;br&gt;&lt;span class=&quot;line&quot;&gt;6&lt;/span&gt;&lt;br&gt;&lt;span class=&quot;line&quot;&gt;7&lt;/span&gt;&lt;br&gt;&lt;span class=&quot;line&quot;&gt;8&lt;/span&gt;&lt;br&gt;&lt;span class=&quot;line&quot;&gt;9&lt;/span&gt;&lt;br&gt;&lt;span class=&quot;line&quot;&gt;10&lt;/span&gt;&lt;br&gt;&lt;span class=&quot;line&quot;&gt;11&lt;/span&gt;&lt;br&gt;&lt;span class=&quot;line&quot;&gt;12&lt;/span&gt;&lt;br&gt;&lt;span class=&quot;line&quot;&gt;13&lt;/span&gt;&lt;br&gt;&lt;span class=&quot;line&quot;&gt;14&lt;/span&gt;&lt;br&gt;&lt;span class=&quot;line&quot;&gt;15&lt;/span&gt;&lt;br&gt;&lt;span class=&quot;line&quot;&gt;16&lt;/span&gt;&lt;br&gt;&lt;/pre&gt;&lt;/td&gt;&lt;td style=&quot;font-weight: normal; padding: 0px; vertical-align: middle; border: 0px;&quot; class=&quot;code&quot;&gt;&lt;pre style=&quot;font-family: consolas, Menlo, monospace, &amp;quot;PingFang SC&amp;quot;, &amp;quot;Microsoft YaHei&amp;quot;; font-size: 1em; background: rgb(247, 247, 247); color: rgb(77, 77, 76); line-height: 1.6; margin: 0px; overflow: auto; padding: 10px 0px 10px 10px; border: 0px; width: 503.594px;&quot;&gt;&lt;span class=&quot;line&quot;&gt;&amp;lt;?php&lt;/span&gt;&lt;br&gt;&lt;span class=&quot;line&quot;&gt;header(&quot;Content-Type: text/html;charset=utf-8&quot;);&lt;/span&gt;&lt;br&gt;&lt;span class=&quot;line&quot;&gt;$server = &quot;127.0.0.1&quot;;&lt;/span&gt;&lt;br&gt;&lt;span class=&quot;line&quot;&gt;$username = &quot;root&quot;;&lt;/span&gt;&lt;br&gt;&lt;span class=&quot;line&quot;&gt;$passwd = &quot;root&quot;;&lt;/span&gt;&lt;br&gt;&lt;span class=&quot;line&quot;&gt;$dbname = &quot;xiaoming&quot;;&lt;/span&gt;&lt;br&gt;&lt;span class=&quot;line&quot;&gt;$conn = new mysqli($server,$username,$passwd,$dbname);&lt;/span&gt;&lt;br&gt;&lt;span class=&quot;line&quot;&gt;if ($conn-&amp;gt;connect_error&amp;lt;&amp;gt;0){&lt;/span&gt;&lt;br&gt;&lt;span class=&quot;line&quot;&gt;	die(&quot;Error&quot;.$conn-&amp;gt;connect_error);&lt;/span&gt;&lt;br&gt;&lt;span class=&quot;line&quot;&gt;}&lt;/span&gt;&lt;br&gt;&lt;span class=&quot;line&quot;&gt;$id = $_GET[&#39;id&#39;];&lt;/span&gt;&lt;br&gt;&lt;span class=&quot;line&quot;&gt;$data = $conn-&amp;gt;query(&quot;select * from good where id=&quot;.$id);&lt;/span&gt;&lt;br&gt;&lt;span class=&quot;line&quot;&gt;$result= $data-&amp;gt;fetch_array(MYSQL_ASSOC);&lt;/span&gt;&lt;br&gt;&lt;span class=&quot;line&quot;&gt;echo $result[&#39;username&#39;];&lt;/span&gt;&lt;br&gt;&lt;span class=&quot;line&quot;&gt;echo $result[&#39;password&#39;];&lt;/span&gt;&lt;br&gt;&lt;span class=&quot;line&quot;&gt;?&amp;gt;&lt;/span&gt;&lt;/pre&gt;&lt;/td&gt;&lt;/tr&gt;&lt;/tbody&gt;&lt;/table&gt;" style="text;whiteSpace=wrap;html=1;fontSize=14;" vertex="1" parent="1">
          <mxGeometry x="280" y="640" width="560" height="360" as="geometry" />
        </mxCell>
        <mxCell id="rJS2hNAMHHPs58hexdFA-18" value="&lt;pre style=&quot;font-family: consolas, Menlo, monospace, &amp;quot;PingFang SC&amp;quot;, &amp;quot;Microsoft YaHei&amp;quot;; font-size: 15.75px; background: rgb(247, 247, 247); color: rgb(77, 77, 76); line-height: 1.6; margin-top: 0px; margin-bottom: 0px; overflow: auto; padding: 10px 0px 10px 10px; border: 0px; width: 503.594px; text-align: justify;&quot;&gt;&lt;span class=&quot;line&quot;&gt;&lt;font style=&quot;vertical-align: inherit;&quot;&gt;&lt;font style=&quot;vertical-align: inherit;&quot;&gt;$id = $_GET[&#39;id&#39;]; &lt;/font&gt;&lt;/font&gt;&lt;/span&gt;&lt;br&gt;&lt;span class=&quot;line&quot;&gt;&lt;font style=&quot;vertical-align: inherit;&quot;&gt;&lt;font style=&quot;vertical-align: inherit;&quot;&gt;$data = $conn-&amp;gt;query(&quot;select * from good where id=&quot;.$id);&lt;/font&gt;&lt;/font&gt;&lt;/span&gt;&lt;/pre&gt;" style="text;html=1;align=center;verticalAlign=middle;resizable=0;points=[];autosize=1;strokeColor=none;fillColor=none;fontSize=24;" vertex="1" parent="1">
          <mxGeometry x="287" y="990" width="540" height="80" as="geometry" />
        </mxCell>
        <mxCell id="rJS2hNAMHHPs58hexdFA-19" value="&lt;font style=&quot;vertical-align: inherit;&quot;&gt;&lt;font style=&quot;vertical-align: inherit;&quot;&gt;&lt;font style=&quot;vertical-align: inherit;&quot;&gt;&lt;font style=&quot;vertical-align: inherit; font-size: 14px;&quot;&gt;按照注入的类型 单引号，双引号&lt;/font&gt;&lt;/font&gt;&lt;/font&gt;&lt;/font&gt;" style="text;html=1;align=center;verticalAlign=middle;resizable=0;points=[];autosize=1;strokeColor=none;fillColor=none;fontSize=24;" vertex="1" parent="1">
          <mxGeometry x="255" y="480" width="220" height="40" as="geometry" />
        </mxCell>
        <mxCell id="rJS2hNAMHHPs58hexdFA-21" value="&lt;font style=&quot;vertical-align: inherit;&quot;&gt;&lt;font style=&quot;vertical-align: inherit;&quot;&gt;判断是否存在注入点：&lt;br&gt;1，加入单引号提交，如果出现错误提示，则该网站可能存在注入漏洞&lt;br&gt;&lt;br&gt;&lt;/font&gt;&lt;/font&gt;" style="text;html=1;align=center;verticalAlign=middle;resizable=0;points=[];autosize=1;strokeColor=none;fillColor=none;fontSize=14;" vertex="1" parent="1">
          <mxGeometry x="315" y="1070" width="450" height="60" as="geometry" />
        </mxCell>
        <mxCell id="rJS2hNAMHHPs58hexdFA-22" value="&lt;font style=&quot;vertical-align: inherit;&quot;&gt;&lt;font style=&quot;vertical-align: inherit;&quot;&gt;2，加入字符提交&amp;nbsp;&lt;br&gt;语句 and1=1；and1-2；&lt;br&gt;结果：分为返回不同的页面，说明存在注入漏洞&lt;br&gt;&lt;/font&gt;&lt;/font&gt;" style="text;html=1;align=center;verticalAlign=middle;resizable=0;points=[];autosize=1;strokeColor=none;fillColor=none;fontSize=14;" vertex="1" parent="1">
          <mxGeometry x="375" y="1120" width="320" height="60" as="geometry" />
        </mxCell>
        <mxCell id="rJS2hNAMHHPs58hexdFA-23" value="&lt;font style=&quot;vertical-align: inherit;&quot;&gt;&lt;font style=&quot;vertical-align: inherit;&quot;&gt;order by 判断字段数量&lt;/font&gt;&lt;/font&gt;" style="text;html=1;align=center;verticalAlign=middle;resizable=0;points=[];autosize=1;strokeColor=none;fillColor=none;fontSize=14;" vertex="1" parent="1">
          <mxGeometry x="165" y="1260" width="160" height="30" as="geometry" />
        </mxCell>
        <mxCell id="rJS2hNAMHHPs58hexdFA-24" value="" style="shape=image;verticalLabelPosition=bottom;labelBackgroundColor=default;verticalAlign=top;aspect=fixed;imageAspect=0;image=data:image/png,iVBORw0KGgoAAAANSUhEUgAAAZIAAAD/CAYAAADbn1DKAAAgAElEQVR4nO3dTbKbOrcG4Jdb32gQjQwmS25mCpkB0jjSSddShiPRSyudNPYATiWp0m0ANvgPMLaBvd+nynVONgaE+FlIYK3s7e0t/fv3D3///sWfP3/w33//4du3b/j06RO+fPkCIiKiW/5v6QIQEdG2MZAQEdEsDCRERDQLAwkREc3CQEJERLMwkBAR0SwMJERENAsDCRERzcJAQkREszCQEBHRLAwkREQ0CwMJERHNwkBCRESzbCuQeI0sy5BlGQobly7NubWXrxFtAe3vn9/r4rCdWTZvWXQvD51lyAr7mrXpel8/87CO0cNbjaK49/zx0EXnuJy8jFivvz2HtcV6z+J12VYgEYeUEoJRFyZ62KKAtgte1W6W7zFsoXHvFkZvYX17asSTf49diIWtcoSUkFJCSgFO7iwQzSBwyeFVVS8u4YmHNQBAKYGUDqG8b6tsYYEy1Mdl2EP53aSbnGh3sJDDsV0qj92KbwjXZGQgae9+dBPxNbxvInd7YYu2ieTHu5ZomzvXw11ThO3czRa6QNG7o4qwRdG5051y1yUoQ0CZV9CFnn6BHFO+2L3jueOOZXD+2L/bLyx00dRnU78mNnXSfKacKEpKfM4rWB/h7Q9UeYlSxl8dvM6QFQYx+sNdW3ff1Het9d3k4c6uF/hO6rewzbQRx9cYt+r3cHw2dXZoPXbusr09uaNt1/yg8l3d/pH1F0/uuE9XPHB8De+fEapOHRUax/uSMef/c5UhwLXHs1L4PDEeqTKMCGIRtj0GGGOO3t7e0u/fv9OvX7/Sz58/U4wxff36NX3//j31BJMUVDIhpWAkAZJcSMmJSuKa7zhJyoTuTMkoSe6wCJWUcan9RnCSoMzh20bVy2/ndaJ6049FUSfrOeeMJCUmhdtfu7DcG+UTSb3FBZdExpdvaP66LkN/Orp1knr1eY9g6jrt1/WkBSR1YZ8cOEmASkpcXffBHfbB2TqDS6JMXSdjjq8Bg/unWYe4k/8/fqF3vDjBcfojyndr+48rvVJ/Lomq19mW9fT8GHV83tg/w+VHguqcU6EpU2fZt87/0c6Wc4fmOJ2+lFBvJ5DUxR3bTu/uC5oWSNqD1klCU8nBdE+kkwPn7IBwSZqdBCCp7olx6QJ15aI1JpAc5seUC+ZA+XCcdvycnygXyzc4f31RGTI3kDhj6vmDS2LuWNKIQHJx3wRz8cR00uyfUcfXQLnG7J/gmu9dOC6COdn/J4Fkbvlubf/xD5fr79Lfu2Uau/0zLtKXbj6mnf8jzQ0kwfQD3F3LCMnIyOsMpQc/I1EoS8DWfTGwFijLbteJwIWmbz0E7AXQu+c0e73VKCywDwHl6N6bG+VTOXJlmucC3c/IfuqR8z+7tSxlWa9PCdydfdGrNLZ+K48IBaWAWPU6fqALD9X2saeE/YRuv8XNPT4fU4iB8//5otUobI4yzNxupVCWAvgfjyrau/b4h+1SQryFtRZeyt7OtEUB3XYsKgXkgMrz5t8lBL7zVkiEt37yhTV6C11oVHmJ4EqoCcfxzfJBILlHcffD/KH5BZKb3sO92PR59/vCK1SHPmiNItPbeLNElZDK9t/6iR6+Enx+yLVmeP9EW6CwgAsBIZSALY5vB8UKlcrxOVdN0e54EeGWudsvgtzbTr/86fkx9/gcI8LsLGJbZd5i53NI9yS/cf4/RPts6/wBEawuYFEiOIHClbcTr85/cv4jwluDeDj/h+f/0MZ1bbkkbVNZXNPPiqRMqPvcgX7z3snFLh+jJImoY7NbnfYzhmRUO10lcd3unk4ZrnQNGaXu666ZUD7Xm970NY8q39D8zfafTDcnHbHBybEL46x8z2XUhe07PiC7uP2nzyC626eUOXbrTTm+rrpev+1yDstq1tGuJ518R4lJzqimC+xx5bu8/SPrL3S7XpvzA+g8J5l+fI59vuOk6Q50Zvj4u3L+j1vHyeekG/VQjgvdkpe69k637+r8KR26s47HgDt7xlLPL3c8e3nfsre3t/Tv3z/8/fsXf/78wX///Ydv377h06dP+PLly33RyWsUVYkwu1nroYsKLpQzl0NEL/Ow8/9U/Vanl3DnsufPr7Md1KTu8o/hf49cmNfdbpgK9vP9Fd5dVlYAicGEaNUeef5fFH/AR0EZ7lzo3Pmh4FK4c9737TktEiIi+jC29ct2IiJaHQYSIiKahYGEiIhmYSAhIqJZGEiIiGgWBhIiIprlvkDi9aoTN62+fEtj/TwX65c+GLZIiIhoFgYSIiKaZXwg6WSYy7RHNMVJlr5+5r7jR/ez4D1r+trLt/R01s/C9Uv0ft03RMrTBmV7kLWXb2msn+di/dIHw64tIiKahYGEiIhmuW8YeXFY9WDKay/f0lg/z8X6pQ+GLRIiIpqFgYSIiGZhICEiolkYSIiIaBYGEiIimoWBhIiIZmEgISKiWe4KJNEWs4bJ9jobMX8ztlFhJy9/bvmewesMWVZgDcVaY/28J6xf+mgWaZGISyPGIRK45CAvKdHziUswHHqJiN6h1wYSrw8jol68Y4seumhHVS1eOmpqtPVorYXWx1Fci3bk1+P0tkx1C6Pdjrb1pJvya3jfLKezDABAZY/bWGj4bjX0tj9DoS26k7vr9PbK8p/k9vYfvgWri075CxTdFuWM7RvaP/UCbP/4se3UkftnoHxEdNlrA4k4pJQQLt6ae+idh+wTUkpIaQ/x9iUXSQBQZUAwCrECylCXweUVbHOhbKcfNyUhuba9JHDBQMUKap8QDKB1vRyXV/DHKxWMBcp2G/cCvzteyKz1h3WnlBDKHFbbs3VGs4ONgn2ol5G/4Gp3e/ubrbM7eFUiNOXfS967EM/ZvqH9Uy/g87FuU4BE3QS+cftnqHxEdNl6HrZ7j0pKyOFapSCl4NW9QVK6QxlE8mkzK0GpAJUDEIEoIO9tgILZl1Cq831pLmTRwnt/vNtu75Z9PAumyuwRnNTLUXJc3sJUWSL3xxbDzgJuX9YTH7R9N/dP/AG7Oy7fVqcLvrF/JpSPiPrWE0g+OpUjV+ZwN3z8bOk5kcC1d/QhYC+A3jV39E/fPg9deKgyHJa9lwkR9l3UP9Ey1hNIRJB723lmEOGtX10fdVXVJYreopj8ECfC7Cxis1HRW+x8DhEAEEjuUdh13//e2n5bFNDtDlQKyAGVt62GJ29frFCpHJ+bJkb0FtZPOXq2Uf9Eq/T29pZ+//6dfv36lX7+/JlijOnr16/p+/fv6ZpgVFImXJ1+mUsCJJx9JLnDgl0S1f5dJXHNPMpMWtM95QtGHcokLqXk5PDvw7K65VOSnJFmujlum7jDvMqE3nIBlYwzSaGzjF4xQ3LS+b5SSYlL4Ub9iTvdkufUz+3tr5dllCTplf9x2zdm/3S/o8QkZ1Rd58EN7p96PbfK94L6Jdqou1LtRltgh/1qU4muvXxLY/08F+uXPpr1dG0REdEm3dUiISIiarFFQkREszCQEBHRLAwkREQ0CwMJERHNwkBCRESzMJAQEdEs9wUSr9eduGft5Vsa6+e5WL/0wbBFQkREszCQEBHRLOMDSbTHXA3aI5pjJrx6ENgmC93Zp03c9OTpay/f0tNZPwvXL9H7dd8QKV6jqMr1Dkq39vItjfXzXKxf+mDYtUVERLMwkBAR0Sz/u2sucQgPLshDrb18S2P9PBfrlz4YtkiIiGgWBhIiIpqFgYSIiGZhIKH5vEaWKZjRo4JEGMXfVxC9Fwwk9BhiYMb+bMJbWOXg5PbXYuR4VURbwEBCLxZhDODaKBIN1MVfjGcoigJqfDOHiBbCQEIvFY1GZRyk/gdU4SEhIaWElBwkLxFS+++EOLqZQ0RLuSuQRKOecqcYo4c3Gkpls5Z/b/ketf61e8T+i0ZdfC7i9Y1nH9HAou3SijDaQ0Ic3yW2Ec86P4jW6r4fJD6JUgKlBKI01ALn4dLr3w4Pa4GyDQLVcYq4BOgMKoaT1kSE0Ra+sshs/Ze8DIjvLIgQfUTs2qLJojGIpbvakhAXIP70+YaCiU2XlZM6iLy3pgjRB8VAQtNEA12ZgSCgYFwJ2AsPy71G5qWZP8JoAzb+iLZtVV1btHYeWgMuDry3CwDKwJUeRVUBaIKO18i0B+CRZQCQowwRbJcQbRsDCY0UYZSHRDf6wq/EoHk/qyaCsixh2KVF9K6wa4tGUjCxFxZGzCKQXsyQYxDp/H6Ev3An2rZVBRKvj6lKK9ukKlXmw6x/W6Y/3zjUb5Yh04BzDi6lK79wb1LbKj5DIVq7VXVtiUtIH3j926JgSg+VZagAiHODc5zXr4fNMujjN+BCDp1lqCB1kIkePgKKvWFEq7WqQEIbowximtNiq4PF2V+7y1QyrTuNiF4ue3t7S//+/cPfv3/x588f/Pfff/j27Rs+ffqEL1++LF0+IiJauVU9IyEiou1hIKH5JucjOReNgdanIwDPWyYRvQYDCT3GqHwkdUKrXrA4vJXlATmO+luPBHz6+jARrREDCb1Y/YD9MOaWCH/ZTrRxDCRERDTLqvKRAB5aHfvH9Z3ruL98j1n/2i2Wj6T+Rv1Dw+aHn6fzHru9NLb6g3fmI6GPZlUtEqMMYELd7REccq9fOnzG0uvfjpN8JB3iEsTfSgzW79o6nbf3jOQ5hSeiB1vVDxJN7Fx8lIIIYD/Q+reizUfibuQjiaqAAnOOEH0Eq2qR9EQD7QXlUrelS69/rebmI7miqqp307VF9NGsM5BEA60rmGiWeaNn6fWvVpOP5PIoi33KwJU5qqo6mXDpGUlEjDnKwK4toi1aVdcWAESjoSuBW+givvT61+sB+UgA1M9ITv/qUUFQssKJNmlFgSTCaI0qd4hN53s0ClbFK8OMv7f1r12dj2TaLKcDLl5eRjQGMMyUSLRV6+naih7eV/BtHpAsQ2FPu0Xe8fo35zH51qNR0HCHYB0jX5sl2pr1tEhmD0m+8fVvzvR8JH0RRhXwcvJml9fIiiaAi8PUpRLR660nkND2zAi+XmvAJcST/ixlIhjPibaF+UiIiGiW9TwjISKiTWIgofkekI/k2nI5ZhXR+jGQ0GMM5SOJBio7TVw18PECB8vkVkQrx0BCr6EMYur+cr35hIBw6e8pwQmgjBuRMIuIlsRAQi/UGR6l/RRFPVz/hRaL1hx9mWgLVpaPJMIbfbigqDt/8HZ/+R6z/rVbNB9JXvZaIE5ySJtPV1ynRRJQ5gLZ4KgCzEdCH82qWiTRaBjIoQvE5P6lyaWWXv92zMlHgnoUgSuTvXmfwZvoPVvVDxKViYteRJZe/1bMzkeickRtkLvzXx6KANpEXJhERCu1qhZJLcI06W7NYN6L97j+lXtIPhIFBQt7qQtMKcBa5iIh2pAVBhIFE+u3eQRmgb7mpde/Zo/IR1LL8/zKAI058jyCYzcSbccKA0lDKZhSAL/QvenS61+dNh/J+DwtSgzclRSTysQrrRoFE8+fvRDReq0qkBiloA9PYSO8tajU664oS69/3epcIpNeolICYfURvXvrCiTOIfe6+R1BAQOH8MKsUkuvf1sek4+EiLZvVW9tQSkYF7HYCztLr39T5uUjOf7eROAccIxIHjrT9cP2vER4YImJ6DnWFUhoWybnIxG4WLfwlEtIp8tqYpFL6WxOIlov5iMhIqJZVvWMhIiItoeBhOa7Mx+J1ydDqXiNTPEBPtHW8BkJPcZQPhIA9W9RCtjebxQLZLb/reLwh/zieF5EtC5skdALNaMGdEb+LUMnB4kT5GXojADMIEK0BQwk9Bpx+oCYXmfI2leBiWi1VpaPpNUkQLozq9H88s1b/9otk4/kPKmVFwfo09S6ujM9IaUS+cYemjAfCX00K2yRRBhlkLsS+Ydc/xbckY+kk2o3lII8B7w+eV7iNYrDH9qkVgocpYZo3VYXSLzWqEyEWegqvvT6t6DNR3Lt+YW4APHXhpAHgAhljs9GQplD3OmzknLauF5EtJhVvbUVjYKBQRRgiXdAl17/JrT5SK5ltQLQ5iPxxfXkVl5nyHp/6f87L8vHlJeInm5VLZKqqlC1gyYWFpXXL+1rXnr96/e4fCTdFsilFgkRbceqWiTSHX8pGiirXpqhcOn1r1ubj8RNy0dypYPK6wyqDDBV0TycV9ACeN8EHhFg9JqIaEmrapHQmj0yH4lCGRIcNHQsEVJCSg55rOpg7ty4Vg8RrcIqA4nXy3YtLb3+bbg/H4kyJaAzFF4QDhkX6x8ris+QaQ39Tl+9JnqPVtW11ZLTIcY/2Pq34b58JPXvTJpftF9orbR1X/9OxcOlia0gInq5VQYS2ohJ+UjqcbYqk5BGxBxlIialOiGixTAfCRERzbLKZyRERLQdDCQ036R8JBFxzPe8mZzfhIiWwWck9Bij8pEAQAVbFONG9BUFw9eAiVaPLRJagNRvY+XNb0gOeUgCyhyAuDpXSckgQrQFDCS0EEEpHkX39yLewkvgEClEG7OufCTRQPVyVtyX1Oju8j1o/Wu3TD6Sc0oM3KHV4aG9vIshaZiPhD6a9bVIxHVSrS7wY7Sl178Jd+QjOZm/TRzmdf3fylYQ8Ycgzh+2E20HH7bTZG0+kmsjyYsLiOraEPICl07GDfAaKpYQUWgnxRiZ0IpoI9bXIvHHVKuZ0vCv7iFYev1r1+YjudkFVecjgT1PbuV1P91ulrUtkqL3t6K4lRiLiNZkXYGkk461zkuRw9gX9nEsvf7Vm5+PpJd3pJcRMZz93cAzvxjRBqy7a0spqBiBpZ5ULL3+VZmbj6Qea8teznMFwCOzF//cGSGYiNZoVS0SoxSUObYAvDHwL+woX3r96zY3H0k9THxKCa5sfz9S1qMAp4QUSpSu85JD+9IDgwjR6q0rkEQHqcyhn9xUgvDC3xQsvf5tuTcfiYevVB0cRKEqmleslYHy7dtaAif+3b5+TfTerKxrS8G4iOVGD196/VtyTz4SD51pxDI0/86R5/XYW6KAPM+PXxUHJ+owjYjWa2WBhDZlUj4S4PzVXwXTGcFRmYhuOBIX+XSKaAOYj4SIiGZZ1TMSIiLaHgYSIiKahYGEiIhmYSAhIqJZGEiIiGgWBhIiIprlvkDiNQq74uH01l6+pbF+nov1Sx8MWyRERDQLAwkREc0yPpBEi6KTiCia4iQtapM+9ezTDrz35OlrL9/S01k/C9cv0ft13xApXqOoSoRypaPprb18S2P9PBfrlz4Ydm0REdEsDCRERDTLfcPIi0MY/tZy1l6+pbF+nov1Sx8MWyRERDQLAwkREc3CQEJERLMwkBAR0SwMJERENAsDCRERzcJAQkREs0wLJN3xhHrjEL0vXmccBpyIaKTpLRJxSCk1Hwd5QqGWJi6tdpwkW7zP4E1E2/XSri2v65ZMYSO81XXrpndhjLD6OGpqUdjDNFsc5z1dXlbYy/PrAsVh2qgCHuc9aZFEWzTL1MdW2eSL+kD5oocuss50i0Mpmtagif1RaDmyLBEtbXog6Vxss0LDT+gBEpeQnCCaHWwU7ENC2gvyZhm22AFlOLR4wj6HL+qLabk3UOJ6LQVxCU4UzL4EAES7g1clQjP/XnJM6qBqWlvBnLdGVBkQjEKsgDLUy3d5BTuhC2yofNb6w7JTSghlDqttWwCElGCUwKXjd9x7bBIS0aZMCySdi2BKCWmvYO30W2Jl9ghOoBQA1fw3Wvi8RK9HSQkk9/gR63VL5RHRtE4Ki4gIXwk+q7Z4JXJ/bDHsLOCaIPMoUjpIsz6RfNK8N8sXLbz3/WdQhYb3kV1ZRLRq87q2VI68qh5UlGF5XuFH9IgwcLnHD/sDVZ6j00aBa+/oQ8BeAL2b0LX1dDfKp3LkynSeP73v51BE9H5MCiS2KFB0WiDeWvh82l35VaqEVBa9nqLoey0OkRzRelTyGSI5vPfI5XiZtUUB3fa1KQXkgHpU+R7gdvnq1lcx2MKrUDWLiFajyPS07jsiokd7e3tLv3//Tr9+/Uo/f/5MMcb09evX9P3793QuJCMqAUgAkhKTwoVvXeaSNPN1P+JuLF+Z1J9skoJKJtTflcP/14ySJJ35oSS50QW8XD5AkkspBaP6ZXZyLKcZt5Lh8oXketNVUuJ6dRycJHXX9hERPcd9qXaJiIga/GU7ERHNwkBCRESzMJAQEdEsDCRERDQLAwkREc3CQEJERLMwkBAR0SwMJERENAsDCRERzcJAQkREszCQEBHRLAwkREQ0CwMJERHNwkBCRESzMJAQEdEsDCRERDQLAwkREc3CQEJERLMwkBAR0SwMJERENAsDCRERzcJAQkREszCQEBHRLNsKJF4jyzJkWYbCxqVLc27t5WtEW0D7++f3ujhsZ5bNWxbdy0NnGbLCvmZtut7XzzysY/TwVqMo7j1/PHTROS4nLyPW62/PYW1x3+Y2++YDnRjbCiTikFJCMOrCRA9bFNB2wZ13s3yPYQuNe7cwegvr21Mjnvx77EIsbJUjpISUElIKcHJngWgGgUsOr6p6cQlPPKwBAEoJpHQI5X1bZQsLlKE+LsMeyu8m3eREu4OFHI7tUnns7ghGtrBQzuDJ1bUqIwNJe/ejm4iv4X0TudsLW7RNJD/etUTb3Lke7poibOduttAFit4dVYQtis6d7pS7LkEZAsq8gi709AvkmPLF7h3PHXcsg/PH/t1+YaGLpj6b+jWxqZPmM+VEUVLic17B+ghvf6DKS5Qy/nD3OkNWGMToD3dt3X1T37XWd5OHO7te4Dup38I200YcX2Pcqt/D8dnU2aH12LnL9vbkjrZd84PKd3X7R9ZfPLnjPl3xwPE1vH9GqDp1VGgc70vGnP/PVYYA1x7PSuHzxHikynB3EGt5vUMsA8r82jcibHsMrbfTYrq3t7f0+/fv9OvXr/Tz588UY0xfv35N379/Tz3BJAWVTEgpGEmAJBdScqKSuOY7TpIyoTtTMkqSOyxCJWVcar8RnCQoc/i2UfXy23mdqN70Y1HUyXrOOSNJiUnh9tcuLPdG+URSb3HBJZHx5Ruav67L0J+Obp2kXn3eI5i6Tvt1PWkBSV3YJwdOEqCSElfXfXCHfXC2zuCSKFPXyZjja8Dg/mnWIe7k/49f6B0vTnCc/ojy3dr+40qv1J9Loup1tmU9PT9GHZ839s9w+ZGgOudUaMrUWfat83+0s+XcoTlOpy8l1NsJJDV2xx5WqY7zBHNl/nb53X25fdMCSXvQOkloKimY7ol0cuCcHRAuSbOTACTVPTEuXaCuXLTGBJLD/JhywRwoH47Tjp/zE+Vi+Qbnry8qQ+YGEmdMPX9wScwdSxoRSC7umysnlpNm/4w6vgbKNWb/BNd878JxEczJ/j8JJHPLd2v7j3+4XH+X/t4t09jtn3GRvnTzMe38H2luIAmmH+DuWkZIRkZeZxpOzut/dkDciAc/I1EoS8DWfTGwFijLbteJwIWmbz0E7AXQu+c0e73VKCywDwHl6N6bG+VTOXJlmucC3c/IfuqR8z+7tStlWa9PCdzMZvyqjK3fyiNCQSkgVr2OH+jCQ7V97ClhP6Hbb3Fzj8/HFGLg/H++aDUKm6MMM7dbKZSlAP7H6FnEdeo9GChxCC/e/qU8/mG7lBBvYa2Fl7K3M21RQLcdg0oBOaDypjNRlRD4zlshEd76yRfW6C10oVHlJYIroSbsx5vlg0Byj+Luh/lD8wskN72He7Hp8+73hVeoDn3QGkWmnx58HkKVkMr23/qJHr4SfH7IuTa8f6ItUFjAhYAQSsAWx7eDYoVK5ficq6Zod7yIcMvc7RdB7m2nX/30/Jh7fI4RYXYWsa0yb7HzOaR7kt84/x+ifbZ1/oAIVhewKBGcQOHK24lX5z85/xHhrUHM89Hzzyv/xo3r2nJJ2uaauKaftW62BaMSgH7z3snFLh+jJImoY9NPnfYThmRUO10lcd3unk4ZrnQNGaXu666ZUD7Xm970NY8q39D8zfafTDcnHanBybEL46x8z2XUhe07PiC7uP2nzyC626eUOXbrTTm+rrpev+1yDstq1tGuJ518R4lJzqimC+xx5bu8/SPrL3S7XpvzA+g8J5l+fI59DFB326hknBk+/q6c/+PWcfI56UY9lONCt+Slrr3T7bs6f0qH7qzjMeDOnrHcnP/Cdpx2bdXT5I5nN+uWvb29pX///uHv37/48+cP/vvvP3z79g2fPn3Cly9f7otOXqOoygc06zx0UcGFcuZyiOhlHnb+n6rf6vQS7lz28vPrbAc1qbt9G/73yIV53e2GqWA/319h3WVlBZAYTIhW7ZHn/0XxB3wUlOHOhS49PxRcCnfOu27PaZEQEdGHsa1fthMR0eowkBAR0SwMJERENAsDCRERzcJAQkREs0wKJGPyBcRmepYV59/pjMBaf66NPPr68fzbkVHb0VEPI5dOGL30FTkbVm0T+VjGjCh96/ibnwfE62fWz6vylLw2H8oo7+b4255JgWQwX4DX2KFECHWeipDb8yEKmpwd6eo4QMuM5y8uwYmCCQmhVM2YSw6izOjfsLwiZ8OqvSAfy3wyMGzO0PE3NP+IErj0xDGY5pdv7HpemQ9llHdx/G3TQ7u2vK8g3YGDcoXKT2tVDI/nv4y2hVJo3cnFcT2Xw2mLxo+a/3q+Cluc32kdWlGFnVy+K6W+ng9loHyDS27K195YdHNjjMn38Zjt6zgdQwltuUYef1fmv+nGHfNrtm/r+VCGjs8BV/PNDB2fx/U/LF/RPcfPij3/GUlV9f/dOZl6iXFQ70yLcpUZ91QZEIxCrICyGSHY5VUz0um5CjmUakYTDiVkxPy22B0zvKWEsM/hi/pgLPfno4keWlH7cnL5LvF6By/7Y4txn/eGI75VvrH11y17OuxogQsGKlZQ+4RgAK3r7XB5Be+n1/8teQ4odX4ijz3+rs0/6MYd8yu2b2j/tfskmh1sFOxDQtoL8ggAHnrnIfu2N2EP8f1AZK0/lD2lhFDmsPp4ob29/H8ND6kAAAQUSURBVGFDx+cg+YzyUP4AifoQOG4fn7Vod/CqPGRQ3EveW/3Q9rfuPn5W7LUP2zs7oT4QFGznrqCKEbENNIVB9HpCX2c/c+Dwc5j7SOnQji4ucvmuz+8y6CjYh+N3B+ePFj4v+0NKqHpE1x8Rzeix9WivtmhaIYhno8cOl++aeiRa1y2wErjUDHMxVL5HUIJSASoHIAJRQD62/ia41rU09vh7ZtfU07Zvwv5TZl+PoKvq7ygFwHtUUnaOZwUp5dj9Fy289/1noIWG9/Hs/Lu4/EEDx+cY8Qfs7lg+Ww3P0it3WSL3xxbjzgJu33R7T9j+53ZtLuPBgSQinu6cW004lSPvtFjmjecvcGe5GGbmY4gVJh5rAIA8F6jK3zXv7eVW+BE9Igxc7vHD/kCV5w99lrTWR5Sv8JHzScz2onwo9x+fj8g388R8RRv30EAipQE6yYK89cg7yQpsUfTyJXhr4VfUV5grwHT7TX/483wEgxRU6VCnu5jQGhqRr0IkR7QelXyGSA7v+/U7z0A+lAflE6ma4yN6i+K95WRYs83nQxmbr+eKkflmbh2fz81XtHGjU+2mcfkC6nzW19JMno73fzmn8q3x/J+rn8+hW74x+Sy6uQpOt2HM/LfzVaST1MGhl8993PKHt/92PpTp+TR6eSm6+TSUJGfavB5mMN+HUo/YvnGec/zdrp/H7L8h282Hcqn8/eNz+Pi7nm/mwvb1js/6C/PyFb1vHP2XiIhm4S/biYhoFgYSIiKahYGEiIhmYSBpZFm2dBGIiDaJgYSIiGZhICEiolkYSIiIaJZtBZJN5BsgIvpYthVIbuYb8PUQBh91iAIiooWMDCTD+SKO2Q+P+QEOOTkOY/YPjOePCFsUx3wBfko2MUEZAsq8gi70xXF0iIjo8UYGkuF8EVBlPTS02R+GdVblHkYJXJNhcHA8/2IH7NvROZt8BxMyFAKAkhIuOOSVrRPLMJ4QET3VtK6toXwRUvaT3XgLL+VhGOXB8fwhndwCJ/kOJpJmBN7dlAxqREQ02YOfkSiUJZqsbhHWAmUvn8ON8fwfzFuNwgL7MCHxDRERTfb4h+1Nq8TafmsEGBjPX5UQ+F5+8H6+g3Git9CFRpWXCK4cmX2NiIjuNf5he2EQo0HWJnvppCH1uptcpm6VGHPaGgGAHPC7ziu8QFkeQ00Z9sCufdi+OwlEx1S6hYmIpjhJpVu/tWWrHC44lJOznxER0T2ek4/EaxRV+YA0pR66qA4P658pyzKklJ6+HiKi9+Z/j1xYv2VSwX6+//lEd1lZgUlvbhER0es8NJCIS3jUPf0jl0VERM+zrV+2ExHR6pwFko/6nOCjbjcR0Vy9QMKLKRERTcWuLSIimoWBhIiIZukFEuYtJyKiqf4fy60rvwvOMKkAAAAASUVORK5CYII=;" vertex="1" parent="1">
          <mxGeometry x="334" y="1180" width="402" height="255" as="geometry" />
        </mxCell>
        <mxCell id="rJS2hNAMHHPs58hexdFA-25" value="&lt;font style=&quot;vertical-align: inherit;&quot;&gt;&lt;font style=&quot;vertical-align: inherit; font-size: 14px;&quot;&gt;联合查询判断注入点&lt;/font&gt;&lt;/font&gt;" style="text;html=1;align=center;verticalAlign=middle;resizable=0;points=[];autosize=1;strokeColor=none;fillColor=none;fontSize=24;" vertex="1" parent="1">
          <mxGeometry x="160" y="1564" width="150" height="40" as="geometry" />
        </mxCell>
        <mxCell id="rJS2hNAMHHPs58hexdFA-26" value="" style="shape=image;verticalLabelPosition=bottom;labelBackgroundColor=default;verticalAlign=top;aspect=fixed;imageAspect=0;image=data:image/png,iVBORw0KGgoAAAANSUhEUgAAAoYAAAEMCAYAAABZSXdaAAAgAElEQVR4nO3dPazkSnre8YezI6wUaCF4MwNWsrYCVgVjwZpEiTIHDj3FxsLBCbxKFlh4U0dkGQYUOBGgSJjkAjdYNGtCG3BmQRC0AgRMYLAYCJ7UUKL8zoWsckB2N7tPf7A/2afP/wc05pwhWXyrWOR5u4rszv7uP75L389Kffxv/1X/+j/8Qk9PTwIAAMDr8yb77X+m9Lf/XfrtH08dCwAAACb0RpLe/NufKfvdfOpYAAAAMKE36f/+H/2/PymU/vZ/TB0LAAAAJvQm++f/Uj/4z7WyP/h3U8cCAACACTFiCAAAAEnSm+z3/kA/+C//kxFDAACAV+5N9ofF1DEAAADgDrzJfu/fTB0DAAAA7sCbqQMAAADAfSAxBAAAgCQSQwAAAPTuPzEMhbIsU5Zlsj5OHc1z9x5fL3qrIpy+fSjssp5Zdl5Z6ETftelLaMtQjOnfQUWWKbN+dLkxBgVfyNppz59x9btDd379uezxPb5/nbW3orvW3VOzersRT/Sy1uuOQjzJrc6/R22/i/u74nfT//73/yL9pz/8V+mbb75J96qpTDJVs/G/daqMSa6qJ4lpaHt8l1EZl06tYVNXqaqb1FQmubpZ/n5cIVUyxqXr1O51647L1FFcUp2cqU7YzF3t/HkN7vX6s3Sx43t8/zon/sqYdDfdsnZJWy4WtdODXUOuhPYb7c0P/uR/7fgcw8W7s0KFzZRlhUIoZPv/C1KXbWfr76oWoyCrd3VRfjDaZAsru/aOL8pbOxiJOuZdoVPZNCrzVoUt5MMpef+B+GLo679YfuS7i4Pbx/XROOtVLN7V9O1bxb5N+tcxI0zGlfqQt/IhKvhPavNSpTOjtw9FpsxWijH0x3r92HTvqrt3e8Fv9I++fmvta32/bET/GmNf+y77Z99my9GVwbvG4AfbWxV+sefz4/P2+UjOor3W+nfrB227UfaB/nOw/c/tv4dGpNbKXx9JXl4LtrwuMTqwOeI6bIvhclsUu9v34Ijbrv47svzDtXjo68/Z9vQvSXvO35Hx79t+oR2sYwut/Zk5uP3ljq/3Qc65Z//vykqtP37Ua3ktWvT9wbmwvD6de/05VP8bnn+nt1/sr+Ubx/6RffnyJcUY0y9/+cvnI4ZNlYy6d0xN5ZLkUt2kVLvBKMezd4LN2ju07p1svRxtamqXNHjHt/6OrEm1M2vLV6EcfkdcVy4ZV6XmiHd4B+NzGyNlTZ2cGx/foe27tmzWl2v9Xeq579ibqmvTk9/9NlUy+96l1y5JJhlXd23f1Mtj8GyfTfeOv1mUe6h/HXDw+PT7cPXGz6sV1vrL2rvHc+NrqmS2vkNdtUlTmWW5i2XDfjSq/+1r/5H993BVto/YO7OKfd/5e9CJI0rPRlw3yun6/u72Ha639fzd13+PKH9f/I9+/el3dMLxHdO/9py/vf3x79++Mkoyg78pTR/TyO0vdXxTqpPTrno8P2ZjPes3tVu7Zp17/TlU/51xLPZ/sfPvnPZrun6gYV98bIcTw8VBHAzDrl+M1xPB5xeAOjmjJHUvMzzRtyUcO5KQ0VMlgz/m4xyIT6tlq9fzDrY1voPbj5sWOffCXFdVt31TnzbtPiIx3HpsDiVGo/rXgbjGHJ+m7tfb0i+aauP4bySG58SXumPXpMEfmNQ8u7DtTGzG1m9f+4/sv4ds7d/b9jtosy7p3bZ/jStrZFyHEsN9y/fWb2RiP6b83R7/+tPt6oTje6B/LX7fef729sZ/YPttb6bXjvnB/V/m+Hbr7r6dp9pS73Ga5Aa3Ca3V99zrT7dwd/3Xqnfl8+9q7feYLvDwiVFZSr6be5D3UlkOpyqd6iYppaTUNJo7qZhd5+bh4AtZL82bRuXo2dI98Zlcuam6ZWuvWs8HpLcYuf21R6ddWXb7M051OSryl2Fs+7ZBUUbGSLFdmwhRYYNM2Sy3nR8xzT5Gnrf6FIOiKtV50Cf/SW2ea9RebtT/rmXYrpuvZvwJ+uAe//pzPeeev7fY/orH9yKMStfK97fahLxc/e28SHy3+/uPy7nMU8mulAte3nsFV651Gm+tisXEvDFSLpk8738v5RQGTwlFBR+OvlDF4FXYQm1eqqlLmSPO7b3xycnlQXbbfSejHNreyeWVZoN7K2J/T8f6vTStFvlM9IVsVryMi7kp5Vq/8RRYUGidPlwkLzh8fKK3sl6qm0ZNU0reru5lia1ak+tDbvrQ/In3qe6J0OWKPqh1H+RcrhCC8i33uezY+sr970zOKQ9+cN/Naefvudr+5IjBy17yBrir91+uP5JW95ltHrtD/Wv0+bsj/lHbR1Uzr7jYPnjNQi7nxm1/seNrcuWS2q0Lg2I0MvnWhbvbd1F0N7Ij71u5tYGD868f++t/wCXPvyu230PaPZVcJ7cYOnZ1fx9BNwW0mCLaHMLdNgReGZecG0wpPRtKblJlFstNcvVwemMQw46pkHOfSh4TX722vL+XYlR8h7bv67+xfPOp4aZ2qyH9HUPx11KZLfVb3WC6tf6b9/AN62dMtZrGOqZ/7bS7fYdTma5Oy30s9pM21jGuSnVl+innC8W3dmtDs3Yvy5j4Tul/m+2/v//tM6J/N8Opov78lUbfZ1i7LeUfc4/icP/Gpbp6fpx2t++483d7/x17/PZ79OvPmOPbrbPj9p8D/Wv3+Tsu/n3bL+Oqq5O2T+nc47tu53RnP72+czJ3X/sO67G98LOuP/vrf9vz77z2e12fypF9+fIlfffdd/r48aPevXunp6cnnSQUsm15gSmioMK2qpvyzHIAAPet+1SK4BpuLzgkFMqCU6rdxn9nCi6p3joRQfsundh+RTaTOer2tJfv7Knk5SPvRVCsZmd9GGhXVqEQq5t9iCkAYCLxk0J0G/elYytXq3o2terl20o7bx2nfVdOaT8Z1el1JYWSdLkRQwAAALxo9/+VeAAAALgJEkMAAABIIjEEAABAj8QQAAAAkkgMAQAA0CMxBAAAgKQ+Mfz06ZP++q//ev+aoVh9ldg9uvf4pkb7XBftCwB4AG8l6cOHD/qHf/iHqWMBAADAhJhKBgAAgKRDiWH0stnwK+9s93OWqQiSFFQslq+9CgXdYPm9xzf1ctpn4vYFAOBlWX4l3p//+Z/r93//93d/JV4oZNvyfr+I+97jmxrtc120LwDgATCVDAAAAEkkhgAAAOi9Hb2mq9VcMZCz3Xt8U6N9rov2BQA8gDdfv37Vx48f9Td/8zdTxwIAAIAJvf3hD3+oP/7jP546DgAAAEzszV/8xV9MHQMAAADuwJs/+qM/mjoGAAAA3AGeSgYAAIAkEkMAAAD03v7qV7/SP/7jP+rLly969+7d1PEAAABgIm9++tOfyjmnn/zkJ3tXjN7K+njyjkKRjdi+/25a648u/9z4riEUmbLM6h7Cusf2eSS0LwDgEdxsKtnVacT3yDrVqZa7SUTX5+qkiq/OBQAAL8T1E8NQKMsyZdmOEcMYVNisX8eqCFePaLVrb7u4ikK2jzGzhcLG8kVM3Qjgoh6L0c2ij79QCH05gzIkSa1f1dEWCsNmWKt/Jlt4DRcP9xn8jvKvZH/9l2vJF3YQv5UdjvieUb9Dx6crwK/3H79YOvL4HIgPAIDX5PqJoauVUlKzdegsqJgFuXlSSkkpzeWCv0nSI0mmbNRURrGVyqaLoc5b+T7xWSxfVSUp1YvxTKe6qWRiKzNPaiqpKLpy6rxVWGUeqrxULuo4dwqzVWLifVjuO6WkpszlC/9sn7GayUenedOVkd8ge9lf/752fqZgSjV9/HOXryVW59Tv0PHpCviwatvUyMWiT2THHZ9D8QEA8JpM+1RyCGpdKbfMPYxc6XTr2VdX1ssYnMuP29g4lUYyuSTn5IyUr1XAqJqXMmawvusTk+gVQliNhi1Gs0J8lhybaq6mdl05xq3Km5gpS+VhNaI381I9L7uFF6rf3uMTP8nPVuX7drPgPcfniPgAAHgN+LiaKZlcuamWo1Wr10u6z9KpXoy4NY3mTipm/Yjb1esXVNggUzbLsufuiIz5IdofAIDLmTYxdE558IN77qKCD3d3j1fbdhHF4GWPvgkyqpp5xb5SMXjNQi7nJMnJ5UHW3/f41L76e2tVLA6gMVIumXwxqnfl+sVWrcn1oR8CjMHLh2N6z8tofwAAbubLly8pxph++ctfpm+++Sbt0lQmmarZuXy7Ojkp6dnLpXpZcJ2cWfy/Sa7utzHVUXs6Jb6mMsuYXJ1Sqt3y92VZw/iMS3Xl+uXVqm6uXm5rqmatXMmkqq6S0aCMtTCbVLvB+sYk4+rU7Gk/V2/W5Drts7/+XVmVccmtxX+5+o05PsN1jKtSXZmuzZv64PHp9rMvvhu0LwAAdyT78uVL+u677/Tx40e9e/dOT09PWxPI6K1mmo/4yJlp3Ht8U6N9rov2BQA8Au4xBAAAgCRp9IghAAAAHhsjhgAAAJBEYggAAIAeiSEAAAAkkRgCAACgR2IIAAAASSSGAAAA6I1PDEMh6+/ty+oG7j2+qdE+10X7AgAeACOGAAAAkERiCAAAgN7+xDB62SxTlmXKiqBY2e7nLFMRJCmoWCxfexUKusHye49v6uW0z8TtCwDAyzL+K/FCIduWakpz2wjHuvf4pkb7XBftCwB4AEwlAwAAQBKJIQAAAHpvR6/pajVXDORs9x7f1Gif66J9AQAPgBFDAAAASCIxBAAAQI/EEAAAAJJIDHGqUCjLjKrR3wIXVRk+3w8AgHtGYojTuUrV2I/tC17e1Krd/tVi5PuGAQCYCokhbiCqqqR6kRXGSmbrN4pkstbKjB+GBAAAF0RiiKuLVaG2quW6X2RskGuSUkpKqZbLSzVp8XtSHD0MCQAALml0Yhgrc5WRnBiDQlXImOys8k+N71L7v3eXOH6xMlvvKwzFnnsHYyWvxRRyVFUEuSaOn4J+Ia51fgAAcEvjP+D6SoxxMsbJmUJmgr+rU+//5QjyXioXSV27WuLqJBWZTGw2RvuiqsIrtF6Z7/4nLxvFB0sKAQB4FEwlY5RYVYplvXOkz9WNXNi8P9Coiv0Uce26pPDRhgoBAHggy8Twn/7pn6aMA/csVira6kBSZ1TVpeS3PDwSCmXB9dtHVUUlBmcBALg/b3/xi1/oxz/+sX70ox9NHQvuUlBRSHU88DkzkmQq1WWQbVtJfRIZCmVFkBSUZZKUq2yiGDcEAOD+vP2zP/szfffdd/rTP/3TqWPB3YmqTJCL9ehEzrhK/fPHHedUlqUqppABALh7y6nkH/zgB1PGgbtkVMW1NG/EJk5uLQd0q6Rw8PmFfAMKAAD3Z5kY/uZv/uYkAYSi/3DjIqj1tvvZVK9m/y/L8fcHLts3y5QVUl3XqlPa8Q0oQUXf/tyDCADA7b39xS9+oZ/97GeTBeDqpDTZ3qff/8tiVJVBJsvUSnJ1fXCL5+0b5LNMxWoN1U2uIsvUynVJYwwKUTLMPgMAcFPLewz/8i//cupY8BKYSjGdM6LaJX/P/ndYpnHHTV8DAICLyL58+ZK+++47ffz4Ue/evdPT09PUMQEAAGACfMA1AAAAJPEB1wAAAOgtP+D67dvJvzYZAAAAE1o+fPLx48epYwEAAMCEuMcQAAAAko5IDKO3sv7yHzscY1DwhazNzir/WvE9ipPbJ3rZbPAh1Vmho7605Orbx67/9Mtt4Sf5cGz6HwDgEbz51a9+pRCCvnz5MkkAxji5slZT8sl1d8vVSin1ryO/Iu/K20c/k5dT0y8vTdCMBA0AgJO8+elPfyrnnH7yk59MHctEonxhlyNS1vpnI1L7l2NKpmx4UwEAwIW8+nsMvZ1JZbMckWrmuYJdTUceWv4qhGI1lWsLhWMrf/Xto7ztlvtYqin5Lj0AAE7xuhPD6BXyUmt5hHFyedCnOGL5a2DK5TRtSklpbuT9EWOmN9neqGySUtPIyXOvHwAAJ3rdiSGOZ3LlbXuf2xujsnRS+HR6+QAAvGKvOzE0pVzrtTbAFINC6/TBjFj+CnhrZQcjdMF7hTzfWCuq2PHE8bW399aqWM4tRwVfKT4rHwAAjDF5YhiK/t6xIihW/UMe1t9s/2Uzl/zg4ZJZK9eUMiOXP7qymctFv6y/j05Nvfmwx+4RwGtvX87nMmHWL7fyqreUDwAAxpj8e/BcnZQmjcCorBuVJy9/dGPq71SnXUfxytub1358AAC4nMlHDAEAAHAfsi9fvqTFdyW/e/dOT09PU8cEAACACTBiCAAAAEkkhgAAAOiRGAIAAEASiSEAAAB6JIYAAACQRGIIAACA3vjEMBSya98Nd2fuPb6p0T7XRfsCAB4AI4YAAACQRGIIAACA3v7EMHrZLFOWZcqKoFjZ7ucsUxEkKahYLF97FQq6wfJ7j2/q5bTPxO0LAMDLMv4r8UIh25ZqSnPbCMe69/imRvtcF+0LAHgATCUDAABAEokhAAAAem9Hr+lqNVcM5Gz3Ht/UaJ/ron0BAA+AEUMAAABIIjEEAABAj8QQAAAAkqS3f/VXf6Xvv/9ef//3fz91LAAAAJjQ29/5nd/R999/rx/+8IdTxwIAAIAJvf3Rj36kr1+/6jd+4zemjgUAAAATevtbv/VbevPmjd6+Hf/JNQAAAHg8b96+fau3b9/qzZtdz6EEFXbxHbFWhY83DfBWQpHJPmjdAAAAxnjTJXzZzhW89VLZKKWk1MxlwkxFuGGEN+LqdLffc+ttoQdscgAAcGcOJoZl06h2fcJkjD6443YQiq5866OCL2SzTNlaohPlC6tFHNb65TJvV9tulpdZv337wsoul40KcLXtxohh9LYvs4/7WexjHIgvDkdkM9nCaxlF9LJZpioGFdlqnUdMzAEAwPSO+xzD6DULTuURyaGrk1LtFKuZfHSaN0lp7pT32Y+3s9WIZEpq5rmC7ZKjcl7JuHptJM/VSbUzquZlH9JMwZRq+u3nLtdRE8Ku7vZbPR8tNGWjpjKKrVQ2Xfl13sofMeV8KD7vw7LslJKaMpcv/CIANSmpMk51Wq1TH5mcAwAAjDE+MYxexSyqbEqdMuFqqrma2skYSab/N3qFvNTaDK5xcnnQpyjJlHJtUFQ/emi9oqJC6/RhMYhZlsrDakRv5qW6TxovxZW1FoOmzuVHbbs3vugVQliNRi5GJENk6hgAANzcqMQw+kLW5yqbWrcerMrzVp9iUFSlOg/65D+pzfNBcupUL0bcmkZzJxWzI6aSr25PfCZXbqrlSODqdft2BgAAOJAYdvfHeZXdaJ+6++4udo+bKeVar7WZ2RjWRgSdyxV9UOs+yLlcIQTlbpU2eWtVhL4AY6RcMvlxo3rXtD++bnTU+kMN2qrti4i+kM2K46bLAQAARtifGMZP3bRmNXh4ojomJekfmiiC4qCMYWJZNnPJD8qftXLD6ercqA2t3AcjuVJ5lMxa3pdLYTZ4gEQqR98EuXqow1ZxEGP3gEn0VraKCkUfcyiWdRn/0Tb743P1XGX0g6lkK1uEtcTvQ5krLB7ECVLZ1CdN5wMAAOyTff78OX39+lXffvut3r9/r6enp6ljAgAAwASOeyoZAAAAD4vEEAAAAJJIDAEAANAjMQQAAIAkEkMAAAD0SAwBAAAgicQQAAAAPRJDAAAASCIxBAAAQI/EEAAAAJJIDAEAANAjMQQAAIAkEkMAAAD0SAwBAAAgicQQAAAAPRJDAAAASCIxBAAAQI/EEAAAAJJIDAEAANAjMQQAAIAkEkMAAAD0SAwBAAAgicQQAAAAvftPDEOhLMuUZZmsj1NH89y9x9eL3qoIp28fCrusZ5adVxY60Xdt+hLaMhRj+ndQkWXKrL/YfmMMCr6QtdOeX+Pqf4fu/Pp02eN7+f63d29Fdy28p2b1diOe6GWt1x2FeJJbnX+P2n7Huv/E0NVKKampzJaFQd5aFX7Cv6x747sMbwudWsMYvHxYdOu48fvYQrx8m6tJSSklpdSodicGhCVTNlftN5fk6qSmPBSrU51qXbJrGOPkylpNOW2HG1f/O3Tn16fLHt/T+t+p8bs66a5O31CoykutdVNTqswrTfkn8hJucv49cPsda09iuHj3VaiwmbKsUAiFbP9/Qeqy6Wz9XdNiFGT1ri3KD0abbGFl197RRXlrByNRx7zrcyqbRmXeqrDF8QnPmPhi6Ou/WH7ku4eD28f10TjrVSzetfTtW8W+TfrXMSNMxpX6kLfyISr4T2rzUqUbf4KFIlNmK8UY+mO9fmy6d83du7ngN/pHX7+19rW+Xzaif42xr32X/bNvs+XoyeBdYfCD7YdvMs6Pz9vnIzWL9lrr360ftO1G2Qf6z8H2P7f/HhpxWit/fSR5eS3Y8rrFu//NEdlhWw2X26LY3f4HR9x29e+R5R+uxUNfn862p/9J2nN+j4x/3/YL7WAdW2jtz9DB7S93fL0Pcu55WuzKSq0/ftRrea1a9P3BubC8fp17fTpU/xuef6e3X+yv9RvH/iX7/Plz+vWvf51+/vOfp2+++SataapkZFLVpNRULkku1U1KtTPJ1f06tUumaoYbpcq4VC+LMMlUdVqs0dQuyVTLtSvTlb/YtnZmbfkqFLOxn+fqyiXjqtTsX21LuXvicy6tFdfUybnx8R3avmvLZn25hm2S1trzFE3Vtel6Wx9VQDJbjslS7ZJkknF11/ZNvTwGz/bZ1MmZqmuTMf3rgIPHp9+Hqzd+Xq2w1l9qp9Xyc+NrqmS2rFi7VZs0lVmWu1g27Eej+t++9h/Zfw9XZVv/rpMzq9j3nb9ne3adGaepNo7VRjndubG7/YfrbT2/9/XvI8rfF/+jX5/6HZ1wfMf0vz3nd29//Pu3r4ySzOBvTtPHNHL7Sx3flOrktKsez4/ZWM/6Te3WrmnnXp8O1X9nHIv9X+z8O6f9mq4faNgXX7bDieHiINUuqe8Q6xfb9UTw+QleJ2eUpO5lhifytoRjRxIyJjFcbn/USXAgPq2WrV7PO9DW+A5u33XiQ8698NZV1W3f1MlVJ5Q0IjHcemwOJUaj+teBuMYcn6bu19vSL5pq4/hvJIbnxJe6Y9ekwR+Q1Dy7cO1MXMbWb1/7j+y/h2zt39v2O2izLundtn/129XJjY3vionhvuXD9bbWdUTiP6b83R7/+tTt6oTje6D/LX7feX739sZ/YPttb7bXjvnB/V/m+HbrbiRpa3V8Xu9xmuTMqty1+p57feoW7q7/WvWufP5drf1epgvcY2hUlpLv5hbkvVSuTdI71U1/b1rTaO6kYnadm4ODL2S9NG8ajb8dYU98Jlduqv6+uuFr5H0sI7e/9uizK8tuf8apnvherYsa275tUJSRMVJs1yY6VNggUzbLbedHTLOPkeetPsWgqEp1HvTJf1Kb5xq1lxv1v2sZtuvmq7tfyKneuvw28b0Mj399up5zz+9bbH/F43sRRqVru3vsQqEwvAfvIvHdLj/AeJd5+MSVcsHLe6/gyrVO4a1VsZh4N0bKJZPn/e+lnMLgKaCo4MPRF6IYvApbqM1LNXUpc8S5uzc+Obk8yJ585+mh7Z1cXmk2uHci9vdsrN8r02qRz0RfyGbFy7hYm1Ku9RtPeQWF1unDRfKvw8cneivrpbpp1DSl5O3qXpXYqjW5PuSmD+2EB3MORehyRR/Uug9yLlcIQfmW+1h2bH3l/ncm55QHP7iv5rTz99ra/uSJwcte8ga4q/dvrk+SVveZbR67Q/1v9Pm9I/5R20dVM6+42D54zUIu58Ztf7Hja3LlktqtC4NiNDL51oW723dRdDfyI+9bubWBhfOvL/vrf8Alz78rtt+LtHsqeTDN4+r+PoFuCmgxRbQ5RLttiLsyLjk3mFJ6NlTcpMoslpvk6uH0xaGppjpVxpw2PXpEfPXa8v5eiVHxHdq+r//G8mpjLL2p3WrIfsdQ+7VUZkv9VjeYbq3/5j18w/oZU62mqY7pXzvtbt/hVKar03Ifi/2kjXWMq1JdmX7K+ULxrd3a0KzdqzImvlP632b77+9/+4zo381wKqg/f6WL3WdYuy37P6bsYXzGpbp6fhx3t/+483t7/x57fPd79OvTmOPbrbPj9qAD/W/3+T0u/n3bL+Oqq5O2T+nc47tu53RnP72+czJ3X/sO67G98LOuT/vrf9vz77z22z0N/RJlnz9/Tl+/ftW3336r9+/f6+npSScJhWxbXuCR8qDCtqqb8sxyAAAvW/epFcE1L/Pjgm4pFMqCU9r4LLFQZAou7fiIMdp36cT2K7KZzFG3r92/s6eSl4+0F0Gxmp31YZ9dWYVCrG72IaUAgDsVPylEt3HfOrZytapnU6tevq2089Zy2nfllPaTUZ0eKymUpMuNGAIAAOBFu/9vPgEAAMBNkBgCAABAEokhAAAAeiSGAAAAkERiCAAAgB6JIQAAACQdkxiGYvVVYvfo3uObGu1zXbQvAOABMGIIAAAASSSGAAAA6O1PDKOXzYZfeWe7n7NMRZCkoGKxfO1VKOgGy+89vqmX0z4Tty8AAC/L+K/EC4VsW97vF23fe3xTo32ui/YFADwAppIBAAAgicQQAAAAvbej13S1misGcrZ7j29qtM910b4AgAfAiCEAAAAkkRgCAACgR2IIAAAASSSGAAAA6JEYAgAAQBKJIQAAAHokhgAAAJB0RGIYvZX18eQdhSIbsX3/3bTWH13+ufFdQygyZZnVPYR1j+3zSGhfAMAjuNmIoavTiO+RdapTLXeTiK7P1UkVX50LAABeiOsnhqFQlmXKsh0jhjGosFm/jlURrh7RatfednEVhWwfY2YLhY3li5i6EcBFPRajm0Uff6EQ+nIGZUiSWr+qoy0Uhs2wVv9MtvAaLh7uM/gd5V/J/vov15Iv7CB+Kzsc8T2jfoeOT1eAX+8/frF05PE5EB8AAK/J9RNDVyulpGbr0FlQMQty86SUklKaywV/k6RHkkzZqKmMYiuVTRdDnbfyfeKzWL6qSlKqF4elWlgAAAhVSURBVOOZTnVTycRWZp7UVFJRdOXUeauwyjxUealc1HHuFGarxMT7sNx3SklNmcsX/tk+YzWTj07zpisjv0H2sr/+fe38TMGUavr45y5fS6zOqd+h49MV8GHVtqmRi0WfyI47PofiAwDgNZn24ZMQ1LpSbpl7GLnS6dazr66slzE4lx+3sXEqjWRySc7JGSlfq4BRNS9lzGB91ycm0SuEsBoNW4xmhfgsOTbVXE3tunKMW5U3MVOWysNqRG/mpXpedgsvVL+9xyd+kp+tyvftZsF7js8R8QEA8BrwVPKUTK7cVMvRqtXrJd1n6VQvRtyaRnMnFbN+xO3q9QsqbJApm2XZc3dExvwQ7Q8AwOVMmxg6pzz4wT13UcGHu7vHq227iGLwskffBBlVzbxiX6kYvGYhl3OS5OTyIOvve3xqX/29tSoWB9AYKZdMvhjVu3L9YqvW5PrQDwHG4OXDMb3nZbQ/AAA38/nz5/TrX/86/fznP0/ffPNN2qWpTDJVs3P5dnVyUtKzl0v1suA6ObP4f5Nc3W9jqqP2dEp8TWWWMbk6pVS75e/LsobxGZfqyvXLq1XdXL3c1lTNWrmSSVVdJaNBGWthNql2g/WNScbVqdnTfq7erMl12md//buyKuOSW4v/cvUbc3yG6xhXpboyXZs39cHj0+1nX3w3aF8AAO5I9vnz5/T161d9++23ev/+vZ6enrYmkNFbzTQf8ZEz07j3+KZG+1wX7QsAeATcYwgAAABJ0ugRQwAAADw2RgwBAAAgicQQAAAAPRJDAAAASCIxBAAAQI/EEAAAAJJIDAEAANAbnxiGQtbf25fVDdx7fFOjfa6L9gUAPABGDAEAACCJxBAAAAC9/Ylh9LJZpizLlBVBsbLdz1mmIkhSULFYvvYqFHSD5fce39TLaZ+J2xcAgJdl/FfihUK2LdWU5rYRjnXv8U2N9rku2hcA8ACYSgYAAIAkEkMAAAD03o5e09VqrhjI2e49vqnRPtdF+wIAHgAjhgAAAJBEYggAAIAeiSEAAAAkkRgCAACgR2IIAAAASSSGAAAA6JEYAgAAQNIRiWH0VtbHiwcQY1DwhazNzir/WvE9ipPbZ/h9wGvfI3wv28eu//TLbeE1RS+g/wEAHsHkI4bGOLmyVlO6qUPBLq5WSql/1Tr6SF1x++hn8nJq+uWlCZqRoAEAcJLJE8PpRfnCLkekrPXPRqT2L8eUTNnwpgIAgAt59YmhtzOpbJYjUs08V7Cr6chDy1+FUKymcm2hcGzlr759lLfdch9LNaU5cgcAAEB67Ylh9Ap5qbU8wji5POhTHLH8NTDlcpo2paQ0N/L+iDHTm2xvVDZJqWnk5LnXDwCAE73uxBDHM7nytr3P7Y1RWTopfDq9fAAAXrHXnRiaUq71WhtgikGhdfpgRix/Bby1soMRuuC9Qp5vrBVV7Hji+Nrbe2tVLOeWo4KvFJ+VDwAAxpg8MQxFf+9YERSr/iEP62+2/7KZS37wcMmslWtKmZHLH13ZzOWiX9bfR6em3nzYY/cI4LW3L+dzmTDrl1t51VvKBwAAY7ydOgBXJ6VJIzAq60blycsf3Zj6O9Vp11G88vbmtR8fAAAuZ/IRQwAAANyH7PPnz+nr16/69ttv9f79ez09PU0dEwAAACbAiCEAAAAkkRgCAACgR2IIAAAASSSGAAAA6JEYAgAAQBKJIQAAAHrjE8NQyK59N9yduff4pkb7XBftCwB4AIwYAgAAQBKJIQAAAHr7E8PoZbNMWZYpK4JiZbufs0xFkKSgYrF87VUo6AbL7z2+qZfTPhO3LwAAL8v4r8QLhWxbqinNbSMc697jmxrtc120LwDgATCVDAAAAEkkhgAAAOi9Hb2mq9VcMZCz3Xt8U6N9rov2BQA8AEYMAQAAIInEEAAAAD0SQwAAAEgiMQQAAECPxBAAAACSSAwBAADQIzEEAACApBGJYYxBwReyNpP18RYxXUUoXnb8AAAA13bwA66NcTLGyeWFbHuLkK7D1Ulu6iB28LZQ3tR3Gx8AAHgdrj6VHIpMWdaN1gVfyGaZMlsoLNeI8oVVlvXrWb9c5u1q283yMuvHBrAqe2PEMPpuv7bo43oW2xgb8RdWdhhbDCr6enTLvZZRRC+bZapiUJGt1imOCwAAAOAirp4Yujop1U6xmslHp3mTlOZOeZ8deTuTykYpJaWU1MxzBdslT+W8knG1mtKslVc7o2pejg2gK7cyzxaZslFTGcVWKptu/3Xeyh8x5Rz9TMGUavr45y7XcGvvw7LslJKaMpcv/CIANSmpMk51Wq1TM3QIAAAmcLOHT0w1V1M7GSPJ9P9Gr5CXKoc5m3FyedCnKMmUcm1QVD96aL2iokLr9OF5nncyV9ZyfXnO5Udta8pSeViNOM68VC+S1ugVQliNRi5GJEM8clQSAADg+u7+qeQ8b/UpBkVVqvOgT/6T2jzXBfPCMznVixHBptHcScVsMSKYKzfVciRw9eJ+QgAAcH+mTQxNKdd6rc3cxrA2IuhcruiDWvdBzuUKISh395NWeWtVhL4Cxki5ZPLFqGM3+mn9ofHBVm1fRPSFbFaI56cBAMCtHUwMlw97FEGxssc9+KH+oYrhthsPV5TNXPKDhzdmrVxTrkYEc6M2tHIfjORK5VEyo2d7Vw912CoOYugeMIneylZRoehjCsUy1vEfbZNLYTZ4wEUqy1Xi6uq5yugHU8lWtghrid+HMldYPGgTpLKp72hEFAAAvBbZ58+f09evX/Xtt9/q/fv3enp6mjomAAAATODu7zEEAADAbZAYAgAAQBKJIQAAAHokhgAAAJBEYggAAIAeiSEAAAAkkRgCAACg9/8Bog/OQ2jCQ2AAAAAASUVORK5CYII=;textDirection=rtl;" vertex="1" parent="1">
          <mxGeometry x="334" y="1450" width="646" height="268" as="geometry" />
        </mxCell>
        <mxCell id="rJS2hNAMHHPs58hexdFA-27" value="" style="shape=image;verticalLabelPosition=bottom;labelBackgroundColor=default;verticalAlign=top;aspect=fixed;imageAspect=0;image=data:image/png,iVBORw0KGgoAAAANSUhEUgAAA5oAAAHOCAYAAAD5dXZDAAAgAElEQVR4nOzde3Qc133g+W/z/RAJQIRC0nqHsEyjWh6biT3w2LIU2aY9Fr1msrxNj3R2B14rO2utlvbZoxkh0fFUVTyawDM+VqzNyOdspBFmd+I1uzAbeC3FMmMqHkuZwJJN2WIXAouAJfMhkRJEgKQIop+1f1R3o6q6+olqAiR/n3P6AOiqe+v27a4f6va9dW9sZmbGQYg2ePHFF/nEJz7BmTNnWs7jf/7xOj5xXTbCUl36fnR8Jf/nHbOLXQwhhBBCCCGqWrbYBRBCCCGEEEIIcXmRhqYQQgghhBBCiEitWOwCCFHPj46vXOwiCCGEEEIIIZoQk3s0hRBCCCGEEEJESYbOCiGEEEIIIYSI1IoXX3xxscsghBBCCCGEEOIyEnMcR4bOCiGEEEIIIYSIzIqFrHEohBBCCCGEEEIEyT2aQgghhBBCCCEiJQ1NIYQQQgghhBCRkoamEEIIIYQQQohISUNTCCGEEEIIIUSkVix2AYQQQlR6/vnnW0/swEdv+2h0hVkkUgdSByB1AFIHrZA6E6I9Zs6+w+HxCc6dv8CFdBYnl+W3b7yWf/w77yObyfj2lR5NIYRYorq7u+s+nnzyuxU/iS12yaMjdSB1AFIHIHXQCqkzIaKzes0aDj7/An/z/M9xVmxg63W3cPM2jau33MyLqVd58E8e4fSZc740sZmZGYfxQfr6YWh0gO3lTeMM9g2yfXSI3WFHGx+kb3A7o0P+rSP9nQxuH2V0YHtYKiGEEA34rz/+MSnbbiltXNO4/Y47Ii7RxSd10L46GBwcZHx8nKGhoZbynpqa4r777mNoaIh169a1lEej5HMgddAKqTMhovWjn4ySdlZyq/aP2NTZyfLlyyg4kM3lmZo+h/X0jzlzcox/+b/+c67u2ACUhs5uH2Bodx/9g7vnG4jjI4ywnUb+BY30d9I/4n2mj85BillLo1MIIZqVyWZ55WMJAPIOdJ+Y5PjWbWTzkCvEyDgO2tuTvNDRQ6YQI5uHrOOQc+Dh7Euhec7OzrJ3715M02THjh01jz8yMkJ/f39DZR0aGmL37sqvJAcH3X8EAwMDDeUT1I46eOCBBxgYGKC7u5vZ2Vl27drFoUOHytu7u7sZHR2lu7ubQ4cO8fzzz7Nv376KfPr7+9m9e3fo617qdQBw7733smvXLqampuju7vZtm5qaoq+vj2984xuMjIwwMuL+g9+xYwe33XYb3/rWt8r7vutd7yq/vmqvcanVgfd97+7uZmBggAceeKDidZTe49Lv4P98lPLZt2/fJfk5GBwcLJcrjPe1BtM1+yVF6XNUK02r5almKdWZN/327dvrfl5gcepMiGreOn2WU6ff4eO/9wk2dXZAzO34dxxYsXwF127u4vduu41nfnSBvxx+mv/ti58HPENntw8MsXtkkMHBPjo7O+nsG2R8fJC+zk737+Kjb3Cckf7i9pF+Ojv7GB+YYXRgO7uHZpiZcR+jA9ulkSmEEC3KZLOAe4GUK7jP5fKQdSBTgEzeHduVzUMu75ArQM6BfCFGNpOtm//U1BQ9PT2++F56lC6wS/H87rvv5tlnny3/PTExwc6dO3n99deZmZlh9+7djIyMVORTuggKPl9quCxGHdx999184QtfYHZ2FoD169eXX9vExITvgmzHjh0cOnSo4fJeCnVQKktPTw/j4+P09PTQ09PD448/Pv9/vq+P0dFRdu/ezdDQEDMzMwwMDLBz505M06z4DHgvhC+FOoDKC/DSay3VUfDifffu3UxMTLBjx45yD+6jjz7Kjh07GBwcZGpq6pKrA3AbvqXz2vt4/fXXq34ZNTAwwPbt22s2cILGx8cbaly1Up5qlkKdDQ4O1nyPazUUF6POhKjmpz//JTfccDObOjuYy8L5OZgrnibLYrA8Bjdfu4l3v2cHR9+YIp3NAb7JgLYzMOoG2YGBEfo7R9g9U2XYLDPMBIfODgyxva+fkd1D7B7pp298gJkhaWQKIUQr0uk0Xccnfc/d9OZkxX4feWei4rm5TLriuf7+/vIFz5133smOHTt4+eWXyxfNhw4d4vHHH+exxx5rqbylhqnXQntxoq4DcBuPn/zkJxkfH+fo0aOcP3+e7dur/6/6xje+wX333cfOnTvrDhG9FOpg3759HDp0iMcee4zu7u5y+bq7u32NLa+RkREOHDjA0NAQPT09vkZVqUcT4MCBAzz11FNLvg5a9fzzz5cbmoODg+XXe+DAAR544IFy3V0KnwNvuao1dGr1gu3bt4+9e/dy6NCh0MZMqVfc+1mpdgxvg7/V8oRZanVWz1KoMyGq+fWxN/hM7/tZtgw2rHV7M3MFmE1DwYG1K2HF8hjbbnwX4y9vYurtaa7dco3b0CwNfS31QI7098PQDLuB8cE+BrePMlTtS5XxQfr6Bhkv/d3ZWfxlxP11+wCjvns/hRBCNOLU1m1kHfdb9ptOTfLI5z/l2z46OkpfXx+FQgHHKZAvOKxauZInQxoLQ0NDTQ2dbVbYMNQS70XQjh07eOqppxq+r6/ZOjj5i1+y4t/8G358yy3w+78fmue+ffsYGRnhgQceYHR0tFyWdevWsW7dOnp6esrl7O7uJplMXlJ1UOtzsG7dOgYGBvjCF77Agw8+yNGjR3nssceq9rpMTU0xODhYrouJiYny86V7NA8cOMD4+DgDAwPMzs5y5513Luk6aMXs7CxPPPEEpmkyODjI448/Xv7s7N69m/Hxce68806eeuopgCX/OSipNuR5dna2/OXU888/X/EFxOzsLP/wD//Ao48+WnVoZ71hm1NTU+zatSuS8lSzlOqsEUuhzoQI88bJU4DDimWwbBnEYu7PlcvdBueZWcjkoHPDWlatXkMs5g6aXQG4Q15H+ukbBxhhZARGRjrpLGc///vuoZn5RudIP50Mlb+5Gx/sK/Zk1u/qF0IIUV06nXYvkIr3EtWybNkyYBnLl7t/Z+YW1osT1mD6zne+U7FfqTerdMH87LPP+rZH0YvTTB2cPPkmqV/+kk+9//0s/89/CX/8x759ShddpZ674LC0devWlV+Dtw527NjBvffey3333efb39s4Wyp1UO9z4G0EPvfcc4D73nqHP3tf07333lseYlvvHk3w12HJUquD0vt64MABgPL9maX3873vfS+f+9znfGlmZ2eZmpri0KFDPProo1xzzTX09PT49tm9eze7du26JD4H9axbt45kMlm+pzCo1Lv79ttvV+3VLAnrcRsYGODee++NrDxhlkqd1bvXPewzsVh1JkQ112y6mumZaVYsv95taOLen1konlpd6+HkNOSyWVYtz7NsmTs0PWQdzd0MeYZ8VPZojjPY18fgOLB7iJndI3R2ek+ifjz/p9x9pOEphBBNyaTnuO6kf5jX6Oho+ffrM09yPXDiJ0+yfFUvD13/ZT7/vZ1s2PEnpDNzVfM9f/48d955J+vWreOpp54KvUAMNhbuu+8+7r333vK+YTOOeofmBoXd79bIt+v16sD7XP7CSxxK5fjDP/xD9C9/mc2fuLNiv6GhofIQ4Vq9j6UegmeffZZDhw6h6zq7d+/m7rvvLu8TNhnQYtbBN//2z/nB+b/lZP5Ntiz/Lf7p+t9jRSZfsV/pfQ2+h6VyDw0NVbzfd999d3n/Bx98ENM0q846u5h18Lff/Cbnf/ADcseOseL661n/T/8p6RXLK/Z76qmn6O/v50/+5E/o7+/n3nvv5fnnny/3TIbp7u4uN7pff/1132sKTu6y2OfCzLEPA9B5/d8DVI0HO3fuZNeuXQ1NJuM1OzvLo48+Wp4kq1avZom3163a8VotTzVN1dlfFOvsD6Ots2BvY/DzUiufxagzIar57Ru2cuhlm4/+bpwVy5dBqZFZAGcZzKXdHs7pM2+zdmWMLddcDYQ0NMcH++gbDAZaT+/m7iFmRmcYGB+kb7D498w4g+76KJTm/hnp72N8YP5vIYQQjUunM7xyzTayhRiZAnxgeoK+vj4ATvzkX3D1u3+PlWuugew5VnRs5uvLfsyZvQ9wXW6W557LVORXuvgtNSIbHTo7OzvLsWPH6u4XvNAcHByku7u7fG+f9762Ru8DrVUHJaOjo7zn5jS/+vlT/OGe9/H444+T2LePv/7rv66Z97p16/jGN77huy+11Phs9dv/xaqDbz775wzHfsDW7Vv5m57/wh8c+SLDx/6a7dzAPw/kF+wpede73lWeeTVM6cL4hhtuoLu7m/vuu8/XiAr2ai9WHTz7zW+y4ZlneN8NN7D85pvJ5XL8+gc/gOuvp6ISWvTRj36UJ554gr6+vqoN0qGhoUU9F2aOfZhPq5/xjPW75e2lnuugHTt2+BrNXrVmVS71BO/cuROAJ554om6vZiNaLU81jdZZX18fz/wFfPp/+tc88xcf5tNPOJHXWTWt9nC3qzxCVLPrUx/nq4P/Bz99KcXHPnQrLIsRKxR7NQuQzsLshTmOvmrz4R295XTLghltHxj1zVoVnE02tHdyfJxxxhnsm5+VdnD7kDQyhRCiRZl0xp1uv+DOihhUSJ8jc/oV5mZ+wzuv/lc6Xz/CdedeJ19YTTpd2dAcGhri9ddf53d+53eaKsfs7CxvvfUWN9xwQ8NpSkPF7r33Xu6++27e9a53lYdkPvvssw3fk1avDgDyF17iVz//d7z/A+/jhz/8Kbd/9FY0TQutA6+RkRGOHj3KDTfcUG54lSb9ieLC7GLWwQ+mD3J199W8+eabAO59lMtj/Gz5yxX77ty5kxtvvJHR0VFuu+02brvtNkZHR5mamgptYO/cuZMnnniC733ve+zcubM8C21w5uGw13Qx62D6Bz+gY80aNj3xBCePHaP7P/5H1sZiLP/Zzyr2nZ2d5ejRo77nGv1yYe3atb4ZmAcGBsp1UpqB2eti1kGpkfmrX38TgGesGM9YMW696V9V7HvnnXeGzjjtnQ23v7+fzs5O7rzzzvIszVNTUzzwwAPs27evfE/zF7/4RR599NGa5ffOuBvsfSvd19tMeaKos2e+GGPmLz7MM190h/jxDw/z6a//jGe+GAuNH82WcWpqikQiUXNyn9I+pfpd7DoTopoVyxz6936W/2v/CE8d/HveeecC4OA4cG42z4lTb/HTF3/CsdeOcOLkFNPT0246wJ3Qp3/EbSzubqEXcvtuhkZn3Hs2+/tww+ogIwPVZq0VQghRSyaTRjsdPuzrqrfPsnLFIX75i8oZFAH+l49siqwcjz/+ONu3b29o9sJDhw6xa9cubrzxxvIFd2loYKkR14xadQBuI/PcG/83d/ze7VjWAbpv7Of83GpGR0fJZKvfYzUyMsLs7KxvOYvOzs6aa0GWJtYozdZazcWuA4CT75zi8K1/xaFDhzh8+DD/pedx1qxZwz/5ReWxdF3nySefpLu7m7Vr15Zn1V23bl3oeqE7duxg06ZN/OVf/iX/7J/9s5qzzpbue12MOjh37BjH1q7ltZ4edk5McKCnh+VXXUXurbcq8jt69CjXXHNNuZE3Pj7ue0+962iWlNY09E54VJr4p/S3dz3Ni10HpUYmF77Oe7bCe3Yp4CrgPTzzVOVnujSEutpasdV6wx544AHuvfde3/Ol+3sHBwernj9h51bpc+Qdqt9seWpp5HPz6Y99Es69BrlZeAf4z5/j01//GTz4u8D9vn2bLWNY47EZi1FnQtTynm038tWvfJHvfu+H/Pi//Yze97ybFavWkM1kSM+dZ/tvX8s7Z67hVy//lB9+7//h61//enHW2cERdo/OMLDd7ZXsrBgR4h86O0R/eZZa31Db3UPMzJSGjIzQ39nJoKylKYQQTcvl87ywcX6ykQ+dnR/29TeP/WsAPv4/PEj+/FsQW4aTz7Bs/XVcOHmY9Ov/LZIyeJdwqKe/v5+jR48yMTFR7t3o7+8vp5+YmCjfE9nofWm16uDc269g//Qp7vi92/nhD3/Kxz79dW685RPlfb///e+H5nn06FH27dvHwMBA+Rv/devW8eUvf7nqQvQ///nP6enpYWhoqGYj82LXQcmWV67huv/Sw+yyC/w0/mP+8eHbWZlbQffsb1XkV6qX0gVradisrus1e/VK92SWlsSpdY/mYtTBK9dfz5lf/pI/ePNN/t+uLv5geprhTZuY3bKlIr8DBw7wkY98hHXr1nHhwgX+7u/+jv/wH/5DRS+nV6msIyMj5XVGS5+F0kW/997Mi14HfQ7PWDE+fddufnXydV79+Qt18wT3fX3++ecZGRmpOQNuaVj5DTfcENqYfOyxx8qzoQa3NzM8tNHyNKJenT3zF/DMT/6m/Pf7boF3rdjMMw/+Ls9t+WM+fBHKWM1i1ZkQ9XR1XMWX/sf/njPvzHLy1Fu8c36Wm2+8hWu3XMOFCxd4941befrpaSaOvMKDDz5YmnW29A3PdgZGZ6j/8Z5hfrqgUWZCE/gnFRJCCNGcO/7uP/r+fujwTwB435qzfOC9m0j/5ofkZs9BbBkQY9361aRPvc4jP/pt/lXgdqnSvXnd3d3lYbDBCXGCk1aULowbuXDxXiyPj48zODhYcb9acCbORlSrgw3p5xgwH+eRwZ3M5P4JLxz5W+Bv6+a3e/fucg9UqTFQajCYplmeebXUADh69Gh5yGg9F7sOSq5efhWFDbD8d9awZs0aYp1rWPbzGPEL76nIy/ue7969m3Xr1vHoo4/yxS9+MfR97u/vZ/v27czMzDA4OOjrwQR/j2aw0XQx62D51Vezddkynt20iS7g2auv5s1Vq7gQj1fkNTU1xc6dO3nf+97HNddcQ3d3N9/73vf41re+xcDAQPlcKfXyehugpR4i75cUpS9iwj4jF7MO4I+Bf8und2m8Cjz3i/lZlz9cpQN1586d5d7VUi/s7Ows3d3dfOMb3yjvV+qFrdYAKtVDqbFZa3ZU73FK65I2W55G1ayzLfP1c9vJf0v3LDxz/BTPbfHPVh3UTBmnpqYqZicOauTe1otZZ0I0ouOqdXRcdWP57wsXLrjPd3Tw/ve/H4Af//jHxGZmZmrP+SyEEGJJSb38M47/+KHQbe//+H1s0T4Xuu1y0tnZyZ9/7XN87DP/ghu2/ZPFLs6iO/CrH5E8ZHFs5hjXd15PYodi53s+UT/hZeRXBw5wKJlkamKC7p4ediQSvKfJIaqXg78/4I5B+/BO+bK/UX//vxfr7JsXt86qjQwQ4lI3NjbGL37xC2loCiGEEEIIIYSIVsWss0IIIYQQQgghxEJIQ1MIIYQQQgghRKSkoSmEEEIIIYQQIlLS0BRCCCGEEEIIESlpaAohhBBCCCGEiNSKR79df20wIYQQC7fvS/2hz0scFkIIIcTlZsVXB7682GUQQojL3tcGv1Vzu8RiIYQQQlxOVix2AYQQYqk7c+bMgtJ3dHQ0tN/TTz/d+kEcuGvXXa2nF0Jc0ST+CCGiJvdoCiHEEtLd3V338eST3634SWyxSy6EuNRJ/BFCRKktPZpHJibczJcvZ8XKFaxYvoJcLk8ulyWXz/Punp52HFYIIS5p+VyOgwcP1t1vx473cvDgQd/PfC53EUoohLhcSfwRQkStLQ3N6elptm7dyurVq1m3di2rVq0ik0kze+ECr732m3YcUgghLnmZbJZXPpYAIO9A94lJjm/dRjYPuUKMjOOgvT3JCx09ZAoxsnnIOg45Bx7OvrTIpRdCXMok/gghota2obNz6TnOnD3DG6dO8ptjR3nj1CnOnD3bRA42ZjxGwmrh4LZJPBbHtKtstxLE4ibVNgshxGLIZLOAe5GXK7jP5fKQdSBTgEzeHZ+WzUMu75ArQM6BfCFGNpMNydEiEYsRKz3KAbVKfLVN4rEE/qfdfWOVO7vPe/MPjavV0tcuo5UI5O3bHnLscrkbLVftcswXt/qxapexVp5CLD3RxZ9652Ar5+9CzvlG0oZcM3quFeud61YiRrwig9qxs7l4UC2Wl7I0ifvKFnw9jb3OsGOVDtV0TG7y/4G/DqN5XyQGL7623qPZsXEjWzZv4cbrb2DL5i3tPJQQQlzy0uk0Xccn6T4xyZY3JgG46c1JbnlrEu30BB+YcW9L+Mg7E9wxO8En547wmbkJPps5wlwm7c/MShCLJSDp4DjFh7JCLobqsIex0NAsi7D/0cqTf7LXIF5xAVQjfY0yzuebRKFIlrYnVeix3f2aKJe/ICR85Uihmf4Gd9ixapexfp5CLCWRxh/qn4ONnr9OSkdrMk3Tx1O9GHurfyHVSDyqUCd2NqxeLLcSxOIWKuWtM4UV0pit9zprxa1mY3LT/w9CLOx9kRi8FLR11tkzZ8822YsZEU0n5egX/7hCiCvOV77yFf7sz/4ssvxObd1G1nF7Cm46Nckjn/+Ub/vo6Ch9fX0UCgUcp0C+4LBq5UqeHPKuxWmRSFiopEPSfyVGCqCJ8Rz2sAVqP3pvHMsCVeO6SilF8L949fT1yhidsHL5CznGmGawv1wODT2VXNhB25GnEG0WTfypVPccjFjTx1M6hhlnr7mHlK7V378BzcTO6urFyfntvmJrOqmkTSyRwPI2quu9zgjjVnP/D6plsoD3RWLwktC2Hs01q9fQsbGj3KO5dfNmOjZubNfhhBDiovvKV77i+7lQ6XTavcgrxMgUau+7bNkyli9fwaqVKwHIzHl6FCwLSzPQW7qw8bIZtkDt0VBKYZm1vgm3MU0LTettLH1kZawnrFwBWi+9toEZ5YVwO/IUoo0iiz8VGjgHI9XK8TT0/QYY8YiGVzYTO2uoFydrbVcKxRhjvgPXeZ2Rxa0m/x9UtYD3RWLwktDm5U0cTp48yblz5xaQR43x1YEx6fO3HwXvM6oxtj24b+g9SkII4RdsXEbR2Myk57ju5CQ3vTnBLW+5Q9dGR0d9j7DnRkdHSWfmmj5exf0tccP/j98yMVDs0XAvWmyLYbtaHnthv+P/1rmB9AvhK3/gKqRmuSookklVTBMe/2sdq9U8hVhKoo4/9c7Bxs5f/72PCznn657Dms5+Q8NKRHC+tjn2NaYXTbOxxwJP13ydC4tbbfl/0PL7IjF4KWhzQzMW+L35hZashIXyjLme/6DZmCbsD93myyEwRjsw/EAIIZrkbVR6h80utLGZTmd45Zpt2Jt6eKnLXQaqr6/P9wh7rq+vj3Q60/Tx/PcsOTgpA++lmWVZaGpP8TmFUjZW4MqglEdS2RiBr44bSb8QvvIHAnutclXJDMdxSBlj7heTte7vavSfSJ08hVhKoo4/9c7BRs5fx/E3VhZyzjdyDmv6fgzNHY66EO2OfY3TCOvYrfk6FxC32vX/oOX3RWLwomtzQzPIaTqFSgbGlmsWlgWgoSd1MOO1v2EOGVagWhsoL4QQPqVGZlT3aGbSGXfJgII7s2MzfBd6kXyD7sZa24j7Ro3YhlllUqAkykp4Rp3USX+RvuWvLFdtmp5yJ5ZoIs1i5ClE1CKLPwHNnoMLtbDjuUM1tQWVt7nYWVO9OKkUqtrwUMvEsHvpDR3MUf91LiRuNf3/oK6FvS8SgxdP24fOzv/afCOzpuKw2b3sD/0mXggh2inYuIyisZnJpNFOT/L+6Qk+dNad4bHRoWuZrPceKYVugBEPTA1vJRqfddaysLyz+JVn9it92Rek0A1t/r6buukjKGNDAuUKY5shs9KG9wQ0rB15CtFG0cWfoAbOwUgt8HiloZrhga6+pmNnLfXiZPG1JgLbi/HH11kTFPY6I4tbzf4/aECz74vE4CXh4g2djTU/bBbwfaBscy+GrdxZqsZsbM1gf3FIhT1shQeUim973BuU/eZvlq6ajxBCFFVrVC60sZnL53lhY0/5AY0PXcvn/F0Qmp7CSfZieNc2s1TDM/dZxSkBA4PTUIqq/+g1fT8G7pT2jaRfcBl995hWXzvZW64qO7BfM31r7JFM+WZxbPRYzeQpxFISZfwJCjsHmz6nmkiz0OO5QzXrlye0jA3GTl95aqz1Wy9OanqqvJzJfH7ucif1RvlXvM4I41az/w8azrPRskgMXhJijhN1VyO88OKLbN26ldWrV3HmzFmu7upi1erVXLhwgddee40PffCDDeRiY8bj2L3K8yFUJMvTNLvbjeKZqRWnUdadJMo2icdt93dw1xgqBxsNw+jFsDRSxbWZbDNOvJiRL5/oqkQIcQk7c+bMgtJ3dHTwtcFvse9L/aHbH/32EF8d+DIPPfTQgo7z8MMPLyi9EOLKJfFHCBG1i9zQnOW1137TYENTCCGWhovV0BRCCCGEuFy0fejs1i2b2bBhA+79mq0NnxVCCCEWLrDUVdiyWUIIcdFJbBKXpxXtyHR2dpaXf/kyMzPTTE9Pc/78edavX09XVxednZ3tOKQQQghRhzsZhRBCLC0Sm8TlqS0NzTtuv70d2QohhBBCCCGEuAS0paEphBCieU8//XTriR24a9dd0RVGCHFFkfgjhIham+/RFEII0Yzu7u66jyef/G7FT7kFXgixUBJ/hBBRkh5NIYRYIvK5HAcPHqy7344d7+XgwYO+n/lc7iKUUAhxuZL4I4SImjQ0hRBiichks7zysQQAeQe6T0xyfOs2snnIFWJkHAft7Ule6OghU4iRzUPWccg58HD2pUUuvRDiUibxRwgRtbYMnT0yMcGRiQleffVVjh0/xhtvvMGxY8d59dVXOTIx0Y5DCiHEJS+TzQLuRV6u4D6Xy0PWgUwBMnl3fFo2D7m8Q64AOQfyhRjZTDYkx8CU+cG58m2TuG86/Tim7dsBMx42xX615/3bg8ezEpXT93vLZSVixP0FaLiMlc8DVoJY3CT4dKVq9VTlddom8VgC/9Phr3m+fJ5HaJmqpa9dxtp1GnLscrkbLVftcswXt/qx6r3v1TVep7XKEdwWdtjQz16986fGe1bxmgN16z9eY+WqVY9WorIcthlv8D11RRd/Gvxs1T23LRJh57VtEi/m11xMaTRW1DpvSuWSJUiEaERbGprT09OsWS1qJtYAACAASURBVLOG9VddRVdnF5s2baKrq4P1V61nenq6HYcUQohLXjqdpuv4JN0nJtnyxiQAN705yS1vTaKdnuADM+4XdR95Z4I7Zif45NwRPjM3wWczR5jLpP2ZWQlisQQkHRyn+FDW/EWXlSAWt1Apz/aUwqrZgGyQPYyFhmZZvsaYKpcliSpO5+84Dk5ShefTRBmV6sXY2/hFte8YteqpUVVec7l8nvyTvQbxikZ/jfQ1ythInXqP7e7XRLn8BSHhK0cKzUxUeY/nj9X0+95QnWoYpc9FymAs4W081NrWoEY+F3Xec81INVG39dWqR6UbaJbpeZ0WpgHGfh2twfwjjT/U+WxFFH9a+Ww1GivCz5v654AQYl7bhs7OpeeYS89x5uyZ6DK1EsRMjVSq8cAphBCXklNbt5F13J6Cm05N8sjnP+XbPjo6Sl9fH4VCAccpkC84rFq5kieHhjx7WSQSFirpkPS3KkgFtuveYKrppJI2sUQCK9AgaYY9bIHaj94bx7JAtZRRk2VUOoYZZ6+5h5Te6H+IevXUeOukmdeslCJ4ZVo9fb0yRiesXP5CjjGmGewvl0NDTyUjLoXncI3WqaajKwNz2Kbira+1rarG6ryZ97xX05r5ODVP24PSDKxhG13TwLKwNNXEa3ZFE38q+T9b7Y0/dbUUK4ou8jkgxKWurbPOdmzcyJbNW7jx+hvYsnlLG47gHb7QwjeWQgixhKTTafcirxAjU6i977Jly1i+fAWrVq4EIDPn6VGwLCzNQK92pVZru1IoxhhrOZ7aDFug9mgopbDMFnoZWyqjhr7fACPeeI9IvXpqWDOv2cY0LTStt7H0kZWxnrByBWi99NoG5kXpvonoc9SKhuq8ufd82LLdxlbbaOi6wraGsYvvpdKb+1I+svhTIfDZamv8aUQLsaKc9GKeA0Jc+to6GdCZs2c5c/Zsm3K3MeMJxowUjq4Vh2Ek6G3nt2BCCNFGmfQc152c9D03OjpasV/Yc+nMXESl6EXTbOwxaGnoiGVioEhpgKZQCZNhW0eLdBhKlTJqOvsNi3jEPSJWIhayeoMn9wZe83we7rDOlLfcba4zX/lV0jessGa5KiiSSUUsESOGIhlSx7WO1Vyhm6gT28S0NJSuUdFtWGvbQjRQPtuIEzOKf2gGqXZfnBR76kwTxvD2ujUm6vjT3GerZIHxp1ENxIrwz3L9c0AIMa9tPZprVq+hY2NHuUdz6+bNdGzcGN0B7GEsW6GXhj0oHUOzsORbJiHEJSqdzvDKNduwN/XwUlcPAH19fb5H2HN9fX2k05kIS6JRq2OrFsuy0NSe4jWiQikba7gd3RPhZdT0/RiaOzQvKv57tdz7/nztxAZecymPpLIxAt0h7a4zX/kDDb9a5aqSGY7jkDLG3BFFgXqudaxm1K8TG6M0YUvcQqVSnmGYtbZFo5H3zHuPpqPbIRNIRc3t1bQMg94mezMh+vjT9GfL8zpajT/NqBcrqn6W65wDQoh5bR06Cw4nT57k3LlzLaavMePbmI2tlOebJI3eXhhr73gLIYRom0w64y4ZUHBndmyG70JPKZRtUbWtohSq2vAvy8Swe+lt6cLc/bLPNuK+GRltw2z+ArvlMrrD4jQrUX9YXL16akhzr1klkyhf2eqkj6SM9VWWqzZNT7kTpDSRpnGN1Klnwh8n2JCsta0Bdeu8hc/5RRkSWjqOaum+6MjiT7BIwc9Ww+e2p3fTa8yOqG+6iVgRlrqt54AQl4c2NzRjgd8rBx9VF5zZy39Tvj0WjDxCCHFpy2TSaKcnef/0BB86687wODo66nuEPTc6Okom671HSqEbYMQD965bieKsmQrd0LCCs3HaJvGE5V4YtvICLAvLO/NjebbGVkabLKCMms5+Q8Oqe9B69dSApl9z8XWV7umrmz6CMjYkUK4wxbr3a0PvU6Sfo1bUqfNWymdZWLT6Bc7FEV38CQp+tho9tzX2KA0rEVhaJOHtTV6ghmOFv4yBTC5KD6wQl6I2NzSDnMZ3DblZ3HsjvdYrZ7UQ4vKSy+d5YWNP+QGND13L5/xdEJqewkn2zg8hjMWIWao8y6Kmp8rLCcyvdecuNxAc8ehbq86zHl7webM49WZgcCZK0fiFXPA1NFjGyrT7MRq4Eq1XT/VYLbxmTd+PgbvcQyPpF1xG31qD1SfO85aryg7s10zf2oIk/T2GjR6rZnkj/hxV5F/l8+xVq84bLZ+3x9P93rz2FziNlKudoow/QcHPVqPntqanSCrv6DZ3bo6mZ4utV7aQ7EI/yw2cA0KIeTHHcZpo/TXmhRdfZOvWraxevYozZ85ydVcXq1etYnbuAq+99hs+9MEP1s8kbCkT73MV223MeBxbr38BIoQQzThzZmHLNHV0dPC1wW+x70v9odsf/fYQXx34Mg899NCCjvPwww8vKL0Q4sol8UcIEbW2zjrrGyoba2bYLO63hYkEpqUXG47u9NjlachKs6uVtlsmBhdhVjchhGgTuVATQiwWiT9CiKi1uaHpBH5rprHpnUIaQMMwvAv+ujdxx+Ol7Yqk0/wsa0IIUc/k5GT9narYtm1bhCURrXHv+Q8OulRJGQET7mLVl7wvQghxOWtzQzOoyVG6KklwYK+ue/7QdFKOjhBCCFGdO3GLaNTFqi95X4QQ4nLW9qGzW7dsZtWq1aQzaZrr0RRCCCGEEEIIcSlqS0NzdnaWl3/5MjMz00xPT3P+/HnWr19PV1cXnZ2d7TikEEJc8p5++unWEztw1667oiuMEOKKIvFHCBG1tjQ077j99nZkK4QQl73u7u66+/z7f//n/Mt/eb/v5xe+8PmLUDohxOVM4o8QIkoX+R5NIYQQ1eRzOQ4ePFh3vx073svBgwd9P/O53EUooRDiciXxRwgRNWloCiHEEpHJZnnlYwkA8g50n5jk+NZtZPOQK8TIOA7a25O80NFDphAjm4es45Bz4OHsS4tceiHEpUzijxAiassWuwBCCCFcmWwWcC/ycgX3uVwesg5kCpDJuxOqZfOQyzvkCpBzIF+Ikc1kQ3K0SMRixEqPRGAhCdsk7t0ei2Pavh0w4zGCyao/798ePJ6V8B6rslxWIkbcX4CGy1j5PGAliMVN5p/210f18gtx5Yk2/tQ716rFpiqxxTaJl5fCKZ3z3kdwW0g88B7XFxc86RoKCpXHn08WUrbAsbxxzkqEH9M24+V0/rhYOyaH10m1fbzb66WX2ClaIw1NIYRYItLpNF3HJ+k+McmWN9y1O296c5Jb3ppEOz3BB2YmAPjIOxPcMTvBJ+eO8Jm5CT6bOcJcJu3PzEoQiyUg6eA4xYey5i9YrASxuIVKebanFFbNBmSD7GEsNDTL8l3oqHJZkqji0haO4+BUWzSxiTIq1YuxN3jx6MuMhK8+Umhm5RqOQlypoos/dc61erGpQcqb3knijSKaBtZwZX62aYaf81ViVnUaRikupQzGEv6GrbdsyV6DeJWgqpSCimPaDFs2Sm9+bfiqdWKbxGNxbN27XWEFGsHh6SV2ita1ZejskQk3GK1YvpwVK1ewYvkKcrk8uVyWXD7Pu3t62nFYIYS45J3auo2s4/YU3HRqkkc+/ynf9tHRUfr6+igUCjhOgXzBYdXKlTw5NOTZyyKRsCoXvldJUoHtuvdKRtNJJW1iiQRW4MKtGfawBWo/em8cywLVUkZNllHpGGacveYeUnrI5Zk9xphmsL+cQENPJVspmBCXrUjiT81zrV5saq6xWU2vUowZJpbujWM2wxYYhsIIDu5YSMzSdHRlYA7bhIUetzFZJa1SKBL+Y9rDWLZCbzUAV7Ax9xr0BuscRTLVSHKJnaJ1benRnJ6eZs2aNay/6iq6OrvYtGkTXV0drL9qPdPT0+04pBBCXPLS6bR7kVeIkSnU3nfZsmUsX76CVStXApCZ8/QoWBaWZlS/UKm1XSkUY4y1fL3nXsypPRpKKSyzVi9jDU2XUUPfb4ARD++R1XrptQ1M+RpeiFCRxZ9a51q92BSVXh1dWZjebkbLxECxpze4c0QxK5SNaVpoWsVBixRup6ZnEOuwha1Uy1/0VRZhGIsF1LnETrEAbZsMaC49x1x6jjNnz0SXqZUgZmqkUlWGE9TbLoQQS1gmPcd1Jyd9z42OjlbsF/ZcOjMXUSl60TQbewxaCqTFi7mUBmgKlTAZtnW0SINylTJqOvsNi3hoj6wimVTEEjFiKJIL6LEV4nIUXfxZ+LlmJWLEKp5V1fdRyYoh+EopEolSr6bb4FN6Eo1E4GALjFm2iWlpKF2j1CM7XzZ3iG2qRl5KN9DiFhYKVR4221p0Cq2TMRvbGyhtk3jcKJbU//6E16nETtG6tt6j2bFxI1s2b+HG629gy+Yt7TyUEEJc8tLpDK9csw17Uw8vdbm3GPT19fkeYc/19fWRTmciLIlG1S/g67AsC03tKV7WKJSyQ++VWrjwMmr6fgzNHZ5XQSVxHIeUMeZObCEzWghRFmn8WeC55r9X0L0PMthW8+0Tdp+30jG0Yq+mZWJU6dVrLWbZGKXJc+IWKpXyDZstlS2pbIx6XYHaHpRmYVmUh822drtBA3UC7u0HIfe11kwvsVO0qK0NzTNnz3Ly1El+c+woJ0+dbOehhBDikpdJZ9wlAwruzI7N8F3oKYWyLapeKymFqjq0zcSwe+ltqQfSvViyjbhvdkLbqDIBRy0tl9EdQqtZiaqTGml6yr3IqrGPEFeayOKPR8W5Vi82RUpD1xW2NYzpa0x6tRqzPJMBOanQezMBVLKROKOxR2lYlhX9sFmItM4ldopmtW3o7JrVa1i9ejVr165l9apVZDJpZi9cYPq03KMphBBhMpk02unWhq5lst5ZHxW6YRKPx8H7TbuVID6mk9IVuqERT8Qxvdttk3hxoo7W5u9xh3/5h1a5MxY2PynQAspYGkJrWJTHv9kmcbOXlO9b/tZ7boW43EQWf2qea/Vi04Jfhp9SqEQCw1YkkyGtwUhjVmgB3Dhmmtiq+m1d2h6FZpjsHQNjf9QDU6vUeaMkdooFaPPyJg4nT57k3LlzLaavswZc3e1CCHHpyOXzvLCxp/yAxoeu5XP+LghNT+Eke+eHd8VixCxVnpFV01PlpULm13tzlxIJjrjyrX/pmQ4/+LxZvDIL3hsZnOyiUc2UsTLtfozg/Zua6VsjjmQLF11CXKYiiz91zrV6salR/nV5q62b6Tb0KuNSMY+IY1YYTd+PQfUlTtyd9qA0GxvFngaqoaGY7KmT0FgaSzBm6L7XHppeYqdYgJjjOE7Umb7w4ots3bqV1atXc+bMGa7u6mL16tXMXrjAa6+9xoc++MEGcplft6d0QWElYiTGjOJkP/W2CyFENA4dOtRy2m3bttHR0cHXBr/Fvi/1h+7z6LeH+OrAl3nooYdaPg7Aww8/vKD0Qogrl8QfIUTU2jZ0NlwTbdriFNgp773ISoHZ4HYhhLjEyIWaEGKxSPwRQkSt7UNn53+NvONUCCGEEEKINgjcnuWZLEgI0Zg2NzQ9qyDFKldEqqlixkF3DaSGtwshhBBCCNESRdIJLLPi1L8/XAgx76L1aLq/NdPYdBeInb8xeW9g+q9624UQQgghhBBCLIale48mFBeI9T+l601sF0KIS8jTTz/demIH7tp1V3SFEUJcUe759n9rPbED3zl2NU7H7xM781fy0/OTgX+I7k0S4hLT9qGzW7dsZsOGDbiNzCaHzwohxBWmu7u77uPJJ79b8VPCqxBiodatW1f38dJLqYqfxCg3rgD5GfgpxJWqLT2as7OzvPzLl5mZmWZ6eprz58+zfv16urq66OzsbMchhRDikpfP5Th48GDd/XbseC8HDx70/cznchehhEKIy1WhUODXv3617n5bt17Dr3/9qu9noVCQRlUIp+P3AenRFFeutjQ077j99nZkK4QQl7VMNssrH0sAkHeg+8Qkx7duI5uHXCFGxnHQ3p7khY4eMoUY2TxkHYecAw9nX1rk0gshLmX5fIG3b3RXIXeAdWdPc3bD1eQLUHAgD/zW7GlOrLmavBNzn8eh4MCd+ZO+Hk3hip35q2ZvGhPistLmobNCCCEalclmAbeRmSu4z+XykHUgU4BM3h0fm81DLu+QK0DOgXwhRjaTDckxMD1/cF5+2yTum7o/jmn7dsCMh03nb5Go2LeYX9zE9qStzDNQtkb2txKe/cKU0oYtQVC5LZiXlYgRLx7USoTUE2Cb8XI67/7V6yjkuLEEVs19vNvrpfe/t7LkgliofCEPuI3MQrF1VChAATcm5Qul/aBQcBuY7iNGIZ8PNDI3kPzT7TjFR/LW4NH82527NxSfX43xlZD9N3eT+tNrUZ59HG/6im03Y2wOe5XF436lG833fDFduRwudXfwOMHyVk8LpR5NIa5c0tAUQoglIp1O03V8ku4Tk2x5YxKAm96c5Ja3JtFOT/CBmQkAPvLOBHfMTvDJuSN8Zm6Cz2aOMJdJ+zOzEsRiCUh6puZX1nwDyUoQi1uolGd7SmGFNppap2lgDVc2EW3TJOwwSvVi7K3VqKx6JIzSa0kZjCX8DVblqYdkr0G8yotUSoFlVTQIhy0bpeuBi9P6vMd1nCTludFtk3gsjq17tyusQCM4PL1FwvfeptDMYCNWiObkc3nWnj3NurOnuercaQA6z59m0/nT/NaF02ydc5+7IXOam7Kn2ZZ7m3fnTvOe/Nvk8nlPo2oDyT+9Fr4zTuyPxon90auMffza+c/+rdfi+LaPEzu8kdQnVjdVXsub/o9O+D7/9inYc2tlftonugldn2DzBvaQxr51o2/7/DFOYHGOROl43zlXNy3IPZpCXORZZ4UQQtRyaus2so7bU3nTqUke+fynfNtHR0fp6+ujUCjgOAXyBYdVK1fy5NCQZy+LRMJCJQNrvqkkqcB23dty0nRSSZtYIoHlbRQtQK9SjBkmlu7Nz2bYAsNQGMHWkdIxzDh7zT2k9GabdUWajq4MzGGbsCzcxmSVtEqhSGBZnhWz7GEsW6FHtoKWjbnXoDf4/qBIphpJPsaYZrC/nFZDTyWjKpy4gr2z4Wq3lxLofOc0n4r3+LYfP36c6667DsdxAIeC47B82XJ+8YtfzDeqNq+m99QUew+XUqUx/uxE8fcNJO/egPWdcRKHPRkfPkH8MEBzjc1qxlLn6P14N+pH3gboalQczIPn0OP+/bVbN0Dqdcw3b0bdCtZhGlYrrdyjKa500qMphBBLRDqddhuZhRiZQu19ly1bxvLlK1i1ciUAmTlPj6ZlYWlG9YZRre1KoRhjrPkuxXC9OrqyML3di5aJgWJPb1gCDX2/AUa8TcNBbUzTQtNCDw4o3E5NzyDWYQtbqUga3sUMsajx/tSj9dJrG5jShSkilMvnysNh83VuLHSHbC9j+bLlgDuRWblH81Sasc3d6BXDZYFbN6JOTWE20ZBryakpzMMb0L29pLd2o3MO61RwZ7cBOnw4jXX4HOrjwWG1tdROKz2a4krXlh7NIxPu8K4Vy5ezYuUKVixfQS6XJ5fLksvneXdPT50chBDiypNJz3HdyUnfc6OjoxX7hT2XzsxFVIpeNM3GHoOmx4lWoZQikSj1aroNPaUn0UiEJ9B09hsW8VZ7Vm0T09JQugZ47r10M8dIOaRqvDalG2hxCwuFKg+bba1VOH9c3LWfkwrGbGxv5dom8bhRLKki6XnNoelRJJOKWCJGLLC/EK3K53JsfOe077njx49X7Bf2XC6fI/ZOqVF1jsR3zuHcvR2HcyQCw1oboe7eHjKJzrnq+xw+4R/OCliHz5G8u9SruRrj4xuwDp7A5lp/tsUGaPwUcOos1t3dqM1T2BUN0hB10kqPprjStaWhOT09zdatW1m9ejXr1q5l1apVZDJpZi9c4LXXftOOQwohxCUvnc7wyjXbyBZ7ND8wPUFfX59vn9LQ2aDnnnsuwpJoVO3wa4XSMbQ4pmmjek0MDFKK6sNXAU3fj2HFSSQsnIZaUTZGPIbhpsZIpXzDZkvDiK1EjIRpoSdrZKrtQWmGO3y2d2HDZiuGL4ceTyfl6Lj3XvorpWp6lcRx3EmK4rGYpxEqRGvy+Txvr7/anfjHga0XTnPdddf59ikNnQ06evQ3/llnD58g9kegfeJmUn+6PbQhWEvF0NrN3aS+srr2PkGHpzBP3Yz+idVYp7rRmXKH5wZ6WtWtG7BTU8Uves5hHb4W/dbVGKfSlXkG1Esrs86KK13bhs7Opec4c/YMb5w6yW+OHeWNU6c4c/bswjKtN/Ngu7cLIUQbZdIZd8mSgjuzbDPS6cz8H0qhbIuQOXg826sMvbRMDLuX3pq9mZ5eT68xu0r81NB1hW0NY1oWmtrTQGepO4RWsxINDqH1TAbkpELvzQRQySSqbp4ae5SGZVnRD5uF+u9PEzQ95U4S1HA9CREun8uXlzIp1Bm6H5TLBWedddk/etWdSOfWa92ZZA+fxdq8ARU6I2zU0hgHz6HFN2DcugE7dS4kPm1A3Qrax2/2zZCrfbzKpEFNppVZZ8WVrq2TAXVs3MjatetYvWoV6UyGk6dOtvNwQghxSctk0minWxs6m8l6v31X6IZJPB4Hb8+elSA+ppPSFbqhEU/EMb3bbZN4cZKg2hdZbkPM8A1tdScY0owqM7MqhUokMGxFMtngmNzSEFrDcqevjUTxtZsmtqo+i6y2R6EZJnvHwNgfdU9hlfenUbZJ3Owl5evBjLgXWlxx8vk8v3WhtaGz+UJ+vkdzczepj6eJ+3ow04y9CXAO82A3qa/cDH/2KkZpeOqt15LaPEX8R5G9HNfhs1h3X4u++RyJPwrpobx1I6pieK87a27dSYEaSCs9muJK19aG5pmzZxfeiymEEFeIXD7PCxvn72H/0NnGh85+//vf9/2t6Smc3gSx8nBSisMrtfnte0zi3u3FXsFgw8d3n6BmkErpaHqKpB0jEYvNpzZSNWaKdRt4lt1c72BpCK1Rf9em84wneqsPNy0OnzUw2N9AQ7CyjvZUPu8Z0hte/24d+pZXCE2vs1+Lu8vXFFXMICxEkwpOgROrry7/fW268aGzr7zyq/kezVNT7H3zZncJkyLrO+PlRqX9o1eJnboW5yvb0Us7HD5B7Dtpmpl11n8fZxrT23AtO4d5MI36rbPhyyndugEOB+8hPYd1GJK3boDD1Yf7NpJW7tEUV7qY485RHakXXnyxfI/m2rVrWR24R/NDH/xgaxlbCWKm5l7kLMZ2IcQV6dChQy2n3bZtGx0dHXxt8Fvs+1J/6D6PfnuIrw58mYceeqjl4wA8/PDDC0ovhLhyfeyP9y8o/U82GjLLagjnT7cvdhGEWDRtXkfT4eTJk1zd1cXq1ataSO8uSu37tsg3fKrd24UQ4uKRhqIQYrH85N/uXVD62B/9o4hKcvmQHk1xpWvzOpqxwO+xajuGcBuBJEuTOwRn3mv3diGEEEuLRSIWK67hN/+QSXCEWHwy8U0l6eEVV7o2NzSDmhilG7KguFLq4m0XQgixxCiSzvyXg/IloRBLhzSqKknjW1zp2tzQ9DQso78VVAghhBBCLAGlRpX8nP8pjW9xpWvzPZqeobKxZobNUp4K37T04rfVNqZpQWmannZvF0KIi+zpp59uPbEDd+26K7rCCCGuKAuOPwP/UOxekJ/+n0JcuS5aj6b7WzONTUUyqdyp3WMxYrG94Bva2u7tQghx8XV3d9d9PPnkdyt+NhVehRAihMQfIUSU2ry8ySrOnDnL1V1drFq9mgsXZhe2vIkQQiyCi7W8yf/3ve+Rsu2WjhPXNP67z32u5XIKIa5sEn+EEFFr+9DZrVs2s2rVatKZNPKVlxBCVJfJZnnlYwkA8g50n5jk+NZtZPOQK8TIOA7a25O80NFDphAjm4es45Bz4OHsS4tceiHEpUzijxAiam0ZOjs7O8vLv3yZvzlwgKGh/8QjjzzCfxr6T/zNgQO89eab7TikEEJc8jLZLOBe5OUK7nO5PGQdyBQgk3e/rMvmIZd3yBUg50C+ECObyYbkGFgOJLgOiG0S9y0VEsf0dWjYmPGw5UMsEhX7FvOLm9ietJV5BsrWyP5WwrNf5euS5U2EWLho40+1c7R0nnsf3vXMa53b1bdZiRjxYOBoML41FnPChJdn/paswMP3YorHDgSv2mkbibv16lCIi6stDc07br+du+76DPfccw/3338/Dz74IPfffz/33HMPd90lk1UIIUSYdDpN1/FJuk9MsuWNSQBuenOSW96aRDs9wQdmJgD4yDsT3DE7wSfnjvCZuQk+mznCXCbtz8xKEAusFewoa/5izEoQi1uolGd7SmGFNixbp2lgDVdertmmSdhhlOrF2FvrAi+4BnIKzUyE5iWEaFx08af+Oaq8cclJouqma/K8byK+1Y85oQeoWp7515ZEeZdk8q7DZA9joaFZVpV6qZG2xXIJsRjaPHRWCCFEM05t3UbWcXsKbjo1ySOf/5Rv++joKH19fRQKBRynQL7gsGrlSp4cGvLsZZFIWKhkYI1JlSQV2K57J9rWdFJJm1gigVW++FuYXqUYM0ws3ZufzbAFhqEwgldASscw4+w195DSQ2YBt8cY0wz2lzPT0FPJCEoqhIgk/rR6jtZK11SeTca3ejGn2bI2knzYArUfvTeOZUU4F6XER7HEtHnWWSGEEI1Kp9PuRV4hRqZQe99ly5axfPkKVq1cCUBmztOjYFlYmoFe7eKl1nalUIwx1tqcIJV6dXRlYXrHe1kmBoo9vWEJNPT9Bhjx8J5VrZde28CUr+iFiFRk8afVc7RWumbybDq+1Yk5zZa1LveLNrVHQymFZTbbm9qucgkRPenRFEKIJSKTnuO6k5O+50ZHRyv2C3sunZmLqBS9aJqNPUZkyworpUgkSr2a7prFSk+ikQhPoOnsNyzioT2r7tJUsUSMGIpkRD2vQlzpoos/9c9RKxGbnx5SJYtDmFiluwAAIABJREFUQ2uli+q8rxLfasacMAsoT/GLtpQGaAqVMBm2dbRI4q3ER7G0SENTCCGWiHQ6wyvXbCNb7FH4wPQEfX19vn1KQ9eCnnvuuQhLoqGF9ja2SOkYWhzTtFG9JgYGKQW1bhzS9P0YVpxEwsIJXimpJI4DthknHot5LlSFEK2KNP7UOUcrhvU3ki6y8z48vtWMOWFaLI9lWWhKL7ZzFUolMIdt9GhamhIfxZLSlqGzRyYmODIxwauvvsqx48d44403OHbsOK+++ipHJibacUghhLjkZdIZd8mAgjuzYzPS6cz8H0qhbIuQOXg826sMr7JMDLuX3prXPJ5eAa8xu8oQMA1dV9jWMKZloak9DXSWusPZNCtRdTibpqfcSTNq7COEaExk8cej1XO0Vrq6ebYc3+rHnGbLGlIALAtsI+6bFdY2widH82su7kp8FEtBWxqa09PTrFmzhvVXXUVXZxebNm2iq6uD9VetZ3p6uh2HFEKIS14mk0Y7Pcn7pyf40Fn3S7nR0VHfI+y50dFRMlnvrI8K3QAjHpgK30oUZ51V6IaGlQhst03iCQuVrDfcSmOP0rASgWUJEjUakcWLP8NS6I1OuKHp7Dc0LMtzlVQsY7A8kfbACnEFiiz+tHqO1krXVJ4LiG9hMafZstZiWVje2WTLM8y6DdDaGoi7Eh/FEtO2obNz6Tnm0nOcOXsmukytBDFTI5XSF3DrkI0Zj2PrVYZtCCHEIsnl87ywsaf894fONj507fvf/77vb01P4fQmiMVjGKUnVRInqc1v32MS925Hw0gFZmokcD+VZrgxWE+RtGMkYrH51EaqxqyNxYs/WzV1z1BpOJsx/wT7tbi7dEv5ZVWWWQjRnMjiTwPnqC+moGGkUug10zV33jcT3yrTBmJO+E4txSHLskBV3neuFCQamH62btyV+CiWmJjjOE7Umb7w4ot0Xd1Fx8aNrF27jtWrVpHOZDh56iTTp6f50Ac/2FrG0tAUQiyCQ4cOtZx227ZtdHR08LXBb7HvS/2h+zz67SG+OvBlHnrooZaPA/Dwww8vKL0Q4sol8UcIEbW2TgZ05uxZzpw9285DCCHEZUMu1IQQi0XijxAiam1bR3PN6jV0bOxgy+Yt3Hj9DWzdvJmOjRvbdTghhBBCCCEiZJEoTtrjfcjkOkI0pm0NTZfDyZMnOXfuXIvpAyd4xZkdDACJwKxd/u1xM2ReLtsk7su7WhobMx4jYRW3xyNcYFcIIYQQQiwxwYl73IfceiVEY9rc0IwFfo9V2zGERSKWgGS1E9vdPmak5k/+JCTKjc3K7RWTVFgJYnELlXKKawxZJGImWqp0zBTKivu+ubISFspxcBZ0n6gQQgghhBBCXL7aeo9mpSbmHbIsLK24qHeRUgrMwHZv47G4KLhl4U4VHdzuyz9BzIKkk5qf/cuysLCxfLOUgTY233dZf9p/IYRozdNPP916Ygfu2nVXdIURQlxRJP4IIaLW9qGz879GPrltFY2tF2SNjaExxlhw/KtmkAoMkag+Xb8QQkSru7u77uPJJ79b8bOpASNCCBFC4o8QIkpt7tH0RJ5Yk1FIKVQigWnpxSGzNqZpQWnAanH7XnPPfEPQMjFQpDRAC6a3MM1edL2YXE+R7HXXWLKTxWG5FccEK5EA6cUUQlwE+VyOgwcP1t1vx473cvDgQd/PfC53EUoohLhcSfwRQkStzQ1NJ/BbM41NRTKpiJUX9dUwDMX8bD+KpJMkEYsTM7zPle6dVCRTBvF4Kb27P94pfDSdlNPrTu5T3O5P4y50m2zmJQshRIsy2SyvfMxdaDvvQPeJSY5v3UY2D7lCjIzjoL09yQsdPWQKMbJ5yDoOOQcezr60yKUXQlzKJP4IIaLW5qGzQU0On1VJzxDWFLqeDEzCE5wNLNDzqOmeYbClbRp6yjuxUCmP4nZfGu9+wXRCCBGtTDYLuBd5uYL7XC4PWQcyBcjk3a/AsnnI5R1yBcg5kC/EyGaynpzcWbJjobNyl7bFqZiI20qEzKgdzMs/u7eVqJydu37etcoHwdm/ZSkBIdovuvgD1c/hhZz71bf541DpUMVVBcqPYFxqNhb6j1e5EgLYZjyQrniMin1D6iFwvNDXVDW/Ypmq5ldaOaGixBKLRVu1fdbZrVs2s2HDBtxGpgziF0KIatLpNF3HJ+k+McmWNyYBuOnNSW55axLt9AQfmJkA4CPvTHDH7ASfnDvCZ+Ym+GzmCHOZdEV+Kln9izilejH21lmmyTaJx+LYujcfhVVneaeG8q5avuCM4yk0M7h0lRAiatHFn/rncPPnfpNxwbuqQOk4KYUV0thqNF7506jiBJJeNsOWjdI9HSL2MBYaWsW+lfWQ7DWI12vJ1clP86y00FB+IeWQWCyi1Jahs7Ozs7z8y5eZmZlmenqa8+fPs379erq6uujs7GzHIYUQ4rJwaus2so7bU3DTqUke+fynfNtHR0fp6+ujUCjgOAXyBYdVK1fy5NBQcwdSOoYZ99/n7mNj7jXoTQZHciiSqYXmXYM9xphmsN83mkRuYBDiYogk/rR6DtdK11SeFomEhUo6+MKPppNK2sQSCSzvF2+txCulUCTcVQ5KGdnDWLZC98RLe9gCtR+9N+7fNzRL7+1h4ZrJr1fTWNCC7xKLRQTa0qN5x+23c9ddn+Gee+7h/vvv58EHH+T+++/nnnvu4a67ZPprIYQIk06n3Yu8QoxMofa+y5YtY/nyFaxauRKAzFxlj2ZtGvp+A4x4+HAoexgLw3fRFFneNZP20msbmPK1uRAXVWTxp9VzuFa6ZvIsLn8XGruUQlWsONBKvFK4nZrzCexhC1spz8gRm2EL1B4NpRSWWavX1J3wUqu5bEJz+Q1bttt4bZXEYhGBi7yOphBCiGoy6TmuOznpe250dLRiv7Dn0pm5iues8mRquPe8B28y13T2Gxbx4Df8AGM2tueOeGyTeNwoXti4k6fVvISplXfN8nkngmvgOEKISEQXf+qfw82f+1HFhV40zcYeAwK9nfXiVZDSDbS4hYVClYfNelJWrIRgMmzraJ7jWt4JL1OOu281DeRnG54JMgNr0dcisVi0y0WeDEgIIUQ16XSGV67Zhr2ph5e6egDo6+vzPcKe6+vrI53OVOTnu++mykxmmr4fQ3OHmtVUniit8YuNenlXLV9xIriUMeZORCEzUAjRdpHGnzrncEvnfmRxIXy99YZjYTnBHpRmYVmUh816OxAty0JTe8orIShlYw37+yBL9ZBUNkadrsNG8vPeo+noNvFYY/dUSiwW7SINTSGEWCIy6Yy7ZEDBndmxGWENzca4w8Y0K+EfNqYUyrYYXsg9PtXybjS1nnIbti2mF0I0rh3xp9VzuFa6unkqhao25NMyMexeekN7DpuNVxp7lIZlWSHDZt0GqG3EfTO22oZZZVKgenXUXH5upmHDhFsjsVi0SobOCiHEEpHJpNFOtzZ0LZNt9h5Nj9KwMcNifhyWQjdM4vE4pFI0O6dP7bxrsE3iZi8pXw9seA+EECI6kcWfVs/hWumaylOhGxrxRBzTG7tsk3hxkqCqozKajFfaHoVmmOwdA2O/rzsTq2K4qTuLa/gkPsUymya20qk4ctP5ldL0olqN3RKLRQTa0tD8wQ+fAWD1qlWsXbuW1f8/e3cfG0d6H3j+22w2XzySOCNxXjSWY02oOKeuQmLLtkTvBBM7WK93M3b2gOVT8mbjXHy4f3wI4twfAewbe6sKYx0M5HB+QTbG/nMj7+GAsB/+cXdzwu1eTt7NxRNzdF7JibtalkSO7ZFGnNGMXiiRYr/X/VHdzap+72aTbEm/D9CQWF3PU081u36sp563sXFyuTwb2Q1y+Rz/7DP/dDsOK4QQD7RiqcS5fUdqPx+/u1TrrlZVnfWx3quvvtqwLTLuBgOnTYXRsOdxtIkT2ZbGn3MxzVh0u5PuaaxOs7xbl89m3jCJxazaOw2zRwohBm5g8aeLa7j3a7+3uNA8dgXjIDvFklbxqvnOcyjDwcFhPnx+WoOqH2YQdK21tAbVWFurHte0kg1DHTrnF7wTGaPZZFxl5HM3HNLpucbtEovFAMV83/cHnelffO8v+eixY+zdu4/p/fvZu3cv9+7d5b1bt/hPf/M3/PGX/ttBH1IIIbbN+fPn+047MzPD1NQUL3/zO/zJl/6o6T7f/d5pvv6VL/PSSy/1fRyAU6dObSm9EOLRJfFHCDFo29Z19s7qKndWV7l67WrDe//hjffh+3D7XYit/Taf/8f/13YVQwghHhhyoyaE2C0Sf4QQg7atkwH9yqFDfPg3fpMXnv8tPvwbv1nbvvqLf8zE6n9P9vavkpj+m+0sghBCCCGEEH3QwWyrdS+ZEEeI7tRaNH3fJxaLNezQans33rx2jTevXWvYbv3O/wHA8v/9Xe6sPAMf7it7IYQQQgghtokiNfgRZkI8MkYATp8+zVe/+lWKxWLkzWKxyFe/+lW+//3vd5XZO7cy/M9/fQCAx6em+JVDH6i1aH7kN36DXzl0qLbvv/sPsyQm7/P5T/14UOcihBBCCCGEEGIIjJZKJX72s5/x+uuv87WvfY1vfOMbjI6OUiwW+drXvsbrr78OQKlUIh6Pt8wo88b/TubOv2RyL9yvbPPx+cnf/4QjvzrD3r17qD4T+v6//yixxy7xz49d5rGJ/W2KV5m6ufKT4aRJ2waea2I6ydpsWtqKYZEKZunyXEzTobpskEr5BJN3aayYi5FSaCt4X6V8Uli1BWir+QshxG44c+ZM/4l9ePGzLw6uMEKIR4rEHyHEoI3E43FefvllTpw4Uatsbmxs1CqZJ06c4Bvf+EbbSua1G/+ZzJ1/yWN7fT6079/UtocnS4ZY5QWF2HU+/4l3mXrs2TZFq1QM0z6+7+P7aZQ2sXQwbXVKaVzXA21hZZzKOj8ergvzfiVNSqEtK7SYrYdTfT+lgumctQr2TTvQbuFbIYTYAdPT0x1fr7zyVw3/0t8IByGEqJH4I4QYpFGARCLBN77xjVrl0rIs1tbWapXM0dH2k9P++//8L5gxfI48mWPpl1/iv/yvc/z8aoL/55zJhw78D6E9gzbN/+YzK51LpjUaD12/flvGAwxUKoWOmcQwcNKpyuK2BnYqaPGMObU2zXBqnPnKQrhKochg2JX3jSRJNJXshRBix5WKRc6ePdtxv2PHjnL27NnIv6W6oQ9CCNELiT9CiEGr1SBHR0cjlc1uK5kA8bE7vG+8zPsmfcxfzzESgyOHC/zi+s9go7KT7/f+wMtwSKft7ut9lW6zOGl836j87HVOJ4QQQyBfKHD5hWBx7JIP028tc+3gDIUSFMsx8r6PcXOZc1NHyJdjFEpQ8H2KPpwqXNjl0gshHmQSf4QQgxZZ3qRa2fziF7/Iyy+/3FUlE+DXn3R56+0RbqzGKZfB9+HOel1X215nrlUK5Tm4ob6s4W6w2rLIOGnSDjgn3WBMZsbDMxzmK+MsvQWNVDOFEA+KfKEABDd5xXKwrViCgg/5MuRLleEHJSiWfIplKPpQKsco5AuhnDxcs35K/iB+aitWG5ce5rkmMdPFa5N2M18Ttz64aquSvnKMJksCbB43umSALBUgxO4bXPyBVtd459gAtThTFxg6pdVWDDMSmPorQ2M+jXlFyybxTIhWGmqSo6Oj/OEf/mFPmfyj3/gy69kv8L/97b/AnzzH/qd8br4dY2X5g0xXhmEGnWZ7qWwqUmkH09wc6RlM3lOZ/CfjkE4ZGMzjaBPTSuKnbBzXxIwFnW0NpaQXrBDigZHL5Xji2nJk2+Ebyw37Pb+21LAtm881bNucDC28UYGl0ajQwAKPBe2h7DQGHgut0taySOKcdJlr0eNEpfxKzNdYMY2qTNxGbZsFKR9fBcd2TQutUrQ4nBBiBwwu/rS5xtvGhgpvAY2BoaNxqqu0gypDJKtg0khVyyvYZrpJ0nZG4pkQbXTXZNmFxyb2868+/R8B+Ivv/SUfPXaMYyf28ubVq7V9fHpci8iwSft2w+bNIAFgYKd9qnuF/1+XipSvevhZCCF23jsHZyj4QUvB4XeW+dbnPxN5f3FxkdnZWcrlMr5fplT2GUskeOX06e4OoBQKC62DOicQ3Nh5CrvbEKiCh3on3bneZ+r2MmQMh/nasQzsdKq3PIQQ22Ig8WeL17i3oEHNYyfNaJzqxcDijMaqVDIjD95UinRQWIlnQrQx0nmXrYjxkd/8TZ599lmCNk2ZlkwIIVrJ5XLBTV45Rr7cft+RkRHi8VHGEgkA8tnGFs3mFEqB1qH5uBc0nlI9PIE3sOcdcMzeu4kZSZJ1wyKEELtvYPFnS9e4x4IGNWeglEK7bn9DoAYVZ7RGG07rh3ASz4Roa2AtmmE3332Pf/f9/4Vf/PwNfv7zn/POjXd46qmn+NXnfpXnnntuOw4phBAPvHwuy6G3o13VFhcXG/Zrti2XzzZs01ZokSlVWWsYULaDYVa7pVW7zaqu0tYYNvOOxrQsdKeuZxGKVEoRs2LEULX1kIUQu2tw8WcL17h2cVCkDcBQKMtlwbMxeh4HtVNxRuKZEO1sS0XT/tf/ejuyFUKIh1oul+fykzMUKi0KH7m9xOzsbGSfate1en/7t3/bsK3lOEtjDmU4Qbe0ZPNus+3GaNaysYMx8pal6WnkgUrh+8EERGYs1rwiK4TYUQONP31e41prDFUd+61QysJd8LB7r2nuXJyReCZES9vcdVYIIUS38rl8sGRAOZjZsRe5XL6HvQ3mlIHWuo9us9F87HkHQ1t9zbRo2Gl8P4XqM70QYnC2I/70do1rtAbPMSMzuHqOy1bCw5bijFIoT7PQRf9diWdCNNqWFk0hhBC9y+dzGLf667qWL3Q7RjNgzCkMx+VkBpz5LTx9r3ahdTRd9W/z3GC2xsgTfwMj2X8RhBBbN7D40+81XpllNtVkluqeJwUaWJxR2I6LaZqQTlOb+0xbmBmb9NyCxDMh2pCKphBCDIliqcS5fUdqPx+/233XtVdffbVhW2ScJQZO+Eap0n3WwWG+Sf2wbdo61S60TptzC+3MvGESi1m1TSrlt8xbCLEzBhZ/+rzGtdbQsCyIqqzI1GNNc4BxxrDT+EmLmBnbjHEqhZ8yAEPimRBtxHzf73HNESGEeLScP3++77QzMzNMTU3x8je/w5986Y+a7vPd753m61/5Mi+99FLfxwE4derUltILIR5dEn+EEIM2tC2a2WyW927d4vbt26zevcvExATxeJz4SJxsdoM9e/ayZ+8epvfv532Tk7tdXCGE2DK5URNC7BaJP0KIQRvKiuYv37zKlaUlbt9ZZXxigonxcUqlMmNjYyQSCcYnJ/HxWV9f59rVqxx8+hmee+7wbhdbCCGEEEIIIQRDOuvsT70Mb628Tac+vbFYjAPT0/zizat9HkljxUzcnlcDrgxOb/i/EEIIIYQQQoihrGjGR0YYHxvvev/JyYltLI0QQgghhBBCiF4MZdfZpStXOHHiOPlCgfX7Gy3388tlCoUiy8vLzB7/+A6WUAghBu/MmTP9J/bhxc++OLjCCCEeKRJ/hBCDNpQtmhvZDS5c+AmXL13i2Wee4uiv/xrPPPUUo/ERchsbUCrxxNQUa/fWSWcuksv3slC5EEIMr+np6Y6vV175q4Z/Q2uRCCFEXyT+CCEGaShbNKemHqdYKLC2vsbq6l3e//5DZLM5Ll+6zBtvvMGRI0f4nU89w0Y2S7FQJDGa6CLX6FhKw0mTtis/LFjEzMo7KoVfXXjXczFNh+oQTpXySXVcxqnZcYzKdhfDSeI4uu69+nQGjpPE0QbptI3RNl/wXBPTqZWybrFjIcSDolQscvbs2Y77HTt2lLNnz0b+LRWLO1BCIcTDSuKPEGLQhrKiWSwW2H9gP29evcqNGzdIJpMN+6y8/TYrKyuMjSUo++UOOQaVtIyTxo+sopsBPBzPxvdTlYqli+spbMPDdWHe94OKnraIWRa6bSWuUplM+6QMAA/XNLGS1Qpq/bFO4s6lsY2gfKR8fLWZDozO+SZdTjpJUn5aKpdCPODyhQKXXwgW/i75MP3WMtcOzlAoQbEcI+/7GDeXOTd1hHw5RqEEBd+n6MOpwoVdLr0Q4kEm8UcIMWhD2XV2bW2Ne3fX+MChQ4xPTPLD114jc/EiU48/zonZWQ4cOIDv+3zg0CFG4nE27t9vn6HWaMNhPlLJrDJw7EoVzZhDGZvb7ZQNrkksFiNmdTGvrNZoPBwzFqSJmTgeZDLV1sYWx6qUz67VFA1sW3WXr5Ek2ffsuUKIYZIvFIDgJq9YeX5WLEHBh3wZ8qWgf1qhBMWST7EMRR9K5RiFfCGUk4dbixeVl+niAdqKYdaCRbBfY3hrkj4yu7bGCr3XTXgUQgy3QcUfbdXHjliT+6hKjGkSPBrSV2JXOF3vMauVaCxrKI/nYkbyrL/Xqh63yT2YturK3jxutv+8Wsfypuff4vOsj/mdytv5dyh/A0R3hrKi+dievfh+mZWVFab27eW3nn+e5NGjrN65w+uLi9y8eZNnDx6kWCpRLBZJ9DBDbdcqweUk8/i+j592aFZNbWA4pH0/SFN5pZtWcHvUMl9Fyvfx/Xk42SJ4CCEeCLlcjieuLTP91jLPrCwDcPjGMh96dxnj1hIfubMEwPNrS3zy/hKfzl7hd7NLfC5/hWw+15CfSoViRq0bfvci6Wu9OUI9MHwf309juLLEkxAPukHFn824kULV7lH8zWFJAN4CGgND66axw3DStdiTSjqYXdZkmsesFrRFLBLLfHylNytlOhhWpdLhOKrQTSq6SiVxTjarANYO1jJudvN5hc+r6efR4fNs+Jw6lLd9meRvgOjeUHadHUuMUiyVyeUab5zCVldXWbu3xp49j7XPUCmUZeFqu9KFVeO6SWy7TZqMh2c4m+MgFzQejV142x8HtGVBqkOwa0jn4bqaWtfZdvl6Lm7GxlYGdjoNpomX2UwqhHiwvHNwhoIftBQcfmeZb33+M5H3FxcXmZ2dpVwu4/tlSmWfsUSCV06f3pkCehkyhsN8uAdGOrUzxxZCbKudij/eggY1j5000RpUm5ukpGHQpgbXJ41l6ca5N1SKdN37kbYCwyad8hqHUikbxzU56c41b1wYYNxUSlFfq+vl8+yqvO3I3wDRg6Fs0Vy9s8rj+/Yxc+QIN959j9f+7kf8w0/TlMplnnr6aRJjY/z4/HkmJic4+OxBcrks5XK7cZqKVNohU+sKoEl2urCUjYNT6zJx0kt2UXerP04MrbqZmKc+3cm6KNEmX8MmqUNdapOpLiYsEkIMo1wuF9zklWPkOww9HxkZIR4fZSwRTIaWz7Z/MDcwRpKk5+DK42shHio7F388FjSoOQOlFNpt1xLosaC9oHI1SA1Dlnp4XykUGTKRQhvY8w44ZvNupAOLm0FDhGEkI9u6/zy7LG/bpPI3QHRvKFs09+7by71791hbX+PE8ePMzMywsXGfS5cuc/36dcYSCT527BiXrizx3ns3ASiXy4yMtKk3GzZpv74JU5Hyw1Gk0ipY+79P80bPcLq6PJoep9OxmqTTFk7H8ldyTvn4Td8RQjxI8rksh95ejmxbXFxs2K/Ztlw+27BNW7HaqgPRWa67E06/OSO3IpVSxKwYMZnlWoiHxqDjT0vaxUGRNgBDoSyXBc/GCIUnzzGJVW+CDId0l0GmecwatCSG4TX2HjNs5h2N2XTiyK3Fzc3zMnDSfvDZ1d7s/Hk21ba87cjfANG9oWzR/L3PfZaJiYnaz+Pj45RKZW7dusX169dZX1+vvRePj/LbL7zA6OhQ1pm75OGadRNtWBpDzUkPWCEeIblcnstPzuAdOMKFJ44AMDs7G3k12zY7O0su17iecHhcTz9jxSPjncI3bCoV5OlkggkhZCYIIR54g44/rWgdvr9RKOWhF6JtcOExmr7tYXY1sU+bmDVwBkaT0VSGPY9jBPdwTQrXd9ysnldKeTh1TYndfJ4tz6JdedsXSP4GiK4MZUXz2YMH+cIf/D6f+Sef5sCB/ZSKBYqFzSC2Z89jlMs+M899kH/+2X/Gc4c/uIulHQQDe97ADc2Ulumj9UEI8WDL5/LBkgHlYGbHXvRyozcohp0OJovQlsw6KMQDbmfij0brSotlaMZSz3FbVySbdlXdIqVQnqZlfUwpVKvuodrF8ZIkm96iBV1SjTYxcStxU6Xq0/XxefZY3rap5W+A6GBomwFHRkYwQ+3+Tz75JEePHt3FEm2zNl1jhRCPhnw+h3Grv65r+cIOjdH0XEw3SToVHQrQ7Om+EOLBsSPxR2t0Q3fLYBbTlpPYaI0mGVp+bhAUtuNimiak05sT/mgLM2OTthW2Y2BaJm74fc/FrEwS1LK9tNol1dHU+q8OLG5WyuW6eMquzDLb4+fZTXnbkb8BogdDW9EUQohHTbFU4ty+I7Wfj99dqnVXq6rO+ljv1Vdf7fu4kXFNhkM6Pde4HQMnncY2bOYNM1gWoKJhZkYhxANnJ+KP1hoaJklUKAVWqGYUGaPZZBxgbzGreVkMO42ftIiZsc05MVQKP2Vsvj/nYobfr4yR7BTvDHseR5ub6QYYN6t5m1aSFN19nt3m6XTedaDnIh5+Md/3ZR4ZIYRo4/z5832nnZmZYWpqipe/+R3+5Et/1HSf737vNF//ypd56aWX+j4OwKlTp7aUXgjx6JL4I4QYNGnRFEKIISE3akKI3SLxRwgxaEM5GZAQQgghhBBbo4NZUeteMnGNEDtjaFs0s9ks7926xe3bt1m9e5eJiQni8TjxkTjZ7AZ79uxlz949TO/fz/smJ3e7uEIIIYQQYqgoUjJCTIhdM5QVzV++eZUrS0vcvrPK+MQEE5V1NMfGxkgkEoxPTuLjs76+zrWrVzn49DM899zh3S62EEIIIYQQQgiGtKL5Uy/DzVu3mOzQUhmLxTgwPc0v3rw6wIplaxavAAAgAElEQVSmh2uaOF4wi9a2rvcrhBAhZ86c6T+xDy9+9sXBFUYI8UiR+COEGLShHKMZHxlhfGy86/0nJycGdmzPPYmTTOH7UskUQuy86enpjq9XXvmrhn9Dc/oLIURfJP4IIQZpKFs0l65c4cSJ4+QLBdbvb7Tczy+XKRSKLC8vM3v8430cKWi99OzNSmXG8zBk1VkhxC4oFYucPXu2437Hjh3l7NmzkX9LxeIOlFAI8bCS+COEGLShrGhuZDe4cOEnJBKjfPzjH+Pxxx/n/v0N7t67S25jg0R8hCf27+ett1ZYeuMNcvn8bhdZCCG2LF8ocPmFYBHskg/Tby1z7eAMhRIUyzHyvo9xc5lzU0fIl2MUSlDwfYo+nCpc2OXSCyEeZBJ/hBCDNpRdZ6emHqdYLHL7zh1WV+/y2GN7GBkZ4fKly/zgBz8gk7lIfCTORjZLsVAkMZroItfoFNem62LFgrGY2ooRM11cK5jy2nNMYjELmf1aCLGT8oUCENzkFcvBtmIJCj7ky5AvBf3TCiUolnyKZSj6UCrHKOQLTXL0cM3wtP7huBa813Kaf8/FjCwJYOJ60V20VbdsgOniNWYUlKHhQB2O3yAaw6vpGspQfUUybl6G9mk1VpNzxnMxI+fZvFxCPGgGFX+2ck02TR+53lrFjfpYVx/vOu+/mWeTvOpim7ZimJXgoK3m5+G5Zi1deP+tnUPnmN46vcQqsfOGsqJZLBbYf2A/xVKJGzduNN1n5e23WVlZYWwswWiiU8OsxopZZJw0vu/j+z5p2yblp3GMYNIfP21jVyb/MZw0vp9ChmgKIXZSLpfjiWvLTL+1zDMrywAcvrHMh95dxri1xEfuLAHw/NoSn7y/xKezV/jd7BKfy18hm89FM/NczFgwNKAa93xfoZtWButoi5ipUelQ2rRCN7k5MkJxNZV0MOt38BbQGBhab+HhXRDDSVXLk8ZwgxsoVduWQlWWMvB9Hz88yL5FGbpK22e5hHjQDCr+bOWarOoYV1rYPLbfxX2cgVONcWmHjBV9sBTOq10ZlFLQcB4eC9pD2TZGVyXv4hy6jOnN00usErtjKLvOrq2tkRgd4wOHDjE+MckPX3sN3/eZevxxTszOQuUC+sChQ7y1ssL63bX2GWqNNhzSdq+XuxBC7Kx3Ds5Q8IOWgsPvLPOtz38m8v7i4iKzs7OUy2V8v0yp7DOWSPDK6dOhvTzckw7JhpmzFal0pxJoLEujUj6RkGnYpFMeMctCt7iBSxoG9bVYb0GDmsdOmmgNqp8neF6GjOEwX0trYKdT3ScfRBm2oVxCDJvBxJ/Oerkmm8WVgTNsbOXgLng0u1UMKpMt0iqFwoqeh7eA9hT2wFosthLTkVglds1Qtmg+tmcvvl9mZWWFqX17+a3nnyd59Cird+7w+uIiN2/e5NmDBymWShSLRRI9zFArhBDDKpfLBTd55Rj5cvt9R0ZGiMdHGUsEQwfy2VCLpreAxunvJqfyYK5pWqVQZMg0vemrPMGP3DF6LGhQcwZKKbTbRWtqM0aSpOfg9vX4fUBlGHi5hBguA4s/HfVyTTaLKzvNw3V1m4kiFUGjZqgT64LGU2pwPeO2EtNBYpXYNUNZ0RxLjFLyfXK59oFrdXWVtXtrjMbj7TNUChW5wDRuw8AbIYTYXflclkNvL3P4xhIfejfoura4uBh5Ndu2uLhILp/dzCjjRW/cIuMtt9JdKolheHiZUNaOWRvD6dTfCGkXB8WcQSUOaxb6Cr2KVEpVxm71WP6BlWHA5RJiyAws/nTSxTXZNq60yzo8vrOXQYiei6sN1Nxmc+ZmXidh3m/bK07ZTqgb8NYqx03PoYeY3vwzkFgldsdQVjRX76zy+L59zBw5wo133+O1v/sR//DTNKVymaeefprE2Bg/Pn+eickJDj57kFwuS7nc7vGbIpV2yNQuPk3SNgCDOWXUJgOSqqcQYjflcnkuPzmDd+AIF544AsDs7Gzk1Wzb7OwsuVyb2bcNm3RXY5a6YRB+sB8eS+XbHmboJkZrjaHmKmOUFEp56H5reSpY3zjtZIIJLbq8iRxoGQZYLiGGzbbFnzrdXJPt4ko7kfGJHcdaezjVyXNMjUqnI91mq3mllIfTqSnQmEMZGq2pdZvttxG2q3NoE9NbppdYJXbBUFY09+7by71797h29SpPPTnNxz56jI98+Dd4cnqa0XicsUSCjx07xvjYOPfu3QPoUNEkdFFGL0zDrgSzdDBgW6XaP7USQojtks/lgyUDysHMjr2I3OhtpeWuoQdIiHZxvCTJViEy0rU2uOnabJmozurtbulpehCzUyhtdTFr4lbK0Nh6CzS2LPRVLiGGz8DiT1t9XJNtu+xvRWgyID/ddGwmgEp1c11XGi60Hny3WRhobwyJVWInDWVF8/c+91kmJiZqP4+Pj1Mqlbl16xbXr19nfX299l48Pspvv/ACo6NDOa+REEJ0LZ/PYdxa5sO3lzh+N5jhsduua/lCeKiBwnbAMZssz9GRwnYMdN0MjHgupqWDm65WSbVGU6mIao0OzzhZe8hXeerfi8qxo6Itq63L028Zqj1e6pYHsEKtMf2WS4ghNLj400Y/12Q4ruyKSkzsML7bmFMY2uWkBmdwswCFytBvTEdildg1Q1k7e/bgQb7wB79P5uJF4vE4pWKBYmHzadmePY9RLvvMPPdBTnz8o4yPy2RAQogHX7FU4ty+I7Wfj99dqnVXq6rO+ljv1Vdfjfxs2Gn8ORfTjOGEtzvpSEVRWzFim2+STtst0gZP/+uf+nuOSay2kyJV6TGitQZVXykNupNZWoNKtj5+/ckZNvNGsL5xLaf6WXGb6FyGDosf2GlSXgwrFtvc5qQ3e730WS4hhtEg408r3V6TreJKLZ+GuDHXuB0DJ926pbIXhj2Po01MK9mmO+scynBwcJjv4pi9nkNfMb2WXmKV2B0x3/f93S6EEEIMs/Pnz/eddmZmhqmpKV7+5nf4ky/9UdN9vvu903z9K1/mpZde6vs4AKdOndpSeiHEo0vijxBi0IayRVMIIR5FcqMmhNgtEn+EEIM2lGM0hRBCPIp0MBti3UsmrBBC9EdiihC7SVo0hRBCDIlgkhAhhBgMiSlC7CZp0RRCCCGEEEIIMVBD26KZzWZ579Ytbt++zerdu0xMTBCPx4mPxMlmN9izZy979u5hev9+3jc5udvFFUKILTtz5kz/iX148bMvDq4wQoiHRvETn9jtIjzSRn/0o90ughC7Yigrmr988ypXlpa4fWeV8YkJJirraI6NjZFIJBifnMTHZ319nWtXr3Lw6Wd47rnDu11sIYTYsunp6Y77/Pmf/wV/9md/HPn3i1/8/A6UTgjxoOpU2Tlz5syW4s+LL8qDrmakki8eZUNZ0fypl+HmrVtMdmipjMViHJie5hdvXu29oqktYq7RfM22nni4poln+7RaWkkIIbpRKhY5e/Zsx/2OHTvK2bNnI/+WisUdKKEQ4mEl8UcIMWhDWdGMj4wwPjbe9f6TkxPbWJpdpC1itanRogsPe66J6Xib+6pUaBFhjRWz0E3SCSGGV75Q4PILwYLaJR+m31rm2sEZCiUolmPkfR/j5jLnpo6QL8colKDg+xR9OFW4sMulF0I8yCT+CCEGbSgnA1q6coVfPfwrPPvM04yPjbXczy+XyWdzLC8v72DpdorGcg3Svo/v+/ipJI5ZrTxCxvMwnHTwnu+HKpkermmRqb5Xl04IMbzyhQIQ3OQVy8G2YgkKPuTLkC/FAIIbv5JPsQxFH0rlGIV8oUmOHq4ZntY/HAuC91pO8++5mJElAUxcL7qLtuqWDTBdvMaMgjI0HKjD8euP02RHzzXrjtn+WO3Kqq0YZv0Jtsyv07m3Orcm5Yj8TqJLMcgSDGInDSr+NFwb1VfkCy3XlhCPgqGsaG5kN7hw4SdcvnSJZ595iqO//ms889RTjMZHyG1sQKnEE1NTrN1bJ525SC6f3+0ibwNFKtytVykUGTKh+6BkskkzpbeA9hR2tQlT2TiGRktQFWLo5XI5nri2zPRbyzyzEjxAO3xjmQ+9u4xxa4mP3FkC4Pm1JT55f4lPZ6/wu9klPpe/Qjafi2bmuZixoFt/7YGUr9BNK4N1tEXM1Kh0KG1aoZvc4IUfeKWSDmb9Dt4CGgND674feCmloCG9x4L2UHYoTnY4lkr57ctar0N+Hc+91fmkwr+TFMFjwqAnCrX30hiuPCQUO2dQ8Wfz+51CVZYXiT4QR64tIR4RQ9l1dmrqcYqFAmvra6yu3uX97z9ENpvj8qXLvPHGGxw5coTf+dQzbGSzFAtFEqOJLnINdyetMIw27ytS1SDluZimh93q5ybpVSo0ZtNzMU2ndnO3+Z7GirkYThLHqXR0ddKkm/Vz1RpNEmUAeGQylad+9WXNeHhKhcplkEyCzniwxdGoQojt987BGQp+0FJw+J1lvvX5z0TeX1xcZHZ2lnK5jO+XKZV9xhIJXjl9OrSXh3vSIZmqHzuuSKU7lUBjWRqV8qNd7g2bdMojZlnoSOzblDQM6mux3oIGNY+dNNEaVD9j2ZVCYUXTVx+qRe5duz9WUHltf9he8mt27j3xMmQMh/naMQzsdGoLGQrRu8HEn87k2hLi0TCULZrFYoH9B/ZTLJW4ceNG031W3n6blZUVxsYSjCY61Zfrn2bV33wF72ciXVFprJi2O4KlUaGndtqqpvVwXZhv+l7wvuOpSouBA87Jhu5peC6mpVGp6s2dgR1qaUg7GaxKK4WXyXRZYiHEsMnlcsFNXjlGvtx+35GREeLxUcYSwYO2fDbUouktoHEilbCuaY02WqRt0rMidNCghTFyx+ixoEHNGSil0G4XralNKYJGzVDkXNB1D9V6OZaH62oMI9nmmL3l13juPTKSJD0HV5pZxC4ZWPzpSK4tIR4VQ9miuba2RmJ0jA8cOsT4xCQ/fO01fN9n6vHHOTE7C5UK1gcOHeKtlRXW7661z7By45QOxSmlFLh174cf3ysbx6g8aWt3L1LdPRV6wh9OqwzslBGMJapN3hMOmAZO9Y7OmEMZdZ3DXBPTASftt5zQx7BtlOOy4NnYyeTWnvwJIXZNPpfl0NvRMeeLi4sN+zXblstnN3/IeHjhHgyRXhWhHhA9S2IYHl6GWgcJzzGJOZW36+Is2sVBkTYAQ6GsIE4ZfXSuULaDYWo0ClXrNhs6WBfH2uwFYuCk/WDfVrrIr+25t8u6Vg5CE7kpUilFzIoR29LvSIj+DCz+dCLXlhCPjKFs0Xxsz158v8zKygpT+/byW88/T/LoUVbv3OH1xUVu3rzJswcPUiyVKBaLJHqYobY3Bm0feHejMqHGSeZrrZbd3mNpK4bp2fh+j7PGZjKRgfOZTIvxnEKIoZLL5bn85AzegSNceOIIALOzs5FXs22zs7Pkcm3Gqht2ZWKxQdxgReNiZFIy28MM9QTRWmOouUrMUyjloRf6fBJWeRCnNbVus+FGjm6OVR2/lVIeTofmjW7ya3fu7UTGkYW716jUZi+VhslThNhe2xZ/6si1JcSjYygrmmOJUUq+Ty7XvivG6uoqa/fWGI3H22eoFCrSbSLoNlX//slwn9XKE7e5Wv1ss7uYt6AbGg0jXbrckzjVm6CMh2c4zFdqis3SNuW5uDp4CtfkTbxwUS0LbVTKqmwcQueqXZx+u9AJIXZUPpcPlgwoBzM79iJyo6cUytP0VadriJch2sXxkrR8bhXpWhtUCj3HjMz06Dlun5NwGMwpA611k26zvR1LpVIobbWZebKPsrftVtwbw04HDwXallGIwRpY/GlLri0hHiVD2XV29c4q73//+zlwYD833n2P23/3I/L5PKVymaeefprE2Bg/Pn+eickJDj57kPfevUG5XGZkpFW9OdxtAsDAccITQQRdKaxYqKsGipRfmc3QsJl3NKYZwwEMpRpaJRWaWMyK5KcgqPi5JmYl42Zpm8p4eJXpuCPHqUzusXAyhlkNuoZDujZDrYE972Ca4YmCbJkGSIgHQD6fw7jVX9e1fCH8YE5hOy6maULP6+gqbMfAtEzccNraWHG/datoeNIyHXRzTTWbNK3PSYGMOYXhuJzMgDMfac7s8ViVc3RdPNUkPvZT9siEbX3wXEw3SToVHVqx5V41QnRpcPGnDbm2hHikDGVFc+++vdy7d4+19TVOHD/OzMwMGxv3uXTpMtevX2cskeBjx45x6coS7713E6BDRZNKt4noJtuO7ECqfocQw07j203fwU63Tld9v2lSFClf1e1bmRLSaCxvd3lS6SbX8l0hxJAqlkqc23ek9vPxu0u17mpV1Vkf67366quRnw07jT/n1h6Q1bY76UhFMTKmqfrQqmlao+lY8chYqtANpNYaVH1X3aCnhxUa/N70+A1nV31/DmU4ODjMh8dednms6Oczj6NNTCsZ7WLXVX6q7bnX8mk4t7nG7Rg46TS2YTNvmKEHljTO/CvENhpk/GlFri0hHi0x329Tu9ol11dW+Ou/Pst7N9/jxPHjJJNJbt68yblz50LLm3yKS1eWePudG3z8ox/hucMf3O1iCyEeUufPn+877czMDFNTU7z8ze/wJ1/6o6b7fPd7p/n6V77MSy+91PdxAE6dOrWl9EKIh1PxE59g9Ec/aruPxJ/t0c1nL8TDaihbNJ89eJAv/MHvk7l4kXg8TqlYoFjY7P+/Z89jlMs+M899kBMf/yjj49s1GZAQQuwcuVETQuwWiT9CiEEbyoomBGs0maG5rp988kmOHj26iyUSQgixvXTT9YurY9OFEEII8eAY2oqmEEKIR037sfJCCCGEeHBIRVMIIYQQ4iFX/MQndrsIQohHjFQ0hRBiSJw5c6b/xD68+NkXB1cYIcRDo5vJaCT+CCEGrc16IEIIIXba9PR0x9crr/xVw7/EOucthBDtSPwRQgzS0LZoZrNZ3rt1i9u3b7N69y4TExPE43HiI3Gy2Q327NnLnr17mN6/n/dNTu52cYUQYstKxSJnz57tuN+xY0c5e/Zs5N9SsbgDJRRCPKwk/gghBm0oK5q/fPMqV5aWuH1nlfGJCSbGxymVyoyNjZFIJBifnMTHZ319nWtXr3Lw6Wd47rnDu11sIYTYknyhwOUXgkXFSz5Mv7XMtYMzFEpQLMfI+z7GzWXOTR0hX45RKEHB9yn6cKpwYZdLL4R4kEn8EUIM2lB2nf2pl+GtlbfpNPdgLBbjwPQ0v3jz6mALoC1ipos32FyFEKKtfKEABDd5xXKwrViCgg/5MuRLQf+0QgmKJZ9iGYo+lMoxCvlCJC9txTDdahTzcM0YsZiJWx/YIvGu2/2q2bqYsRix2qs+XTW/8Ktx+RJt1e3TRfxtn0ZjNTsHz8VsONf6PHrYXjuXVmnaaUxj1X8w1X0a32iRR/iz7e6zF6JqUPGn4dqsviLf49bf7fbXdpCu5bXS8vuusZpea4O4DqN5b+7Xb5mEeHgMZUUzPjLC+Nh41/tPTk5sY2mEEGIwvv3tbzd9VeVyOZ64tsz0W8s8s7IMwOEby3zo3WWMW0t85M4SAM+vLfHJ+0t8OnuF380u8bn8FbL5XMfjK5XEOdm5EtfVftoiZmpU2sf3K6+0Qje5CVSp0D4psJrcVBlOurZPKulgdnHX1U+ahnMNly1tY/Sy3U+hWuTVXXkMnOrnl3bIWHWVY28BjYGhdWMF0XMxYyaeHS6PQtdVcNuVV4iwQcWfze9cClVZsii49kPfvnbfbfq/tpt/34P1eam9l8ZwwxW+LVyH2iIWydvHVzr0kK/fMgnxcBjKrrNLV65w4sRx8oUC6/c3Wu7nl8sUCkWWl5eZPf7xHSyhEEL0x7btyM+u60Z+fufgDAU/aCk4/M4y3/r8ZyLvLy4uMjs7S7lcxvfLlMo+Y4kEr5w+3fngysZxTU66c6RtYwv7aSxLo1I+kbcNm3TKI2ZZ6FaVGpXCT7uYZut9koZBr11K+kmznZRS9HTXaNjYysFd8LCN4EP1FjSoeeykidagah+Wh3vSIZnySUU+QEUqPZjyi0fTtsafkNbf7UZbvra9DBnDYb52DAM7nWq+b0/X4WYcTEWfOBFchm0K3UuZhHiADWWL5kZ2gwsXfsLlS5d49pmnOPrrv8YzTz3FaHyE3MYGlEo8MTXF2r110pmL5PL53S6yEEJ0bXV1tfYKy+VywU1eOUa+3D6PkZER4vFRxhIJAPLZzi2aYGDPO+CYHbppddhPa7ThYDe7OVQKRYZMuxtDYw5laHTTMngsaC+oqHWtnzTbycN1NYaR3FIeCxrUnIFSCu2GWiq9BTQtPn8h+rT98aeqzXe76b5bvLaNJEnPwe2rubBNWdvFwW0tkxAPjqGsaE5NPU6xWOT2nTusrt7lscf2MDIywuVLl/nBD35AJnOR+EicjWyWYqFIYjTRRa7RvvBmpF9Eq/71VLonhboz1P8shBADks9lOfT2ModvLPGhd4Oua4uLi5FXs22Li4vk8tnuDmLYzDsG2uoQx7rdr0ESw/DwMj0lwnPM2jhPp8tKVD9p6oXHg4X/LnSzvX7M1uZ7J2Heb99q3HAyLq42UHOVNNrFQTFnEFTePc1CtRgZr81Y2ejvq115hQjbkfgD7b/bFf1e282/74pUSlXe6xDPerkOu7TlMgnxABvKimaxWGD/gf0USyVu3LjRdJ+Vt99mZWWFsbEEo4lOPYA1VszFSG/2hVe6+qS+vp98fVckIYTYGblcnstPzuAdOMKFJ44AMDs7G3k12zY7O0su133PDsOexzGCbl+D2K9JSjo35kX3CY/J8m2vqwd6/aSpFx4/Fa4YdrPdr/tjUX0vpTycrpoqPJzqZCGmRqXTta7IWmsMNVcZG6pQykO3usM1bNItxmC2K68QYTsVf7r5bvd7bbf8vqtUcC07maBhoW5iooFchwMtkxAPh6GsaK6trXHv7hofOHSI8YlJfvjaa2QuXmTq8cc5MTvLgQMH8H2fDxw6xEg8zsb9++0z1BodDiQxE8eDTMZr2vVheLpfCSEeJflcPlgyoBzM7NiLXm70ql1jDW111YW2YT+lUK26fWkXx0uSbNeYF24laKab7rdt07RoVa1vCdwmKpVCdfxsITIJiZ8OjXcNuhVvtuoEkyd5jhvcbPfZsiJEOzsTfzp8t5vpJx60YNjp4IFM5Prc3euweZmEeDgMZUXzsT178f0yKysrTO3by289/zzJo0dZvXOH1xcXuXnzJs8ePEixVKJYLJLoZoZaw6k88W3+lFoIIXZbPp/DuLXMh28vcfxuMMNjt13X8oVexkix2TW2+UDJDvspbMdAN8zO6GJaOqhotcpPW8SsDM785kyujftoNB0qq23TGMyp+m6/QcvsZuvEdqp8Pm3HnrWhNTo8W2ettbI6rlVhO+CYTZZwEaJPOxJ/On63W6XpMR6EVeJSVBe9Lvq9DrVVNzxrgGUS4gEzlBXNscQoJd8nl2sfuFZXV1m7t8ZoPN4+wyZP32s3IA3vBZM4RG0+SfMW9DBNbCiEeECFlzWpKpZKnNt3pPaC7ruulYo9NkFQ7Rrb336Gna4tZ7K53l2w3El9D83IGCXXIB1pNQiEWw2C0Qydl+Jol8aw06RUePy9RcZJb/kBY3SNv9YVPcOex6G/JVd0ZWrLuo65KEWtwt/0849ZZBw7kq7b8gqxE/Gnm+82dI4Hke91aEmfpt93w2becCPXCanGGNRPWQ07jZ9KhnrMxYhpFYkzgyyTEA+amO/7/m4Xot6f/4//E+9///uJJ0ZJjCZIJBLk83nW19fY2NjgwIEDTE5OMjY+Ti6X5713b/CHf/CvGBlpU2/2XEzTqQWjyHTU2gr1jTdwnCSONkhX1k7zXBPTCVIalSnrbVmPTIhHxvnz5/tOOzMzw9TUFC9/8zuUc3ewbbu2pMmf/umf8u1vf5uR8cf5+le+zEsvvbSlcp46dWpL6YUQjy6JP0KIQRvKdTT37tvLvXv3WFtf48Tx48zMzLCxcZ9Lly5z/fp1xhIJPnbsGJeuLPHeezcBKJfL7Suahk3at5u/p1LUV7fDS90ZdppWSYUQohf162aGyY2aEGK3SPwRQgzaUHad/b3PfZaJiYnaz+Pj45RKZW7dusX169dZX1+vvRePj/LbL7zA6OhQ1pmFECLCtuWpVffqlp4KTcjx4HgYzkEIIYTo3VDWzp49eJAv/MHvk7l4kXg8TqlYoFjYnNFsz57HKJd9Zp77ICc+/lHGx7uYDEgIIYZEtcus6CSYiOPB9jCcgxBCCNG7oaxoAoyMjGAam6Oin3zySY4ePbqLJRJCiMH50z/9090ughBCCCHEthnaiqYQQjxqzpw5039iH1787IuDK4wQ4pEi8UcIMWhDOUZTCCEeVdPT0x1fr7zyVw3/EtvtkgshHnQSf4QQgyQtmkIIMSRKxSJnz57tuN+xY0c5e/Zs5N9SsbgDJRRCPKwk/gghBk0qmkIIMSTyhQKXX7AAKPkw/dYy1w7OUChBsRwj7/sYN5c5N3WEfDlGoQQF36fow6nChV0uvRDiQSbxRwgxaEPbdTabzXLt+nV+6nn88Ec/4scXLnDhH/6Bf0h7nPvxj8n87BJvvvUW9zc2druoQggxEPlCAQhu8orlYFuxBAUf8mXIl4L+aYUSFEs+xTIUfSiVYxTyhUhe2ophul7lJw/XjBGLmdQ2be5IzHTxetqvmq2LGVm2oz5dNb/wy6J+ZQ9t1e1Tf5wm2qfRWM3OwXMxG861Po8ettfOpVWadhrTNC55Utmn5Voo9XmEP9vuPvv6vFqWYUuftXgQDCr+NFyb1Zel6eZaicauqnbf9W722er1G12mSJYnEqI7Q1nR/OWbV/nh3/2IHy2e4+e/vMr9+1nW1++TzebIFwqMT07i47O+vs5P/v7v+fnPf7HbRRZCiC3L5XI8cW2Z6beWeWZlGYDDN5b50LvLGLeW+MmwSh4AACAASURBVMidJQCeX1vik/eX+HT2Cr+bXeJz+Stk87mO+SuVxDnZ+ea/q/20RczUqLSP71deaYVuUllRqdA+KbCa3KgZTrq2TyrpYHZxJ9dPmoZzDZctbWP0st1PoVrk1V15DJzq55d2yFh1FTZvAY2BoXXjTbXnYsZMPDtcHoWuu0FuV95e9H5u4kEzqPiz+V1JoSrL+wTXvmqyTxffp26+6wO4HlqXSWPFLKi9n8Zw2z20EUJUDWXX2Z96GW7eusXk5GTb/WKxGAemp/nFm1d57rnDO1Q6IYTYPu8cnKHgBy0Fh99Z5luf/0zk/cXFRWZnZymXy/h+mVLZZyyR4JXTpztnrmwc1+SkO0faNrawn8ayNCrlE3nbsEmnPGKWhW5VqVEp/LSLabbeJ2kY9NoU1k+a7aSUoqc7UcPGVg7ugoddWdrLW9Cg5rGTJlqDqn1YHu5Jh2TKJxX5ABWp9GDK307P5yYeGNsaf1po/33q5rs++OshUiYvQ8ZwmK/lbWCnU/1lLMQjZihbNOMjI4yPjXe9/+TkxDaWRgghdkYulwtu8sox8uX2+46MjBCPjzKWSACQz3Zu0QQDe94Bx+zQ9avDflqjDQe7WS1RKRQZMu0qfcYcytDopmXwWNBecKPXtX7SbCcP19UYRnJLeSxoUHMGSim0G269WUDT4vPfdoM4NzGMtj/+NNPh+9TNd33g10NdmYwkSc/BlYcrQvRsKFs0l65c4cSJ4+QLBdbvtx6D6ZfLFApFlpeXmT3+8R0soRBCDF4+l+XQ28uRbYuLiw37NduWy2e7O4hhM+9ozHatjr3s1yCJYXh4GaBNo2k9zzGJOdVjO6S7OGA/aeppK1ZbmcFw0qTt7rejUpHugJvvBV1i0z2cP56Lqw1UtYlYuzioIA9DoSyXBc/GMICMhxf+cD0X03QqFVFFKvT7alfeXmzp3MQDYUfiT0XX36duvusDuh5al0mRSiliVoxYXX5CiPaGskVzI7vBhQs/4fKlSzz7zFMc/fVf45mnnmI0PkJuYwNKJZ6YmmLt3jrpzEVy+fxuF1kIIbYsl8tz+ckZvANHuPDEEQBmZ2cjr2bbZmdnyeW6j4OGPY9jBN1fB7Ffk5R0bvCK7hMeb+nbHmbbiWv6T1MvPC4r3E24m+31lbbqeynl4XTV/OHhVCchMTUqna51RdZaY6i5yu2zQikPvdCimdiwSbcYg9muvL3o/dzEg2an4g9s4fvU5rvezT59X78qFcQCJxNMCiRjlIXoylBWNKemHqdYLHL7zh1WV+/y2GN7GBkZ4fKly/zgBz8gk7lIfCTORjZLsVAkMZroItfojGHBjGbBTGOR2c0iMytG00RmMPPc6E1N/c9Nj1eZnU9vztRo6coxI/tVszS7nC1QCPEwyOfywZIB5WBmx170dqMXdI01tNVVF9qG/ZRCtepKpl0cL0myXYtXpbVurtU+3XS/bZsm1KoalvF2ZBinSqVQHT9biEwG5KdD412DbsWeY0ZmufQcN/g7oBTK07Sqd26nxnPb3c9aDM7OxZ9NHa+Vbr7rA74e2pXJsNNBBbar61sIMZQVzWKxwP4D+ymWSty4caPpPitvv83KygpjYwlGE516AGusmIsR+oOutImlDWxb4emF2h9ErTXKtjEqs4xlwk/MU2B1VeFrTLv5RNzDcWG+8jRNWzFiWtVmHaR6I+G5nHSSm7O1SVcNIR56+XwO49YyH769xPG7wQyPi4uLkVezbYuLi+QLPY6RMmzmHQPdfKBkh/0UtmOgG2ZJdTEtHdyotcpPW8SsDM683bpnrdZoOlRW26YxmFMG2qp7+GeFWwm3U+Xzcftc3kNrdHi2ztrfgOq4VoXtgGM2WVZk29Wf225/1mJQdjT+1HS6Vrr5rg/6eqgrUyWuRXXTa0MIMZQVzbW1Ne7dXeMDhw4xPjHJD197jczFi0w9/jgnZmc5cOAAvu/zgUOHGInH2bh/v32GWqPDXZRiJo4HmYxX9yRMo7UKZvarTHYxH55SUdk4LSewqDtefdoaY/MGSykUBk51BLuRJFl9Im8kSbZan0wI8VAqlkqc23ek9oLuu66Vij02QVDtGtvffoadri1nsrn2XLDcSX0Pzci6eq5BOtJ6Fwi33gUrCXR+uNYujWGnSalwz5Lg4V/b2Xa7EF0jsHV8Nux5HPpbBkRXppit69iHUtQq/E0//5hFxrEj6botb9P9W6yDWX9u2/VZi5210/GnqtO10s13fdDXQ6RMhs284UbyJdUYw4QQjWK+7/u7XYh6f/G9f0siHmdtfY0Tx4+TTCa5efMm586d44033uDIkSP8zqc+xaUrS7x1/TrFYpEv/P7nW2eoreDmJt38CbrnmpxknnlOYnp20G+/aRoP1zwJ82lsXEzTw67e2Hihn1ser9qyWg1QnX6uHtPE8QyctAQ2IXbD+fPn+047MzPD1NQUL3/zO5Rzd7Btm9XV1dr73/72txkZf5yvf+XLvPTSS1sq56lTp7aUXgjx6JL4I4QYtKGcdXYsMUqxVCaXa98VY3V1lbV7a+zZ81j7DJVCWRautmtP2rVlQaV7lzGn4KSLCzjVhZIqaSLryIVnAfSAWutjsN6ZR7LF8TSum8S2e/gQPBc3Y2MrAzudBtPseRZHIcSDRW7UhBC7ReKPEGLQhrLr7OqdVR7ft4+ZI0e48e57vPZ3P+IffpqmVC7z1NNPkxgb48fnzzMxOcHBZw+Sy2Upl9st+qRIpR0yoS4TWoW6ZRk2djIYE7M5OUUwhXWyvmtWtZXSsAmWmQveO+klQ3XA+uNpkr02RRo2SR3q6ptMNXRHE0KIh1v9hGyhSdQeGMN2DsNWHiGEEA+roWzR3LtvL/fu3at1nZ2ZmWFj4z6XLl3m+vXrjCUSfOzYMS5dWeK9924CUC6XGRlpU282bNJ++ybFxokLgskYWmeZpmWWTY+nSPmq659Vymfo+jULIcSOaR+DHwzDdg7DVh4hhBAPq6Fs0fy9z32WiYmJ2s/j4+OUSmVu3brF9evXWV9fr70Xj4/y2y+8wOjoFurMnourFbYMgBRCCCGEEEKILRvKFs1nDx7kC3/w+2QuXiQej1MqFigWNtdo2rPnMcpln5nnPsiJj3+U8fHxvo+lraDLkEr5snyIEGJXnTlzpv/EPrz42RcHVxghxCNF4o8QYtCGsqIJMDIygmlstjA++eSTHD16dODHke6pQohhMj093XGfP//zv+DP/uyPI/9+8YttZt4WQoguSPwRQgzS0FY0hRDiUVMqFjl79mzH/Y4dO8rZs2cj/5aKxR0ooRDiYSXxRwgxaFLRFEKIIZEvFLj8ggVAyYfpt5a5dnCGQgmK5Rh538e4ucy5qSPkyzEKJSj4PkUfThUu7HLphRAPMok/QohBG8rJgIQQ4lGULxSA4CavWFmxqViCgg/5MuRLMYDgxq/kUyxD0YdSOUYhX4jkpa0YputVfvJwzWCppNqmzR2JmW6wNHDX+1WzdTEjy2TUp6vmF35Z1K+koa26feqP00T7NBqr2Tl4LmbDudbn0cP22rm0StNOY5qGJUY6fr7d7hccq/slTKJLoFTTNXzmtaW/whlXzqvuYJ3TNj+m2DmDiz/dXH/V/Zr9znfyWuucXziWaqvxux2cmllL1yz2NibpJjbW7xN+v1N6uZ7EcJCKphBCDIlcLscT15aZfmuZZ1aWATh8Y5kPvbuMcWuJj9xZAuD5tSU+eX+JT2ev8LvZJT6Xv0I2n+uYv1JJnJOdK3Fd7actYqZGpX18v/JKK3STmyqVCu2TAqvJjY/hpGv7pJIOZhd3Rv2kaTjXcNmq6yR3u91PRSaRC7/XXXkMnOrnl3bIWKGb824/3x5+D93RWDELaueSxnCDG9jN80uhKsukBL/T0KfgLaAxMLSO3DS3T9v6mGLnbHf8ier8O9+xa62H/JRSUPfdBo8F7aFsm17XLmh5jp6LGTPx7PD7Cl1XCW6eXq4nMTyGtutstvgmN4qvsJr7f7mz8RMmJiaIx+PE43E2NjbYO/ab7E38I6bj/xXvSxze7eIKIcRAvHNwhoIftBQcfmeZb33+M5H3FxcXmZ2dpVwu4/tlSmWfsUSCV06f7py5snFck5PuHOl2yzl13E9jWRqV8om8bdikUx4xy0LX3Rhu5p3CT7uYZut9koZBx9rwANJsp+CGtIcEho2tHNwFD9vIdPn5buH30IqXIWM4zNcSGdjpVPfJFzSoeeykidagujn4Fo8pBmdb40/YAH/nW7vWesxPKRRW9LvtLaA9hT2wpQs83JMOyZRPKpKnIpXuJrlcT2J4DGWL5i9vneZvrx3l9YzDz6//R+7fv8/6+jrZbJZ8Ps/k5CT+2DJr8f+V87c+xhu3vr3bRRZCiC3L5XLBTV45Rr7cft+RkRHi8VHGEgkA8tluWhQM7HkHHLNDa1eH/bRGG07zGyulUGTItKv0GXMoQ6OblqHSOtBVDWUrabaTh+tqDCPZX/JuP9+t/h6aMZIkPQe3r+YPjwUNas5AKYV2O7eeb/2YYlC2P/6EDOx3vsVrref8FEGjZqgT64LGU2pwS+R5C2haXNfdkOtJDJGhrGj+dOW/Y+Xq/Y77xWIxpqen+cX6v26/Y6ULQtOxLY071/q9D1Wf9p7OYbu1GH8hhNiSfC7LobeXOXxjiQ+9G3RdW1xcjLyabVtcXCSXz3Z3EMNm3jHQVoeuVN3u1yCJYXh4mZ4S4TlmbXyh0+VNVj9p6oXHDpqhoNbN9tbjEE/CvN++1bjhZFxcbaDmOqXp9vPt7/cAilRKVc6lx9+9dnFQzBkEFV1Ps9DV34ktHFMMzI7En5rOv/OdvNZ6yU/ZTqhr+NYecjU9x4zXZix89LNq/hnJ9SSGx1BWNEfG1hkb737/ycnJgR3bc0/iJFNBP/1heTguhHgk5HJ5Lj85g3fgCBeeOALA7Oxs5NVs2+zsLLlcvuvjGPY8jhF0uxzEfk1S0rmBIbpPeLylb3uYXdwg9ZOmXniMU/jmspvtft0fiep7KeXhdNWc4OFUJ/QwNSqdbtqVr1E3n28v+9VRwd/AtJMJJhTp8vevtcZQc5VxagqlPHR3Nc2+jykGZ6fiT02H3/lOXms95RfukVHpNttvZ4p257h5PJt0k3GqbdPL9SSGxLZUNH3f72l7vWWvwOGZp3nm2f2MjY213K9cLpPL5Xjjyo32GRo2ab+7P+AZzxtgF4ytqJuprIdzEEI8mPK5fLBkQDmY2bEXvd3oBV1jDW111YW2YT+lUK26ZmkXx0uSbBerwi1fzfTT7TOSpkVrXn1LwTZRqRSq42cLkQlKwvG92893q7+HTqWz08HNbVfnEtx4b7YyB3+/PMftcfhcL8cUgzS4+NPb9beV3/mWr7W+8jOYUwZa68F3m4UeewO0J9eT2G0Dr2iePn2ar371qxTrFu8tFot89atf5fvf/37HPLIb8JNz73DZu8XBgwdJ/uo/5emnnyYej5PNZimXy+wf/yRra2tkfvoLchuDPgshhNh5+XwO49YyH769xPG7wQyP3XZdyxd6HSNV6RrbfKBkh/0UtmOg62ZuxHMxLR3crLXKT1vErAzOfJsZGrVG02MlKZKmciNo1U33b4Vb3LZT5fPpdoxiq/QdP98t/B5aqaSN6qJlVGt0eDbZWgtMq7G4AzimGKjBxZ8urr+B/c63eq31l58xpzC0y0kNzuBmAQqVARyzzyFKcj2JITLQimapVOJnP/sZr7/+Ol/72tdqlc1iscjXvvY1Xn/9dS5evEip1P5R2b4noFiA1ZuwurrKY/wTRkZGuPKzt/lPZ25xMf0mI+wlm81SLECidaNnwHNDXaoq4wtdq2H8jbaqT2DNUL/26FpEzdYxsnRlH9PFq+avN/vUW5rg5qrJeJ/69c+C2BDk4XiV/vemixc5h07lan2OrT8is01ezccqsWA1GRvQLs0gPhshdt7MzEzfr14USyXO7TtSe0H3XddKxR6bIKh2je1vP8NO15bR2Fx/Llhmo74HWGQckWs07Z0RbgkLZubvXElql8aw06RUOBZZZJx0b2O5moiuB9n6RtCw53Hob8mVIH13n2/fv4dWaw8aNvOGG/l7QKpzbxpdmYazroNjw8QpLU62r2OKwRpk/Ol4/XXxO9+pa62v/Iw5lOHhteuZEdLq2mt1jk2v65hFxrEj11jT9HI9iSES87vtz9qlQqHA17/+dV5//XVOnDiBbdu4rlv7+Rvf+Aajo+1XVfk3/2eM/U/C1SWYMeBTH/5L3i1/l/9v8Wf8/GKw7b8wPvD/s3fvUXZU94Hvv9V6gLGhETRYAhwUJItwdjHXKATaJgaCQ4QtyCQzvavxSoLtzMrN2LEj33XHsxxrSFUFK3biZEAGx5Ob6wvO4y537b537hhrjGO3jZGx25jYSVx1AKnbT8mAsIQEsujzqrp/1Dmnz/vR3ZJap3+ftWp1d51du3YdqavPr/Zv783+p38MQBzD26/vcBmRj21HuJXp4C0Ho4M0nz3ysWvy9Y1j4avKzTAtW3dzNE7NB5oI37bxIl3zAadcv/IIQxdlnDQIqztfpS0RvjPJWFB+st+i7sgtf1hocQ3t29X5Gju/P7VanKf2GlvWb3AsH1U9V+11LNV7I8SpdezYsUUdPzw8zD0f3U2cO4rrunX13XfffQyddT53f3AHO3fuXNR5du3atajjhRArl9x/hBBLbcnX0VyzZg0f/vCHqz2YjuNw/PjxnoNMgJ8dg9Wr4bJNcNarVrE3+x6SBIYvGOK6X1lbTcu59Ocu5NmDh/nZy/22Us2nOpQHdbdUnjq+LsjSLp6qXx+sOT1JzaeFlccNqer5MmQw6TgipXADlfYmepXnWz2EUT21q8drrLbJS3tRa4PRVuepvcZW9RuDIcLYFl5t6epgq5P83ghxBpMPakKI00XuP0KIpXZSJgNavXo1H/7wh7n++uv7DjIBzjkXkgSe+xGcd955vDnzV1x11S9w7EjME1+Z48gLOS49b4xSqdRb6uySW6Jc93Jq6DgTafAceoscO7TQdlXG1UzAeOcUld6a4ZVnSGs9a2NPlvy9EUKceRqHCJyJafTL9RqWa7uEWCj5Py3EcnPSljepBJvvete7uOeee3oOMgHWnp2mw+a6LMt07Ngxjr8Eq9cssrHtlGf0G6+NurrNltiPbESkPCbKQVg0aXobzL7U7Yr88qyFCjcM8SqzxTXNaGjwu0WgLWZB7H8dPhb+3gghBkjj5DKVJQhOd7v6sVyvYbm2S4iFkv/TQiw3J3UdzdWrV3PXXXexZk1/keCxwzB8AVxxFfz00It87ak/IPzXp4lLcPGlsPYsePKZ+zn77LNZ/7ohcnPpUidLLx17mWmccCLsMFtiX9W76YDzct3jUaam3sqsba0mbVjidimXjJkfTO5lgvKNWROEHtnqYHNDpmvPZOMxFkYvYFxlx/dGCCGEEEIIsZwt+WRAS+GvP/tzJGt+zImX4do3r+P1G+7kBNM8ve+7PPujIiMbYFS9n2d+8hA/+fFRcnPw2zcU+uo1FUKIXp2qyYD27Nmz8JMksP327YtqpxBi5ZL7jxBiqZ3UHs2FuuNNk5y9+nXVn8/iaorxK7z40yLP/hBO1Ez+s8oa5qarAgkyhRADYWRkpOv24IOfafqKdbpbLoQ408n9RwixlJZldHbJyHXc9ZYf8NQPJrDO+golXqCQW1V9/TWrrqMUD3HFa/6S0Wt+k7PWrDuNrT2TlJcXadirAxnDIMRyUCoWmZqa6lpu69armJqaqvtaKq9bLIQQCyH3HyHEUluWgSbA0NAQ6oq3A28H4KJX/TH2m4A31RQ673S07EyWDpQXQixP+UKBfTc6AJQSGDk4y4ENmyiUoBhb5JMEdXiWJ4Y3k48tCiUoJAnFBHYVvnOaWy+EOJPJ/UcIsdSWZeqsEEKsRPlCAUg/5BXL85sVS1BIIB9DvpTmpxVKUCwlFGMoJlCKLQr5Ql1dxrGwq7NER/h2m6WLjFMz4Viv5SrV+tUJuyqTidUfV6mvdmvOqjBOQ5mmCdDaaVjOoLqOQYfrqD2u6bplSQSxci3V/cc4tb+L8yLfrv7Otb4/Nd8nWtVVW0/rffX3BfldFuL0kUBTCCGWiVwux7oDs4wcnGX9s7MAbDw0y5YXZlFHZrjm6AwANxyf4eYTM9w6t5+3zc1wR34/c/lc1/q1zuCNdw/ieipnHCzboMOapQRCjbGbP9jpoKZMAE6LD3/KC+eXI8h42N0+HRoHy3Kgtm5taj68glJgJpuvIvL9FksuKbzKtYQeWWeR6wkLcYZZqvuP1hqMafgdi5g0EdptPzt+3X0iSWer11pDNltzL0rrITLU/mpnowilx1DlIULz94UQ5S9giTUhxJJYvW/fvtPdBiGEWLa2bNlySs/3/IZNFJK0p2Dj87Pce+e2utenp6cZHR0ljmOSJKYUJ6xds4YHH3qoe+XaxfNtxv0xwk5LFXUtZ3Acgw4S6l5WLmEQYTkOJmmzrJEOSEIf225fJqMUXaLc6vnrxpfrgBCoHJzRmqznY9za80RMGvA8jdfu06dycbWHPxnhKllYSawcS3L/0RqNgzGgK7940SQm0rj9zgeRUajIMBm5pL+KWaJIo7VJ1/tWABHZrEK7CqJJsspjonoehRsG/b8RQoglIT2aQgixTORyufRDXmyR77I08NDQEKtWrWZteZ3i/Fz3Hk1QuBMeeHaXdLIu5YzBKK/1h0at0WTJdgoU1RhaGUzLNpR7PnSHT6Sdzl8r4+Jqg1/bNWl8PDRjmS7HCrHCLN39R5N2as7/gkeThkjr/tfUVmNoFaVBJaS/+1rjKjVffzSJiTJkFKAyZCIPX7owhVgWlu1kQEth//79Cz84gddvef3SNUYIIbrI5+a47LnZun3T09NN5Vrty+XnejuJcpnwDHanXsd+yjXJoCofDPvoDIw8G8urnNsjXKKZsLXWOE6lVzPC9w3aDVA4HRrj45tyD4kQK8RS3n+066Fsg0Gjq2mznX+pjWPNr5KiA5JAA4oxrfDK3aPGGLQOUJksyqQptSob1QSxmiDQWI6FhSbo694lhFhqAx1oQromVDcf+9gDfOAD7637+q533XkKWieEEPNyuTz7LtpEodyjcM2LM4yOjtaVqaSuNdq7d2/P51HuBJ6xcRxD0uFTWK/lWhyJ6tpjWF9GeeF8mm55/OWSfEjULp6y8f0InfHxKAexTT0eEZ5t4ZXb5oUhEmeKlWRJ7z9qDK28NH0201vabLul1tSYLgeVaYqsypTrZ5zJyCVrDEq5tRWRJOkEQbZl1QStQohTbaADzVO1JtTMA9vZwW72vHfzYporhFjh8rl8ecmAdGbHfuRy+T5Kp6mxxnZwOoZybcppjXYcfOM2fzA0Pl6UIegUpJXTV8O2s4JoNH6aftuqjNZox68Zt9WJwnU1nj+JnzEo3W4yEgkuxcq2tPef+Z7ISBki7S78oZHKkIkM2QgMmgmV1p/JRJhsBNnW2QfKDUncdHIgx8h64UKcDmdMoJkkCZZldS9Y46SsCfXIDq7c8UiLF7Zz5f31e27b/Qy7b+uryUKIFSyfz6GOLCx1LV/oZYxmjUpqrGfoGK21LKdxPYXt2Pi1wVnkY5cn6Wn7mc44WE4WLwzaZ9YagyGDbltA43o+tm1D7fmNg511Cd3G4mlg7EWaoGMELMTKtdT3HzWmUZ7PeBa8icVEeRqtHYwP1Dwo0lrjpDvr70F+hrAuquwlw0IIcTKcEYHmvn37OHr0KNdeey1DQ73PX9RpTahCDPm4Zk2oOKEYWxRpvSZd1W27eeaZ+l3SoymEWArFUoknzpu/j1z3Uu+paw8//HDf56ukxnoLKKfckGTMx66mm0JliZDGzoW6sVfKI0yag8y6MZo9jK1SbkiScbBqz68DkkDRPGVtGhibaAGTkQixQiz5/aecPuvhlXshO6u7TzRkGKRjrdPxmVXlB0hGa6p7lcuEstOljyrFGmfHFkKcMtYzzzyTnO5GdJIkCd/61rc4dOgQF198cV/B5uNf/zr/evaGBZ3338w9yw1velOLV2Z4YPt27p/pUsHm97Fnz3uR0FOIM9uWLVs4duzYouoYHh7mno/uJs4dxXXduvruu+8+hs46n7s/uIOdO3cu6jy7du1a1PFCiJVL7j9CiKW27Hs0Lcvi2muv5cknn+TQoUM8+eSTfQWbS78m3Wbeu+cZ3luzR3o0hRBLQT6oCSFOF7n/CCGW2rIPNCFdr2khwWbdmlBJ547btK4hVq1Kf263Jt0jO66k5RDNFmM0uW03z8ggTSGEWKB0Io/GCWLbzU4phBBCiOXjjAg0IQ0Et27dytTUFIcOHWJ2dpbXv77zOpcnY02623Y/Q+0QzZkHtnP/5vfB/TO8r5wqO/PAdrZ//q3skSBTCCEWQRN0eUgohBBCiOXpjAk04zjm29/+NoVCgYsvvphNmzZ1PeZkr0n3yI4ruf/1e9hz22ZgB1deeSUAm9+3h2f2SBqtEEIIIYQQYmU6IwLNOI6rabP9TAh00takm3mA7dvvh82b2fzWckB5226e2b2DK3fM8NbbJMgUQvRvz549Cz84ge23b1+6xgghhBBCLMKyDzSTJFlQkAknZ026R3ZcyY6Z97HnmWfgge3cX9n3yGbet2cPzzwzwwPbr+TKGWSMphCibyMjI13LfOxjD/CBD7y37uu73nXnKWidEEIIIURvln2gaVkW559/PkDf62iejDXpasdoPrJ/hkfuvxJ2P8MzuyslmmelFUKIXpSKRaamprqW27r1Kqampuq+lorFU9BCIYQQQojeLPtAE9J17JIkwbKs7oUb3Pz4/1X3887vPtZUZiELnUPzxEBCCLEY+UKBfTemC42XEhg5OMuBDZsolOZnz1aHZ3lieDP52CoPDUgoJrCr8J3T3HohhBBCiHm9dw+eZgsJ6BAtDgAAIABJREFUMt/xjncsahNCiFMpXygAaZBZjNN9xfI483wM+VJ6HyyUoFhKKMbpGsGl2KKQL9TVZRwL24/KP0X4toVl2VR3zRfEsn2ivspVqvWxLQurujUeV6mvdmtersQ4DWUaz9OWwak9zqnU3OE6ao9ruu75zWlsZJ0W11XX5m7XXd/u+XO1P67pPWq6ZiGEEGJ5OWMCTSGEGHS5XI51B2YZOTjL+mfT8eUbD82y5YVZ1JEZrjk6A8ANx2e4+cQMt87t521zM9yR389cvvW48lpaZ/DGuwdxPZUzDpZt0GFCkpS3UGPs5iBNBzVlAnBaBHLKC6tlgoyH3S2AMg6W5UBt3drUBNegFJjJ5quIfL8p2AWFV7mW0CPrtAtSW19XqzbXXXcSkC79ma4NOt/uEOXXB9+tjpvfF6DLy76k76csKCqEEGJ5OiNSZ4UQYqV4fsMmCknaU7nx+VnuvXNb3euVceVxHJMkMaU4Ye2aNTz40EPdK9cunm8z7o8RumoR5QyOY9BBQt3LyiUMIizHwVQDq8a6A5LQx7bbl8koRZcot3r+ujhLB4RA5eCM1mQ9H+PWnidi0oDnabx2saxycbWHPxnhqg7vU+2ptaZF9NosypJVHhPVBincMOjpHEIIIcSZRHo0hRBimcjlcmmQWV77t5OhoSFWrVrN2jVrAMjPde/RBIU74YFnd0kN7VLOGIzycFtFiVqjyZLtFCiqMbQymJZtiJg0URq4tdPp/LUyLq42+LVdk8bHQzOW6XJsXyJ836BUD5WqDJnIw5eMVyGEEANu9ZYtW053G4QQQgD53ByXPbewJZly+bneTqJcJjyD3anXsZ9yTTIoFRFlgd46AwGIPBvLq5zbI1yijFCtNY5T6dVMA0LtBiicDo3x8Y1Cd+r1pTxuMm0wXpgQqnavk/bkBhrQBIHGciwsNEGL97b1cUIIIcSZRXo0hRBimcjl8uy7aBPRhZv5zrp0aabR0dG6rdW+0dFRcrl8z+dR7gSeStNPl6JciyPp3rlXX6Z2jGbiRtgtJg1aEO3iqXKvpvHxaNcTGuFVJuKxDToM6RJnVsdNBjrCa9FFWT82Vde+QJIkhF42nRSo09hOCTKFEEKcoSTQFEKIZSKfy6dLlsTpzLL96CfQrKTGKuP0lELbVE5rdLv0T+PjRRkynYK0SvpquzLd0m+1RkeGFvP8tL4GVxOZSXxjUHqsTUdrzWRASfcgs645QYDu+l62OKMbppP7LOBYIYQQYrmTyYCEEGKZyOdzqCMLS53NF3oZo1mjkhrrmXR61r7KaVxPYTs2fm3PX+RjlyfpadsPZxwsJ4sXBu0za43BkEG3LaBxPR/btqH2/MbBzrqEbmNxjXYcvEgTBH1EkD0rvx++T6TdzhnDkY/tZwjreip76QEWQgghzizSo7kAkV87QUbDOm6Na6o1rTPXbus+lb4QYrAVSyWeOG9zdYPeU2dLxT67QKmkxi6snHLD6nIm8/e9dLmTxmzPujUgfUXYoscw8uyatSFpOXax6fxBZj7d1bKwjG4zS24aCKY9pSeHcifwqF/ipH7ty/I9XrlMKL9unUyC+vej5XFCCCHEGcZKkiQ53Y042Y4cOcJf//VfA/D7v//7XHDBBT291p7BsbO4oYuq+77F63VPryN82yZyGz+IRfj2OEz0l64lhDg1jh07tqjjh4eHueeju4lzR3Fdt66+++67j6GzzufuD+5g586dizrPrl27FnW8EEIIIcRSGfjU2SNHjvCJT3yC6667jk2bNvGFL3yBt7/97dXXv/CFL6C1ZnZ2lk984hP8wR/8Qcdg07ctvPLTZWNDGM7nOxnHJuu2DxaNY6fH1s4oiMILJxZ1jUKIwSCBohBCCCEGxUCnzh4+fJjdu3ezdetWtm3bxubNm+uCTIC3v/3tbN68mW3btrF161Z2797N4cOH29bplieLCD0FmUyPs/dn8W0rTbdVHmEyX4fyJqQXUwghWmo9NOHUTZxzus8vhBBCnLkGukdzx44dPPfcczz++OPce++91f2/8zu/wzve8Q4+/elP83d/93dNx83OzvL3f//37Ss2DraXIUg09DQBfwY3THChOmYzgvL6aAqQAThCCNFME5zW0R2n+/xCCCHEmWugA80f/ehH+Pf9Naxbz1d/eJSzn5tl7ukn+NSnPsWnPvUpAG655TZuHbuT/KvX8egPXqQ0+6889rf/tX2l5VkVARzHkAS9tCQ7n3Jb7tFUkM6+aDmg0gkqpGNTCCGEEEIIMQgGOtCcm5uDCy/BOusc4uG1/GxoDV/4rx/innvuYdu2bXzhC1/g7rvv5qbffS/W2leRnL+W5PVb0+PaML5BBx6YDKE22L4iHaVpMCbCZH3GwsZ56is9mulkQLbllfenT8t1ZTIgIcSKtmfPnoUfnMD227cvXWOEEEIIIRZhoMdoAjz8Pz7HV576MUPHDhE//c2WZb70yBd59OkDWEef55V/2duxPh2EuJnqD4SVH4zBKNWlV1JVx3gmSUISusjSaUKIWiMjI123Bx/8TNPXmhnGhBBCCCFOu4Hu0fxP/+k/8cEPfrBun+u6KKX4yU9+QiaT4T3veQ9/8icfqCvz0Y9+tI+zaILQ4FgeOgjAz5b3NZYzOJZTHdGpg4RAdwtMhRArSalYZGpqqmu5rVuvYmpqqu5rqVg8BS0UQgghhOjNQAeat99+OzfddBOlUomhoSFWr17NqlWrWLVqFZZlEccxv/7rv8727dsplUrEcczQ0BDnnXde7yeJfGzbAy8k1Fkcv/JCeS3NCcpjMesPM3VLnAAoPIQQK8V9993H+9///rp9+UKBfTc6AJQSGDk4y4ENmyiUoBhb5JMEdXiWJ4Y3k48tCiUoJAnFBHYVvnM6LkMIIYQQoqWBTp0955xzeO1rX8sll1zC+vXrGRkZYd26dZx33nmce+65DA8Pc8EFF3DRRRexfv36arlzzjmntxMYB8uOcJOE0FVABoWHbVlYloOpLH+ig/l02ZZbiCddm0KsGPfdd1/L/flCAUiDzGKc7iuWoJBAPoZ8KX08VShBsZRQjKGYQCm2KOQLdXUZx8L2KzNaR/i2hWXZ+I2TXBsHy/bLc1/3Wq5SrV++31W2xuMq9dVuTtNc3cZpKNN4nrYalh+prjvS4Tpqj2u67lZLmCy+rvlr7rcuIYQQ4sw10IHmSaNcwkCXA8gAPf9C/RjMQM+X7VwhbhjKeppCrAC+77d9LZfLse7ALCMHZ1n/7CwAGw/NsuWFWdSRGa45OgPADcdnuPnEDLfO7edtczPckd/PXD7X9dxaZ/DGuwcxPZUzDpZt0HXjzjXGbl5nUge190VwWqxFqbywWibIeNXZvTue33Kgtm5taoJrUArMZPNVRL7fYmEqhVe5ltAj69QHg/3V1XDNdX8n+q9LCCGEOBNJoCmEEKeQ67odX39+wyYOrN/ED167CYB779xWt41vHObeO7fxl86t/IV+C3/272/h3ju39XZy7eLhMd66O62PcgbHMenkaLUPyMoP1ozT3Gs5X3dQDuTal8mobk/dKudPqHuOp4Nydkm5Hq3BawzeIiYNeF6HB4DKxdVRXTC44LpaWMq6hBBCiOVKAk0hhDjFGsdmVuRyOQpJeTxm3LmOoaEhVq1azdo1awDIz3Xv0QSFO+GBZzf1KPZVzhiM8nBbxURao8mS7RTLqjG0MpiWbYiYNBFadwi4Op2/VsbF1Qa/NmA2Ph6asX6n/F6udQkhhBDLlASaQghxGrQKNvO5OS57bpaNh2bY8kKaOjs9PV23tdo3PT1NLt9+/d86ymXCU517Hfsp1ySDUhFRtq+DiDy7Os7To4cgskdaa6Jq72GE7xu063ae8Tvy8Y1Cj9WX6qeuunGnLaL1BbVLCCGEOIMM9KyzQghxJsnl8uy7aBOFco/mNS/OMDo6Wldmenq6aR/A3r2d1wCupdwJPGPjOIakYwZpb+VaHInq2jNXX0Z54Xzaa3n8ZdAwtnFBtIunbHw/Qmd8PDxCDc3Rc4RnW+XZvxVeq3HzPddFc1rvgtslhBBCnJmkR1MIIZaJfC6fLlkSpzPL9iOXy/dROk2NVcbpKYW2qZzW6MjDb5lW6+NFGTKduuYqaaLtynRLv9UaHRlazKfT+hpcTWQm8Y1B6bE2vYY1kwEl7SZn67WupWyXEEIIcWaSHk0hhFgm8vkc6shs3b5Kumy3fflCL2M0ayiXCc9geyadBrWvchrXU9iOjV/b8xf52OVJetp25hkHy8nihUH7wMoYDBl02wIa1/OxbRtqz28c7KxL2DjfktZox8GLNEGwyHBuudYlhBBCLDMrNtD81nMn+OzTL/Ly8Rx3XHk+b3n9Bae7SUKIFa5YKvHEeZurP1/3Uu+psw8//HDf56ukxnoLKKfckGTMx66mm0KlV7CxN9A4Fla1iEeYNAeZkWdjVSvSXdNmlRuSZBys2vPrgCRQ0LQwSxoYm0gvPhW3x7rqrrldKu6StksIIYRYXqwkSZLT3YhT7eGZl/jkN5/lptedw7OHj3NH5iLecuXI6W6WEGKZOnbs2KKOHx4e5p6P7ibOHcV13br67rvvPobOOp+7P7iDnTt3Luo8u3btWtTxQgghhBBLZcX1aL6Uj/mrJ57lt9Q6fvsNFy+sksjHtr32i5krjzAszx4Y+TiTYwQu+LZPJgzI+DZ+JiTAwTKapOOMEUKIQeL7ftvXJFAUQgghxKBYcYHmZ585wssvz/ErPz+88EqUS5g0DgKK8G07HWsT1kxRr1zcSRvHTKCArG/jM0GoIfKzndeKE0IMlHbrZ378kw+d4pacKQyO1by8StcZXYUQQghx2q2YQPPpIzmePPgyX9l3hDiX48tPv8CVF7+a635+XX8VRT72OOiMh0eQ9kZWJ7dISLIOluPjZaNq76XtRYCdfliKAGycTABehKFh7FIo66gJIURKE6y80R1CCCHEQFgxy5ucu2aIKy9Yy1MHjvErG4e58uJXc+n5Zy+4vrEgIdEGq/K0XbuMTdrlVNixajnlhiRJQuDpdAZF5REmCW7Wx5S/T5IATUNPqBBCCCGEEEKcoVZMj+al567h5VfyJPkc177u3P57MlvRAUkYEWXTMVfKDUmfvdeO3kxTaiM3RAHajRj3DTrKoInIAirKklWKruubCyEG2p49exZ+cALbb9++dI0RQgghhFiEFdOjCfCt779Iki9w3cb5IPO/f+P7vGXnwxw8/DMA/nZqH3/06W/2VJ9xLCzbLi9abnAsa76Hs1pmHCZqxhNpFx1lGQsCXE26IHk2AlmsWwgBjIyMdN0efPAzTV9r1tIQQgghhDjtVkyPJsDTB45yyTlDXLruVQAcPPwzHvhcyB/prVx64asB+IXXnc+nv/xM54oiD9vy0EFCEpCO0TTpum/pjLQ+GSAD6CAk7dUch4kwXSutsjB3BmzfkMGQ0cHJuWghxBmjVCwyNTXVtdzWrVcxNTVV97VULJ6CFgohhBBC9GZFBZpP7DvELb9wUfXnqX8+yLmvWsuvvuHSunIvnSh0rqgyaY9xsKy0/1IH5UBRuYRhhG+n6bTGsXAqXZyVhcUrx2sXz7dx8AhlBkUhVrx8ocC+Gx0ASgmMHJzlwIZNFEpQjC3ySYI6PMsTw5vJxxaFEhSShGICuwrfOc2tF0IIIYSYt2JSZ586+BLHXnqFX1h/bnXfN/cd4rotF9WVe/rHRznvnDW9VaoDkiRJJ/tpEyhq10OVZ05MkhBPgXYrk/5kidouximEWGnyhfQhVymBYpzuK5agkEA+hnwpzY8tlKBYSijGUEygFFsU8vUPyIxjYfuVG0yEb1tYlo3feM8xDpbtl0eW91quUq2PbVlY1a3xuEp9tVvzciXGaSjTeJ62KkMWylv1qV6H66g9rum657dqVUtQ1/w191tXKy3qryvf7T2vf8+ar7P5uKZ/n6b3WwghhGi2YgLNJ/e/wKXDZ/Gbb9xYt/+yC19T9/NTB17kLf9LfQ9nk8hr+HDVuNl4lb/6yiVMNKZmvzEm/dBmORAkhNpg9/zBSggxqHK5HOsOzDJycJb1z84CsPHQLFtemEUdmeGaozMA3HB8hptPzHDr3H7eNjfDHfn9zOVzXevXOoM33v1e01M542DZBh0m1QduSagxdm3wUq4vqCkTgGM1l1FeOP/gLuNhdwtiau6h1bq1qQmuQSkwk81XEfl+U7ALKl2iKklIQo+sUx8M9ldXwzUnAbXPIvutq5Xa+lu9X63Pn65LOv+ehSi/PvBvddz8vvIM6dV/S0nFEUII0d5AB5p/940f8b6HnuSBR57m/53+Pn/6W9fWvX7phefw0iv56s9P7DvEl/75IL/5xivaV6rc8pIknba05xIqT4J9VFj/YSj9W5/2hCo3JHEjCTaFEDy/YRMH1m/iB6/dBMC9d26r28Y3DnPvndv4S+dW/kK/hT/797dw753beqtcu3h4jLfuTuujnMFxDDoIcWtnMVMuYaAxTnOv5XzdQTmQa18mo7pNjVY5f0M2iQ4IaxqU0Rq8xuAtYtKA53UIkpSLq6O6YHDBdbWwlHUBaN3jMVGWrPJwq8UVblgfBAshhBBLZaADTYpFKJZ46XiOB37vjVz1uvPrXr5uy2vrfv7v3/g+H3KuaSrXv/k/3umT4IYPYzpoesKdfviSdTSFWMlyuRyFpDweM+5cdmhoiFWrVrN2TZrqn5/r3qMJCnfCA89u6lHsq5wxmLqApYbWaLLpjNptqx9DK4Np2YaISRN1Dp46nb9WxsXVBr82YDY+HpqxfteTWq51EeH7BqV6OFBlyEReeaZ0IYQQ4uQa6MmAfufNV/A7b27fO/mrb7i0biKgj7zj+lPRLCGEaCmfm+Oy52br9k1PTzeVa7Uvl5/r7STKZcIz2I6DaXzgtZByTTIoFRFloZ8nZ5FnY3mVcy/dBGlaaxzHx7gBuhyUaTdA4XRojI9vFNpV1K6L3E9dxrHmV5zRQVOa6YLa1bL+NOU3VO1erz2/Jgg0lmNhkc6U3vg2d2u3EEII0avB7tEUQogzSC6XZ99Fm4gu3Mx31m0GYHR0tG5rtW90dJRcLt+p6jrKncBTafrpUpRrcSTdO9jqy9SO0UzcCLvFpEELol08Ve49ND4e7XpCI7zKZDi2QYcNmSh91dU4LrVFoT7q6lR/oCO8Fl2Ubc9fnsQu9LLppECdxnZKkCmEEGIRJNAUQohlIp/Lp0uWxOnMsv3oJ9CspMYq4/SUQttUTmt0uxRM4+NFGTKdejMraaLtynRLv9UaHRlazKfT+hpcTWQm8Y1B6bE2Ha01kwE1Dnfou66lbFdnOgjQXf8dW5zdDdMhHAs4VgghhOjFQKfOCiHEmSSfz6GOLCx1Nl/oZYxmjUpqrGfSaVD7KqdxPYXt2Pi1PX+Rj12epKdtX5hxsJwsXhi0D6yMwZBBty2gcT0f27ah9vzGwc66hG5jcY12HLxIEwSLHAm/7Ooq/1v4PpHuMs4/8rH9DGFdT2Uvvc9CCCFE/6RHUwghloliqcQT522ubtB76myp2GcXKJXU2IWVU25YXc5kfj3HdLmTxozLunUYfUXYoscw8uya9RlpOX6w6fxBZj7d1bKwjK6bdXZeGoylPaWL1Vtd9WtPtls3c2napdwJPOqXOGl5fuUyofy6dTJpmDm4t3YLIYQQ3VlJkiSnuxFCCLGcHTt2bFHHDw8Pc89Hd/OH735ny9c//smHuPuDO9i5c+eizrNr165FHS+EEEIIsVQGPnX2vvv/W0/l3v++/3iSWyKEEJ1JoCiEEEKIQbEiUmffeN011e1rX328+vVXt72Vr3318cWfwDjYkl8khBBLzKQzozZsK2PympV87UIIIQbBwKfO3vvxv+KV40c7lnnVa87Hsppj7la9nMbp4w+98gjD8uQM1Ukq6gbDYBktU8gLscydqtRZIYQQQohBMfCps3OvnODL16YLYF99ZJZ779wGpLM2VibW+Mif/QW33PxmPvaxB/D+9MN4H/ov/PJNN7SsTwcJTZF5qyCysYjJlhf/BuPYZN2QxokRhRBCCCGEEGIQDHygWSoVeyozNTXF1q1X8dnJf2Dr1qtIkrj9AZGPbXvUJ8saLG/+Jx3UzLwY+fhZzUTatYnJ6nSWv2y/VyOEGGR79uxZ+MEJbL99+9I1RgghhBBiEQY+0IyLRa4+MsvlL3wfqJ8caPpb/wzAa849v7qvki77kT/7i84V62A+5bWhRzPybfyaotGkIcpUUmgNJjKYalRqsKz0O+WFHXtFhRCDb2RkpGuZj33sAT7wgffWfX3Xu+48Ba0TQgghhOjNwAeaxVKJI0lCYd9T5OZOsGHDBpRSGPO56ge0Vumy7XtCDU65N7MSIFb21/ZoKi8CFGDwvYh0kbQI38/ihUnaoyljNIUQNUrFNLuim61br6pmYVS+lordszeEEEIIIU6VgQ40S6USRw6/wLpvfpmr33A9SZLu+8b0t7nssgv50pe+1JQuOz09DaQ9oa1pgsb5kxrHaBoHu5wWG/k+Wa3T3sxoEpNxCaXTUgjRQr5QYN+N6ZjyUgIjB2c5sGEThRIUY4t8kqAOz/LE8GbysUWhBIUkoZjArsJ3TnPrhRBCCCHmDfTyJv/0T//EWWefx+++87fYdusod93173jrbTcwpjWr1ryG2267jVtuuYUPfehDfOhDH2LulROMjo4yOjpKsVRqWadxmqebtxxD5NnNP9s+k2gmKgGocgml91II0Ua+UADSILNYHiZeLEEhgXwM+VKaRlEoQbGUUIyhmEAptijkC3V1GceqWXYpwrctLMumaSUm42DZfnnMea/lKtX62HX3w8bjKvXVbg6NE3c33Vcbz9MkrbftDOBd21U9c/0SIjUVNs0wXqmzzUmN0/xa5NtN19K8r/wetai39t+w5d+euvbUX4ssgyKEEOJ0G+hA85FHHuHnN2/hx6/kOZqcRRInHHmlwOt+/hLedMMNfPnLX64rX5suG8etezR1kJAkDVugUV7Y/HPo4rrlsZmQflBr/IBQu6/rhyshxCDL5XKsOzDLyMFZ1j87C8DGQ7NseWEWdWSGa47OAHDD8RluPjHDrXP7edvcDHfk9zOXz3WtX+sM3nj3+0xP5YyDZRt0WHMvDDWmRQBYd98MwGkRCNXeQ4OMh73QSKnXdhkHy3Kgtm3atFkTOR0ykQmStkMdtNaQzdYFkJMmgsgwWVNlNopQemz+70I0iUGhjGkKwOvqr7YzQJczayp/b9Igs/ZaQpTfHNALIYQQp9JAp87+4Ac/YMf73ssJVhF8/Z/41Bef487r/w2XXnwx+8+/gCiKePOb31yXLrtz584utaZ/0Fs8e24Yo9li8RIdUJd1K2M0hRANnt+wiUKS9lRufH5+SaaKytJMcRyTJDGlOGHtmjU8+NBD3SvXLp5vM+6PdZ54rGs5g+MYdFAeb16hXMIgwnIcTBLQ8s6mA5LQx7bbl8koxcKeuvXarvlydbdfHRC2qtNyyHohYadbdUahIsNk5KIUQJYo0mhtiLJQHj9BNquqS11BOlkcegI3Y2MM6IX8OYiyZJXHRPVYhRsGC6hICCGEWDoD3aN5+eWX892nZ3ntuefwnttu4ndvvYnrr7Y5/tJLlEoFXv/61wPUpcvu2rWrurVW8yS5Q4+mEEL0K5fLpUFmbJHvsMISwNDQEKtWrWbtmjUA5Oe692iCwp3wwLO7pFZ2KWcMRnm4rW51WqPJku0UKKoxtDKYlm1IewL1QiKuXtvVqVxDW3y7HGR2mxFcjaFVlAaVlbZojasUpnKh0SQmypCZ785k0oAeU2itMf4Cs1pUhkzk4UsXphBCiGVkoHs03/jGN/LZz32eX7x6C6vXvoqrL7+UQj7HiVdeYerLU/zG9lvryrdLl22ndgyPDmqeHrd8Ki6EEJ3lc3Nc9txs3b5KxkW3fbn8XG8nUS4TnsHu1OvYT7kmGVQl4Opj4rPIs+ezQpTXufdwQWra1SPj2Bjl9bjslGJMK7xyt6QxBq0DVCaLMmlKrcpGRFrPv5fGx0OnE8QpjXb8mh7RfmiCQGM5FhaaoK9/LyGEEOLkGOhA86abbuJ73/sef/GJ/5MbR68lc+Vmpr/9r3zz29/l5SPP8bnPfQ7Lsnj44YcXVL8OEpLuxcppWy0rIJFPA0KIslwuz76LNlEo92he8+IMo6OjdWUqqbON9u7d2/N5lDuBZ2wcx3S8B/VarsWRqEx/ZerWES6Pn1z6gKl8zh6DTR0kaGNh2xCGbte4WY3pclCZpsiqDGlPJ+NMRi5ZY1BqfliFMQalK/VqtHbwJyPc/iPN6tCMyLexLat+rWchhBDiNBjoQPOss87ine98J1NTUzz66KN8+tOf5vLLL+emN72Jm2/+31hTTjkTQojlIJ/Ll5csSWeW7Ucul++jdJoaa2wHp2Mo16ac1mjHwTcuTbGM8fGiDEGnWKm2J68VrdH4aZprPzFXr+3qo/dQByGebWM7me6Bm8qQiQzZCAyaCQWgyGQiTDaCuvGZaepwZOy68f0YH+MuPMBWbkjipuNKHZM0vw9CCCHEKTLQgSbA2Wefzfbt29m+ffvpbooQQnSUz+dQRxaWOpsv9DJGs0YlNdYzdIy2WpbTuJ7Cdmz8MJyfeCfyscuT7LSNb4yD5WTxwqB9DGkMhgx6ASmkvbVL43o+dtpVOV+ucU3k9A3ADQMiy8FyuvUSpr2Sxgf0fA+o1hon3VlzLoNpSnMtTzbX76RAkY/tZxqWz+qlV1kIIYQ4eQZ6MiAhhDiTFEslnjhvc3WD+cnKKlurfaOjo5SKfXaBUk6N7SGYa1VOuWF12ZD5JZrSZUUaY7G6NSB9RZiENA57rF+LmJ7SZuvqLS8P1Wu7lBuSBBm82nJGtxmPWQ4IW60l2liyPD4zk1G1O9HGYDIZ5uNMU+65rT+P1sxPHtQr5TKh/Lq1SgmRTOIlAAAgAElEQVSa32MhhBDiVLKSJOlpmKEQQqxUx44dW9Txw8PD3PPR3fzhu9/Z8vWPf/Ih7v7gjh6WV+qs/WzZQgghhBCn1sCnzgohxJlCAkUhhBBCDApJnRVCCLFMGRyrJrW1vHVeA3QltkkIIYRYfga6R/O++/9b38e8/33/8SS0RAghRP80wbIb3bEc2ySEEEIsPwPfo/mr297acvvaVx9v+iqEEEIIIYQQYvEGukczjmM+O/kPLV/buvUqPjv5D3VfkyRe2IlaTolfFvk4k2MENWunOZZBL/lC5EKIM92ePXsWfnAC22+XZZyEEEIIsTwMdI9mHMfsu9Fh340OL1zxi3XfZ9/s8C83jPPCFb/I49c7fPlah7jUw/IAxmkam2M5pn5q/vJm+xEoFx3Z1fE7ke9jZIyPEKKNkZGRrtuDD36m6SvW6W65EEIIIcS8Ae/RLLLuQLr4+fknjrL2ue8BcM6Jo6x+7nvEicV5J45yxQvfo5iANTRUN66z5XhNHVA7PMc4NlmVwaDIRBmCFot56yDA2D5RBsaNJkzCpoXKI9/GX/QVCyHOZKVikampqa7ltm69iqmpqbqvpWLxFLRQCCGEEKI3Ax1olopFXrxsEwDn7/sn7IsuTF+ofAV47QX8aOor3PyWX+HJb36J33vPH+B96L/wyzfd0LFu46Q9kDpICHAw2TEC7acLZeuApC7g1ARhmjLrJkFTkCmEEAD5QoF9NzoAlBIYOTjLgQ2bKJSgGFvkkwR1eJYnhjeTjy0KJSgkCcUEdhW+c5pbL4QQQggxb6BTZ0s1qbBxkrBx6AQbh06w+if76r5/563Xs3HoBOvXX9h1vKZx6tNcjVOTOju/s5xS6+PblTTaDEESkPEbUmxtnwjIRtFJfjeEEMtdvlAA0iCzWL4FFUtQSCAfQ76U5scWSlAsJRRjKCZQii0K+UJdXcYpp+8DEJXvRTZ+463GONX7UO/lKtX62HVDABqPi6r3wPnNoXGUQOW+2nhfbC+tt+1wg67tqp65fhhDTYWVh4lNdVZ31h8rQx+EEEKIegMeaBZYd2CWdQdmSZKEI5crjlyuOLHukrrvf3q54vmfs3l5+LVdx2vqICFJArTyCJOEpGkL8VQ6/X0SuLhhQuipFnWU6zkVb4QQ4oyQy+VYd2CWkYOzrH82TfvfeGiWLS/Moo7McM3RGQBuOD7DzSdmuHVuP2+bm+GO/H7m8rmu9WudwRvvFsT1WM44WLZBhzX3v1BjWgSA8/e8hCQAp0VgprywWibIeNgLjdx6bZdx0gyU2rZpUxOc11WKY3tkgqScrWJw6o4NUX5zAC2EEEKsZAOeOlvixcs2UUrgNU//lJ9mv1t9rfb7I+Xvkzhmywvph7tS3GVioMjDtrw2L2qCDocax5qft0N5uOk3qEznUwohBt/zGzZRSNKeyo3Pz3LvndvqXp+enmZ0dJQ4jkmSmFKcsHbNGh586KHulWsXz7cZ98daz5LdczmD4xh0kFD3snIJgwjLcTDtHqTpgCT0se32ZTJK0TUabqnXds2Xqx/lEBC2qtNyyHohYaVslCWrPCaqxyrcsNNdXwghhFh5BrpHMykVKZZTzuI4ZiRzNSOZqwH4D7fdxH+47SbU+WdVv88Mr+XeO7dx753buk+s0bFHs/Oh0qMphGgll8ulQWZske+y2tLQ0BCrVq1m7Zo1AOTnuvdogsKd8MCzu6R6dilnDEZ5uK1uYFqjyZLtFCiqMbQymJZtiJg0EVov4O7Ya7s6lWtoi2+Xg8zayFVlyEQevnRhCiGEEG0NdI9mnMRc/siDACSXbelaPqmZTrZU6hJoLqBH0/jpvLKtezSFECtdPjfHZc/N1u2bnp5uKtdqXy4/19tJlMuEZ7A79Tr2U65JBqUioiz0M/NZ5NlUb6nKm+89XDI17eqRcWyM8lr06mqCQGM5FhaaQB4aCiGEEE0GOtDctWtX9fu7/9jl8f9vsvrz3x76YfX7ffv2Vb+vfICLO/ZopmMw+xF5NiZIcLMt0rUw+CaDlswrIVa0XC7Pvos2USj3aF7z4gyjo6N1ZSqps4327t3b83mUO4FnbBzHkHSIkHot1+LIHoYC1JdRtb2G5fGTSx/Alc/ZY7CpgwRtLGwbwtCtj5vLS11Fvo1tWS1mGxdCCCFWtoFOna1lWUMc2noLz15zC4WLL+euu+7irrvuYsuWLXXfj46OMjo6SrHNZEBNsyN22so5Z9kIvDANLpUbVoPM+bocjNbyRFyIFS6fy6dLlsTpzLL9yOXyfZROU2OVcXpKoW0qpzW6Xeqo8fGiDJlOvZnGx0Mz1q5ML+m37Y7rpV1aoyPDZA/16yDEo/3kRMoN02EQXd9LIYQQYmUZ6B7NWpXxmoUu454q4rh1j6YOEvrry0w/qCxVXUKIwZXP51BHFpY6my/0MkazRiU11jOgOkSFLctpXE9hOzZ+GM5PvBP52OVJdto+ODMOlpPFCzusKWwMhgy670WHe22XxvV87LSrcr6ccbCzbkOqbDrRT2Q5WE651zLysf0MYV0PpkzoJoQQQtRaMYFm7XhNgJ3ffaz6/cMPP9zyeyGEOJWKpRJPnLe5+vN1L/WeOruQe1clNbbdaPNO5ZQbkoz52LZVs1/hhQ0zvtI8Lj1MmoPMujGaPY57bKo3dHtul3JDkoyDVVtOByRBq+g2bY9jOVh2ep4JZafLo1QPbb5uIYQQYiWzkqTPwYZCCLHCHDt2bFHHDw8Pc89Hd/OH735ny9c//smHuPuDO9i5c+eizlM7Ll0IIYQQ4nRaMT2aQgix3EmgKIQQQohBsWImAxJCCHGmMTgtJlqTSXeEEEKI5U96NIUQQixT/S8lJYQQQojlQXo0hRBCCCGEEEIsqYHu0Xz029/mhS6TeFx/1VX83Pr1p6hFQgjR3p49exZ+cALbb9++dI0RQgghhFiEge7RfP7IEX7tppu46frrOfbT13HN1q1c/YY3kLn6ajJXX81TP/wh3whDfvDcc6e7qUIIAcDIyEjX7cEHP9P0dX6dDyGEEEKI02+gezSJY+JCgUIux9DQEK8cP84rxSLFQoE4jvnpoUP88TvfycQ//iPEMRsvuaS3eiMfexwmQhdlHKyWM1MovNqFwOsOtxlnomFRcCHESlcqFpmamupabuvWq5iamqr7WioWT0ELhRBCCCF6M9CBZlwqsecfnyOOYWgIvjWdI45j4hjiGJ790Y/Q730vAM/NzrLj3e9e0HmUFzYEjRG+7ZNRQNtAtHZx8pQOEoJuK5QLIQZWvlBg340OAKUERg7OcmDDJgolKMYW+SRBHZ7lieHN5GOLQgkKSUIxgV2F75zm1gshhBBCzBvo1NlcLse/u+0S7rj1ItauXcPt2y7m9l+7iO2/diG/dusF/PEf/REf+MAHuOeeexjesKGnOo1jYdkeUeRhWzZ+tlWpLFFU/lYHJElSt4WeQnlh034JMoVY2fKFApAGmcU43VcsQSGBfAz5UpofWyhBsZRQjKGYQCm2KOQLdXUZx8L2KzeiCN+2sCyb6q75gli2T9RXuUq1Pnbd0iONx1Xqq90cGh+9GaehTON5upWvbI5pfc7a+ozTop3lZVRk3RQhhBBiyQx0oJkUCux59BD/uPdFrCH40ldf5EuPHWXqsZd4bO9L/Mvnv0/+3Xfx0l3bufLj9/DK02HXOnWQkIQeSnmESYibqbxS++HGwWiNbtqfbrYXEXl2Xx+shBCDL5fLse7ALCMHZ1n/7CwAGw/NsuWFWdSRGa45OgPADcdnuPnEDLfO7edtczPckd/PXD7XtX6tM3jj3e81PZUzDpZt0GHNA7NQY+zmdS51UFMmAKfFWpi1D9+CjIfdIeibry9Al5dASevWLco01KcDAh3VXV/k+xjlEcrTPiGEEGLJDHTqbCmO+Y23bKBQKvHwlw/xazetoxTHxKRptSf+9QCrtlzB5Te+juen9nFi7Tm8asFnU7hhgtvDfhmjKYRo5/kNmygkaU/lxudnuffObXWvT09PMzo6ShzHJElMKU5Yu2YNDz70UPfKtYvn24z7Y53vP13LGRzHoIOkfhy6cgmDCMtxMElAy7BNByShj223L5NRiqV88qa1prYbVQcB2nLwjUuQ8Rn3wAtd5I4shBBCLJ3B7tEslfjcY4f4/N7DDA3BP+59kS/ufbHas/nY92KYK/DSnn/m7LmXCL73M/7H/hf50v4Xuldekzrb1DtZk0LWKsWrZY+mpG0JseLlcrk0yIwt8nHnskNDQ6xatZq1a9YAkJ/r3qMJCnfCA89u6lHsq5wxGOXhtooStUaTJdspUFRjaGUwLdsQMWmiNDhcEhG+b1AqU7NPEwQa49jY4x54Ey0nbhNCCCHEwg18j+a/vXk9pTjms48eYvvNFxLHMV956v/mUOFnHE++x9rSEKte8ypyR4/yxemII0fO4ic//An7PnBzyzp928KLAOURlmedNV6ANoZMGNSky6aTAekgIak5PvJt/IwLfha3/AQ98m1soyVtS4gVLp+b47LnZuv2TU9PN5VrtS+Xn+vtJMplwjPYnXod+ynXJINSEVEW+ukijLyaCdKUR7jI26FxrPKKLwovTAgb26IDAm3hZD3JLhFCCCFOgoEONJNSiYcfOwTEDA3B5/ceJi6VeHj2f+eXrtpCfOA48Zxi9bq1/Cyf5w2XX8bxLVv49ssvt63TDRPc8vIm8zK4LliOIQk0kT+O0RM0jvg0joWvQkKtAAfLKn8M8kKSpk9BQoiVJpfLs++iTRTKPZrXvDjD6OhoXZlK6myjvXv39nwe5U7gGRvHMSQdArpey7U4kroOxB7K1M3ebRwsyyHoK8CtV5nF2zgWjm9wGx/kGQcnq9F43VOJhRBCCNG3gU6dLZVK/NsbL+aOX76YoSH49ZsvZvvNF3PZup/jV69az3WXb6T4SpG1q89mKEk48kqBp55/BeiSs9aKDgiVn6bGGs1E7YeW8syMflaRyahq+XTiCoUekw84QgjI5/LpkiVxOrNsP3K5fB+l09RYZZyeUmibymmNjjz8lmm1Pl6UIdPptmZ8PDRtb329pN/2SAcBuuk6DY6TxZsICCY88MabZ9kVQgghxKIMdI9mKZfj4a8dKv80xP/82iHiGOaKefa98BTJK+dxubURa1Uab6+2LM5dO8QrCzqbwffKn1SiiErWmHHKqVlJAr6NX9lnFF4YkiTlWWkjaoJPIcRKlM/nUEcWljqbL/QyRrNGJTXWM6A6RIUty2lcT2E7Nn4Yzo9vjHzs8iRBbe9kxsFysnhh0D6z1hgMGfSSPIMrt9X3ibSLIsK3HYwOCBRA+frGfcZkQiAhhBBiyQx0oFnI5bjjly8G4OGvHWL7L68H4LHPHKe4rkDprDxWcgW86hySOOHVayw2vGYth8oje1qJfBvbi0DPf0hKxxalU+wHQGVNNkcHJDVjNE0UYTwLgnSK/1S72WqFECtNsVTiifM2V3++7qXeU2cffvjhvs9XSY31FlBOuSHJmI9tWzX70/GQjVmo8+MlScdfJs1BZt0YTfSi0mbbtd92MgQ4eJEmqBkEWvu6POwTQgghloaVJEnSvdiZ6f/4m7/hxRdfbNr/gyv+hFt/o0jpsdXccv9tXPjLV3Bs+uv8jfPnzP3im/ji15/iq7991WlosRBiOTp27Niijh8eHuaej+7mD9/9zpavf/yTD3H3B3ewc+fORZ1n165dizpeCCGEEGKpDHSP5v/6e7/Xcv9//s8v8rVv5CklJR5/3RDJT0oMXbKV+OuTrJ42jK5aA/z5qW2sEGLFk0BRCCGEEINioAPNdv78zz9yupsghBCiK4NjOTTOOVSZUVYIIYQQy9eKDDSFEEKcCdKx70IIIYQ48wz08iZCCCGEEEIIIU496dEUQohlYs+ePQs/OIHtt29fusYIIYQQQiyC9GgKIcQyMjIy0nV78MHPNH3tsCqTEEIIIcQpJz2aQgixTJSKRaamprqW27r1Kqampuq+lorFU9BCIYQQQojeSKAphBDLRL5QYN+NDgClBEYOznJgwyYKJSjGFvkkQR2e5YnhzeRji0IJCklCMYFdhe+c5tYLIYQQQswb+NTZRx99dEFbdwbHsnAa591vW9zBqhQufx/59vw+IcSKly8UgDTILMbpvmIJCgnkY8iX0vzYQgmKpYRiDMUESrFFIV+oq8s4DfenyMe2rPI9J8K3LSyrdkuXETGO1XRfinwby/aJOrY+vSdW62u8t1XOX91s/LoK0zY13xINTlPZcn3VNlWup0W52rb1Ut44Xa61l/bUnLO8NV9XuQ1t/wY0/hvVLvPS/t9PCCGEWC4GOtB89NFH+eIjn+fGG2/kxz/6YU/bL/3StXzxkc93DjYjH7v2Q5nVuDV/CDEmi+dqIML30++V66KN3+aDkRBipcnlcqw7MMvIwVnWPzsLwMZDs2x5YRZ1ZIZrjs4AcMPxGW4+McOtc/t529wMd+T3M5fPdajZ4NgemSAhqVmAUgcJSVLZAjSgXQ9Vd18y+B54Ey6qbfUOluVAbX3aYFcqMQ6WbdBhzeuhxrQMLBdOKTCTzTfUyPdbBmFaZ/DGuwXQC5Gu/zn/foQovyEQjCYxKJQxzW2LfGzLJnJr/300piEAbvXvJ4QQQiwXA506G8cx9/zpRwB4+2/9Fkmc/kGO45hXXnmFY8de4pxzXsWrX30O+UIBCwvLGsK/58M8tndvyzoj38b2ItAeXtbDywTzH9wiH9v2wJvAVXUH4Wc1EwoifxyjJwgVgCYIDNa4z1jY4UOcEGLFeH7DJgpJ2lO58flZ7r1zW93r09PTjI6OEscxSRJTihPWrlnDgw891KbGNOjJeiFhL5GIGkMrDzMZ4SoFxmCUrr+nNdbvGHSQENTWrwPChtfr6lAuYRBhOQ5miYKkjNZkPR/j1tYXMWnA8zReY0SnXTzfZtwfI2x/gf2LsmSVx0S1EQo3DOqLTBrQE7gZG2NAV8tG+OPpQ4G69xNNEC5dE4UQQoiTbaB7NEtxmnv24pHD7Pl/DN/6+td4cvrr7Hsqy/PPPgsWnH322cRxQiFfTHsjy1M3Vo5tpNwwfXocuLhh+tS+2pM5DhNJ0vCBJf3QgB5DRT7jRjNR+7oOCLVpSLkSQqxEuVwuDTJji3zrW1DV0NAQq1atZu2aNQDk51r1aEb4djnI7DmQUriuJjKTRET4vkG7nXozDUZ5uO0ixU6va40mS3apbn4ZF1cb/No0EePjoRnLtDpA4U544NlL2rOKypCJPPy2dabBrx5TaK0xfs39P5rE0OH9FEIIIc4Qgx1oFksATD3yPzl44MecOHGCnx1/mU99YjePP/pl1qxejWVZRP/yHXZ/xOdjf3I335p+HIaGqsc2ahoXY/R86tIEjNe+ZvsYfxwvApjEGYeJFj2Xyg3TYFPGawqxouVzc1z23CwbD82w5YU0dXZ6erpua7VvenqaXH6uqT7j2Hh49Q+36l5vM6ZSu3h4+P7JDnoyKBURZZeuxv+/vfsNjus67zv+vQABEBIlUCRoixKVSCHrmntv4kixKcTKyMqkHiWW5Ew7PJeSKk+Sl5l07PZFZjLjpvfeZtjJTF64STuT1playrTjGHvZN1GUNy2Vjm1ZKKsRJeveVUgCli2JhESJEEEBxP6/fXEXi/2LBUj8WVK/z8wOtPeec/YsOLPCs+c5zzHGEPvLqbJrCJRtj0nfJnQ3co+jIZs1td9vh3GXg1+bNNiOQ+oZv7m4+UvHpr2tzWN1/fcTERHpAzd16mylkpb7j18/za/9+m9w6LOH+eD995k9/y7VapXfdp+iWq3yt/8zy5GHHgbgf//93/HQl3693reVFyV4tRTZGGp7k1pb2fhRhGdDGECUzXAsd5RslMO1rA5/zBiySUSycW9dRG5AhUKRs/sOUqqtaN7/0TQTExNNbZZTZ1v9oEO6v8kmmNDCcSDq8CVXW7prXbqqabk+Jptsclq/jd1xtfEaGQ/fdgiCGJMJ8PHTlOFV4jDbm8QPHVw3JNmooNpkSZLadgvLSp/XftlhGGKb5X8PgzEuwXKqcvvkiBKPNAW6+U10//cTERHZfjf1ima5tiqZ+cXPYVkD5JeWuHD+XQBGb7mF4eEhlpaWIGkO8ayGvl2ZbH0lM/JtbD+qP2/8H3/zN+mGbJIW41hpH+Frc6aIAMVCMT2ypJpWll2PQqHY8brJRvj468+YMAaDadg7uEq7xhW5jve7pJGGAX6cIbPqZ2CXVc/Wlb+6ldTfIAyxzdE1BMppCq0dumtIoV3ffNLtFllMfeyQMITYd5oq0tZXYXv9PkVERG4QN/WK5nKw+PmJLzJz9gz/8T/8e+YufQjAP/utx6lUKhSLJR7+jUf5wT/8LwYsi0ef+G2wrN6BZttKpoPlL/+3je917xrncmTqf1nliGPYyC/0ReTGVCwWsOdmmq4tp8v2ulYsdas6mxaiiS0Xy802VZ3dGAbPD3DSZdOVgj+hi5PziDyD59s4rkPQeD8OcGpFglafkc1RY+M3FQ1KCwzZfpeUWGMwrosfG7LZNX6TZ3tM+iGOH6bla69nPnGAE2SImn7XtZXbMCTEkG0qgJQWbEqLAnX5fYqIiNxgbu5As5b+evvu3Vz5+GN+9dEn6vdm5+b52797of78M/c/yGO/9ZuMjY019e2qIQ0qDhyOMVkvthG6Dt23HIUEfgajPFkRaVGuVDh1+6H68yNX1p46+/zzz68ychrYuJaL5fhE0VGgtsev3mYl5X+9bC8iybhYjkX9+zaTJakFebYXkRwNcBrvY+NHSdvrNc3J9tOUXy8iG1u4Dd/u2asWOEqD2zA266pmu5xC6/ds12M+tsek7aRHvizPqFZ1NwxCMK1VdtOVY7dWfrbz7yt9jcZ+G/XvJyIishmsJElu2pDnu38zSfz6q3w2k+GX73+AM+em+UUnQ34pT/ZvvgvAU//yGUZvuYVXX3sdJ3OYV/7fKf4xl8P+3AM8/dSxzgM37tHsqOV/+PVv9iFwHELT8AdJHOB0KRIkIv1hfn7+uvqPjY3xJ3/653z993+34/2/+Mvn+OM/+gbf/OY3r+t1jh8/fl39RURERDbKTb2iWalU+Gwmw7Enn2IyG/LQF3+V//bt/8rRY8f46j//FwwPDzOwYwff+atv8wdf/wYn/+H/8OTTT/O9736XSmUNezS7pKB1W9EM3ZUgM3RXDiq3/UhBpogoUBQREZGbxk29ognw1//9f1xTv9/52jMbPBMRuVFt1Ypmf6vtI2y5evNWPv2kvV8REZGNdVOvaIICRhGRjZFWzf7k+KS9XxERkY11Ux9vIiIiIiIiIlvvpl/RFBG5Ubzwwgu9G3WTwGOPP7ZxkxERERG5DlrRFBHpI+Pj4z0fzz77vbafWL3HFhEREdkqWtEUEekTlXKZkydP9mz3wAOHOXnyZNPPSrnH2b8iIiIiW0iBpohInyiWSpx92AWgksD4+Rne3X+QUgXKVYtikmBfmuHU2CGKVYtSBUpJQjmB46XT2zx7ERERkRV9mzqbz+d598IF3ohjfvjyy7xy+jSnf/xjfhzFnHrlFXL/eIa3z5/n6tLSdk9VRGRDFEslIA0yy9X0WrkCpQSKVShW0vzYUgXKlYRyFcoJVKoWpWKpYaSYwLGwrJWH23pOx3KbthvtfS0nIG6bba/+DkF7J9JjQxrH7PB6tWNFQrf1eu3hhqv2W9t7qM2j6+9HRERErkdfBpo/e/sdfvijl3l56hRv/ewdrl7Ns7h4lXy+QLFUYmR0lISExcVFXnv9dd5666fbPWURketWKBS4490Zxs/PcOfsDAD3XpzhMx/MYM9Nc//laQAeWpjmkavTfDl/jq/kp3mieI58sdAymo0fJSRJQhL55NyWwC8+QYiNHYZtZ0VCel5kkqSPbMbHaY3EevS3bQhPdAhPg6Dn6yVJFtN0LYupHTeSJAlJw0GWnfr1fg/pGZnU70fYQfuZmSIiInLt+jJ19o04x6W5OUZHR1dtZ1kWe8fH+enb73Dfffdu0ezWK8S1QkzLH0AiIp28v/8gpSRdqbz3/Rm+9eSjTfenpqaYmJigWq2SJFUq1YThoSGefe657oPaHp7xCU7EeLYNQHwiBDOJl3EIQzCrfEAZY2iNwnr1zxhDzg8IvcbPvpgTIfi+wd/iqK7pPcQ5crbPZH1iNl6U3doJiYiI3OT6ckVzcGCAkeGRNbcfHd25ibMREdkahUIhDTKrFsXq6m0HBgYYHNzB8NAQAMV864rmatKAzxy1McYQBp1SY1faBkGIbWfW1z/j4ZmQoHEZNQzwMRzNtDbebC3vwc6QiX0CLWGKiIhsmr5c0Zw+d44HHzxCsVRi8Wr3PZhJtUqpVGZmZoaJI1/YwhmKiGy8YiHPgfdmmq5NTU21tet0rVDMdx84DghCG+Olq5nLAV9kA7bBuAEnYo/aYmfaxLVqJ6akKbhRw7219Id0FdF1l1c102DPeFls3LYprrweYLJN6bGrWa1f9/dgyGYNlmthYcgq40RERGTD9eWK5lJ+idOnX+PsmTPcdeenOPxP/wl3fupT7BgcoLC0BJUKd4yNsfDxIlHuTQrF4nZPWUTkuhUKRc7uO0i89xCn7zgEwMTERNOj07WJiQkKhdbPwRh/uSCOE2KiiHqcGYbY5ijpU4Mxcdt+yuX9jVkT47cs/a2lf3rLw7drq5phgI+P1yWia9prucYgs1e/1d4DJkuSJER+Li0KpGpAIiIiG6ovA82xsd2Uy2U+unyZ+fkr3HrrLgYGBjh75iwvvvgiudybDA4MspTPUy6VGdox1GPEENdyCMIAp7HCYOjWKw46QcxypUKnKdXLrVcrjAOnQ3XD5fHXUqVRRKS7YqGYHllSTSvLrkd7oNlQDChZCTIhJAwh9p2miqux361ITxYTug1VWdfT38bzDHF4gqApON1a7e9hhe1FaRGhLnnxzw4AAA/sSURBVPdFRETk2vRloFkul9izdw/lSoWLFy92bDP73nvMzs4yPDzEjqG1ZADH+AFM1r71Dl0LKzT1ioz4AWHDH0XLQWIYhhjPw44DjvmZlaqH9VSr1uqFCev4Ml5EpK5YLGDPzfDLH01z5EpaYXZqaqrp0ena1NQUxdIa92iGIWFjBdf651kaQLYzeL69sg9zvf2NwcQ+fmjwvO0IM6HtPcRBexVdbOwt3zsqIiJy8+rLQHNhYYGPryxwz4EDjOwc5YcvvUTuzTcZ272bBycm2Lt3L0mScM+BAwwMDrJ09eoaRrXxJ73023RjMNj4yzlcdoYMOXJx7V4ckmaBhYShSasp2hkyyyujjUuVYUhoN6eDmdXKN4qIdFGuVDh1+6H6A9aeOlspr20JNKyViG1JMsWY2r0ObG8Sn/R4kPX3T4O89j4t82o6M7PbGZzX3q/xPWB7TNpBU4YK2cZVXxEREblefVkM6NZdt5EkVWZnZ/m5e+4hk8lw6dIlTp06xU9+8hMOHTrE537plzhzbppyuczQOirU9mbw/IBjJ2KOnggIjUe2dj2bJNQPAo9t/CjC28BXFhF55KXvND3/5hvfb2vz/PPP9xjFxouijndMNiHpcd2LWlvYeFFS+7xbf3/bi5r7mCxJ09EiSY/PUkM2aQ1TV+tn93gPtTnpA1xERGTT9GWgOTy0g3KlSqGweirY/Pw8Cx8vsGvXrRv6+vZRA8cCAsBfPmgtDghyHp6p/QHnOMQ50m/pXZcg9Gops2llRbZlJ5KI3MiOHz++3VMQERER2RB9GWjOX57n7rvvZu/ePVz84EM++tHLFItFKtUqn/r0pxkaHuaVV19l5+hO9t+1nw8/uEi1WmVgYIMygW0PL2Ph5vyVVCrbIxNYWMtV+evfyDeWyQew8f32w81FREREREQ+Kfoy0Lzt9tv4+OOPWVhc4MEjRzh48CBLS1c5c+YsFy5cYHhoiM8/8ABnzk3z4YeXAHoEmq1pV72ep1orJHZLOUvL5Dc8D138HmOLiIiIiIjcrPqyGNBXn3icnTt31p+PjIxQqVSZm5vjwoULLC4u1u8NDu7gSw8/zI4dGxgzxwHBtlZIFBERERERuXH15YrmXfv387Vnnib35psMDg5SKZcol1bOiNu161aq1YSD9/08D37hVxgZ2bhiQKGbnglnssmqFRJFRDbaCy+8cO2dE3js8cc2bjIiIiIi16EvA02AgYEBHHtlRXHfvn0cPnx401+3a3rs+gZB2bIici3Gx8d7tvmzP/vP/OEf/qumn7/3e09uwexERERE1qZvA00RkU+aSrnMyZMne7Z74IHDnDx5sulnpVzeghmKiIiIrI0CTRGRPlEslTj7cFraupLA+PkZ3t1/kFIFylWLYpJgX5rh1NghilWLUgVKSUI5geOl09s8exEREZEVfVkMSETkk6hYKgFpkFmuptfKFSglUKxCsZIeolSqQLmSUK5COYFK1aJULDWMFBM4Fpa18nDbjlyqtWm70d7XcgLi2t3Qbbm3/KiNE7oWThCvu+3Kywc4Te0dmpssz6/1OhC6TXOFEHfV34GIiIhsFgWaIiJ9olAocMe7M4yfn+HO2RkA7r04w2c+mMGem+b+y9MAPLQwzSNXp/ly/hxfyU/zRPEc+WKhZTQbP0pIkoQk8sm5LYFZfIIQGzsMOx77a7K1vklCNuPj1KK0letZDIZsrU2Sbd+Yvp62QC1QDDHRymsnkSF02oNEYzL4xxqDyrbBcC0X6nOIsANXRxyLiIhskb5Nnc3n83w4N8dHH33E/JUr7Ny5k8HBQQYHBsnnl9i16zZ23baL8T17uGV0dLunKyKyId7ff5BSkq5U3vv+DN968tGm+1NTU0xMTFCtVkmSKpVqwvDQEM8+91z3QW0Pz/gEJ2K8WpG1+EQIZhIv4xCGYFYpYGaMYfMjtBDXDTHZhKaTpWyPKBtjuS5hkl2pBm48/MDhWHCUqNNRVHGOnO0zWe9g40XZTX0HIiIisqIvVzR/9vY7/PBHL/Py1Cne+tk7XL2aZ3HxKvl8gWKpxMjoKAkJi4uLvPb667z11k+3e8oiItetUCikQWbVolhdve3AwACDgzsYHhoCoJhvXdFcTcyJEMxRG2MMYbDaymBMEITYdmYd41+DMCS0fbxOAa8xGHLkmiZp40364DudU2LtDJnYJ9ASpoiIyLboyxXNN+Icl+bmGO2xUmlZFnvHx/np2+9w3333btHsVhPiWgF2FNH2BXsc4DghptO95oYEjkPsJXTLLhORm1OxkOfAezNN16amptradbpWKOa7DxwHBKGNWf7wCQN8DJEN2AbjBpyIPRpOlEr3VwLLKbjRqp9bmy2DbcfEOaBltXPSD3FaVzsBMGSzBsu1sDBk2+6LiIjIZurLFc3BgQFGhkfW3H50dOcmzkZEZGsUCkXO7jtIvPcQp+84BMDExETTo9O1iYkJCoViy2gx/nJRn5YvucIwxDZHazGbwZiY8ETzmuby/sqsifH7YlnQptOiqu1N4ttp2m0bkyVJEiI/lxYFUjUgERGRLdOXgeb0uXP8wr0/x113fpqR4eGu7ZJqlWK+wMzMTNc2myutfrimv11sjyjptZopIp9kxUIxPbKkmlaWXY/2QLOhGFDTZ09IGELsO03VWGM/6FIUKIsJ3c2v2GoMpluqaxjgxxkyHT8/0xRae5U52l6UFiTaivchIiIiQJ+mzi7llzh9+jWGhnbwhS98nt27d3P16hJXPr5CYWmJocEB7tizh/PnZ5n+yU8oFFv/wBIRufEUiwXsuWtLnS2W1rhHMwwJ21JJ0wqtnYsCGTzfxgkCYuOxed+V1V7HdQgatxjEAU6tSFDX1NflFFo/pJ7/Gwc4QYaoaQ9C51VRERER2Xh9uaI5NrabcrnMR5cvMz9/hVtv3cXAwABnz5zlxRdfJJd7k8GBQZbyecqlMkM7htYwavN5apbVWOY+xLUcgsCt328+2625b3ov7ePHtb1MjWe3nXDbzotLz4Zbfs1er9dg+Uw5fQ0vctMrVyqcuv1Q/QFrT52tlNe2BBrWosnW/YzG1O51YHuT+KwccbJZbC+qH2eycoZnetxJrz3raQpt0wUm7aDpM5+sskpERES2Sl+uaJbLJfbs3cPb77zDxYsXyWTav4Kefe89ZmdnGR4eopr0KM9Y+7Y+50ck9U1KLpblNnyrH+PHHkmSrRXuOUZwNMKzlwv8JGTttF3gOLiZhGwStRTuCTuMExDEBq9tTt1er3HaLpab64NCHCKyVR556TtNz7/5xvfb2jz//PM9RrHxoqjjHZNNSHpc96LWFjZelLR8jhmySeezMztcXXtb2yNK2j8xW+fS7XpjT9uLWHUoERER2TR9GWguLCwwtGOYew4cYGTnKD986SWSJGFs924enJiA2kHe9xw4wPnZWRavLKw+YK1sftNZa8bDtxvPj7Pxl+vq20cxdrjSl5jQsfAbhrRz3Q4D6DLOetuFLlYI2SRSpUSRT4jjx49v9xRERERENkRfps7euus2kqTK7OwsY7ffxq899BCZw4eZv3yZ/zs1xaVLl7hr/37KlQrlcpmhdVSobbbG/Tq2T5QsF9VIHx0PCN9AYS6H3XZunIiIiIiISP/ry0BzeGgHlSShUFi9uMX8/DwLHy+wY3Bw9QFr1QyPNe6DrJ0jd7RXvNihEmLouh2rM24k40VEtb1K2p4pIiIiIiI3kr5MnZ2/PM/dd9/N3r17uPjBh3z0o5cpFotUqlU+9elPMzQ8zCuvvsrO0Z3sv2s/H35wkWq1ysBAt7g5rbDoWg6W33htLRUUDdnIx3GWDy9P9xVlAbA5amx818KyfaJog8sZ2h5RkkkLEenAcRERERERuUFYSZJ0qqqwrf7Lt/8KC4uFxQUePHKEgwcPsrR0lTNnznLhwgX27dvHg0eOcObcNOcvXKCQX+KZp59ix46+jJtF5AY3Pz9/Xf3Hxsb4kz/9c77++7/b8f5f/OVz/PEffYMXXnjh2l8kgccef+za+4uIiIhsoL5Mnf3qE4+zc+fO+vORkREqlSpzc3NcuHCBxcXF+r3BwR186eGHFWSKyE1hfHy85+PZZ7/X9rOeciEiIiLSB/oyOrtr/36+9szT5N58k8HBQSrlEuVSsX5/165bqVYTDt738zz4hV9hZORaiwGJiPSPSrnMyZMne7Z74IHDnDx5sulnpVzeghmKiIiIrE1fBpoAAwMDOPbKDsp9+/Zx+PDhbZyRiMjmKpZKnH3YBaCSwPj5Gd7df5BSBcpVi2KSYF+a4dTYIYpVi1IFSklCOYHjpdPbPHsRERGRFX2ZOisi8klULJWANMgsV9Nr5QqUEihWoVhJ82NLFShXEspVKCdQqVqUiqWGkWICx8KyVh4r1avTe+3VrENcyyFoPVIpDnCcgObLreM3V+IOXQunPtBy2w5jhy5W09hhWvysbc4iIiJyo1GgKSLSJwqFAne8O8P4+RnunJ0B4N6LM3zmgxnsuWnuvzwNwEML0zxydZov58/xlfw0TxTPkS+2Hgdl40e1s38jn5zbIdC7FnGAYznEXuPZwoawLRhtZkwG/9hqbUJcy4Xs8pgRdrD5R0mJiIjI5ujb1FkRkU+i9/cfpJSkK5X3vj/Dt558tOn+1NQUExMTVKtVkqRKpZowPDTEs889131Q28MzPsGJGK/3mU6riAmO+WSyCdmms5YM2ahHV+PhBw7HgqNEnSYR58jZPpP1cW28KHs9kxUREZFtpBVNEZE+USgU0iCzalGsrt52YGCAwcEdDA8NAVDMt65oboL4BCE+3jUd6GvjTfrgO51TYu0Mmdgn0BKmiIjITaFvVzTz5be5WH6W+cL3ubz0Gjt37mRwcJDBwUGWlpa4bfhz3Db0RcYHf4dbhu7d7umKiFy3YiHPgfdmmq5NTU21tet0rVDMdx84DghCG+PZsGqCaw+5mJiG1cg4wHH82oiGbJJl1RjU9pj0QxzXJWxra8hmDZZrYa1lLBEREelrfRlo/mzuOc5e+QMuz11lZNSqnaNZYXh4mKGhIUZHR0kGZ1gYeIu35/4Tdw39W35hz7/e7mmLiFyXQqHI2X0HKdVWNO//aJqJiYmmNsups61+8IMftFyJ8R0LH0j3a0bXmTbbge0RJR7p/sq1LUXa3iR+6OC6IUlrJGmyJAnEgYNjWenzrMJNERGRG1Ffps6+MftvmH3nas92lmUxPj7OTxf/3RbMSkRkcxULxfTIkmpaWXY9CoViy5WGYkDJWoLMDLYdE+daLufilTVQYzBxyInrKiqUptDaodu1qqztRSRJFrNKGxEREelvfbmiOTC8yPDI2tuPjo5u3mRERLZIsVjAnru21Nli6Xr3aNocNTZ+U1priOuG2L5XS5g1eH6A4zhwPSukyym0fgjL5yXHAU6QIWpawbSxM9f+jkRERGT7/H9PNy2dMUYotQAAAABJRU5ErkJggg==;" vertex="1" parent="1">
          <mxGeometry x="200" y="1738" width="922" height="462" as="geometry" />
        </mxCell>
        <mxCell id="rJS2hNAMHHPs58hexdFA-28" value="" style="shape=image;verticalLabelPosition=bottom;labelBackgroundColor=default;verticalAlign=top;aspect=fixed;imageAspect=0;image=data:image/png,iVBORw0KGgoAAAANSUhEUgAAArYAAAB4CAYAAAAHfrEBAAASlElEQVR4nO3dXXKrOreF4cGp3Rqk5kTyZZoC6smXS6PVHER3dC4MBie2wX+xTd6nyrV3FiCmhCAzsoAi55zV+/r60ufnpwAAAIB383/PDgAAAAC4BxJbAAAArAKJLQAAAFaBxBYAAACrQGILAACAVSCxBQAAwCqQ2AIAAGAVXj+xjV5FUagoCtmQnh3NT68e3w2iL1QUVmerteL6XyJ6u2+HorDy8dkRHYr+tuPz6vWbc2v9nyGFXZu/W1sv9e7XF46POD53EeWLQoUNb1r+63n9xNY1yjmrrc2RhVHBWvnwxJ57Nr77CNbrlhpeu71rsmar9Qv1f3kpKHSl2pyVc1bOrRr37KAOuSarra48Ri9evyX9+6b6P4mp2rc4r/7q9YXjI47PXTiZh4b56PJfz5nEdsjyvbwtVBReMXrZ/t+iJKWw+3nyV93wV9L410FSmIz2WG9lD/5ySArWTkaCLvnrwqlqW1VlJ2+9QrzmL8aZ+FLs6z8sD7poL7Pbp8PRMBvkbd+effvWqW+T/rP4L9Al28cwie/EHwndZB3rdVEz39B+Q1+yvu930743G/+C/ntjfFI/qmFrpRQnMYbD5f1oRgxH9v+9/9nQL1sY/3yAJ0dUlrTvXP1Oxz9X/4X1O9c/F/XvuRGl0/Ev6n+z5q9/J8//QRdO7/9k/71D+85W7R2uL3Ptf1qwP/vN0J8PzoGrjs9heSevD7dcn97i+MwW8Lbnzz4XOvI5ei0qy/n6f7u+zi+fK78vY6jjaw26Xy9P/O9//8sH2jobmVy3Obe1y5LLTZtz40x2Tb9O47Kp2+lGuTYuN/siTDZ1k4c12sZlmXq/dm125Q/bNs4cLB9DMd/281NTu2xcndvzqx0p90x8zuWD4tomO7c8vrntd23ZHi7XtE3yQXte4/z27UF7NU7jsc0510ZZZtKmbZPdkfKurf+ctjZZZtfvdvF938+Z+Bf031vj2+/nSJ+dBJUlk41rdrG2zT7mw/7f79/Uu5iWnH+LQzx+fObb93z9zsY/OFX/RfU73z93McyfHyf750z8i9pndr+nry9z539bm327HNv/2f57p/ad88rXl7n2P6utsznSGI270/EZCzx9fbjD9emVj8+cv3D+DNtdc31adP09U/5Qh9rooJ3e3XxiO3SixmX1R6ytDw/swYnzI9FtsjPK0u5jJr8kjv7CPPFLdEliu9/+W2J43kx8GpeNn4Un9uz2u04456GJbVt/q//3C9vPtjw8/uO/XV7/eT/29b1/nYt/rv/eIb4f+znmxzkx2e7cL85F59/SEE8ntmfbd4jzWP0W/OI/Web3ck/Vb6Z/5nxDYrswcZltn7POXF8WnP9n9z/Xf+/UvnNe+/pyrv2X1a3NkwQvtz/+8Ln6+Bzb5uL6LavD6x6fOe97/uyS6mPln0syD4Kf//2w5Pr7B91hjq1RVUlh9925QpCqg7lsTk3bz81rW22d5DePmcQcg5cN0rZttXw63Zn4TKnS1P28wumn0aIphgu3f97of5S3UaZq97Ft3R0n49zafrNujP/h8eE2D+6fv2L++nf1+X9z/310+77C9eW23z9l2elfikqq1ZRR/8I/dWWpRbX4pd8f13uF4zPnfc+f6b9//7zbfP93c5+bx1wlF4NCCIquOugUwVr5YeKGMVIpmWGuh6nkFCfzYZJiiBd31BSDvPXqykptU100UfpsfHJyZZS9+ua0ue2dXFlrM5lvk/o5P4fzaDt1+znMXrbwF7bRie1Tp86U+ih3DZZiODJPOaneBKVh+xi0iaXcojP/1vabsSj+J8Y3x1RyXTicD5aiYuf08Q7XvUfHv/j4Xnl+/EL7z19flpz/p9zYfxe3b+rnaJ6aX/y615fz7b9gD65UClGd+5BzpWKMKpcFtyi+x24/eN3jM2cd58+V5q5P97p+DfchvP7jI5abDt8eTkVoshuGzl3TzwPaDaEPQ+zfh/iPfcVQG5edmwzJ//gqqM21GZab7Jrp1wuTGE58lV8bk119/Rf1S+JrDpb3c6EWxTe3fV//b8vrb9+VtY0bvzK58Ku0ue2nX5cYV+emNln9VI7G7Y5J3dQntr9H/c/EPYnNNXnfB4d+eD7+pf33+vhy7r+i/F7/cQL60fY5/Pbo8PgbU4/TVC45/446f3yWtO/5+p2Lf67+y+p3rn/uIzjZv5f1z1PxL2mfOYuufyfO/2X7P9V/79e+Yzse/wr5la8v8+0/42BqW3tk/ua1x+d0/b5fH265PuX82sdnzjrOn1ucu74uWT5vd5zdRX3q1RU556ze19eXPj8/dZXoZbvqDkPsUd52atrqxnIAAABwXJIvNjIXTd98ff/dWkD002H/TuHj+gaallVYKZPcAgAAPIBRk9tnB3F3Nye2rsnK86v9elkAAAD4W17/zWNYpzR5aPbRz21vWwMeiv4LXI/zBw90vzm2AAAAwBMxYgsAAIBVILEFAADAKpDYAgAAYBVIbAEAALAKyxPb6GXDHV8XB7wS+jcAAG+PEVsAAACsAoktAAAAVuF8Yjt9iLKPSrXdP0B59+rbKH/24cosZ/kLL5/t3wAA4J0sf0FD9LJdpbYyvxUb8Hvo3wAAvD2mIgAAAGAVSGwBAACwCv8tXtM1ah8YCPBU9G8AAN4eI7YAAABYBRJbAAAArAKJLQAAAFaBxBYAAACrQGILAACAVSCxBQAAwCqQ2AIAAGAVFie2KVjZkB4Zyw/RFyoKq7O7jV5FUagoil+PD+vxjP4NAADu61dGbIP1ilds55qs2syupJyz2tkVAQAAsGaPTWxTkC0K1SnK96OqRVHIT7PcGOTtsMzKhyMpcDdZx3rFSwbWUpyUX8j6oKWbp2D7bbxsMdn/dKWT8fd1tr5f7hVjX860jBviAwAAwOixia2p1Oas2jg1OSv3n8ZN1nEfqrbDslYu+cPEV0l10LjO1ilulo8AhxBVteO+26pU8GFh+K3a2ih12pfRlJ3C9Cvrk/E7NW0tkzqZbVZbS97vymnKTjHeHh8AAABGz795LP1T2IwjlqH7voJRva1khpkGxqlyY2J4vuygGOM42jqMlsZ00dQIVzVy/f6dKy+L3zhVRjKlJOfkjFQOdblTfAAAAHh6YhvlbZSp2v2I5dbdca6sKVWael/2+Gnk5rde4Mb4Hx4fAADA3/FLiW2nrv/2PgUvW/jdPNLUqTOlPvohzBSDwo8JtEn1JigN28egTSzlFmV+Tq6Mssfm7d7DovifGB8AAMAf8iuJ7UdVKvY3SNkoVW0jI0mm0tZ1sv2yTZScM4p+94iv6AvVyaiupI0dH+lVbYcRzfGmNFsnpdr2X+mPc3Bds1WVwuSrfivr46IbtFKwsnVS9P0Nb9Gr8FGp7h8NdTb+KG9rpVSrGCYNR79/pNRQ5i3xAQAAYFTknPPww9fXlz4/P4+umILVRlu1FY/VwvrQvwEAeH/Pv3kMAAAAuIP/lq5oqlbtIyMBnoj+DQDA+/u7I7b9yyOKk5/r3pYGAACA51g8Yrs6plKbq2dHAQAAgDv5uyO2AAAAWBUSWwAAAKwCiS0AAABWgcQWAAAAq7A8sZ28NQtYHfo3AABvjxFbAAAArAKJLQAAAFbhfGI7fYmBj0q13b/AwEdJivJnX27Acpa/8PLZ/g0AAN5JkXPOww9fX1/6/Pw8vmb0sl2ltjK/FRvwe+jfAAC8PaYiAAAAYBVIbAEAALAK/y1e0zVqHxgI8FT0bwAA3h4jtgAAAFgFElsAAACsAoktAAAAVoHEFgAAAKtAYgsAAIBVILEFAADAKpDYAgAAYBUWJ7YpWNmQHhkL8DT0bwAA3h8jtgAAAFiFxye2McjbQkVRqCisfIjjshRk+38fBstSsLt1bbi9fEnR75bZkBSD3+3Peu3XSnGyfSHrg9IF5QMAAOA1PD6xdR+qtlk5Z+XcyiUvP+SGplLbOJl6q8oM/7RVbZyatrq9fEmuycqNU6o3Cslp22blrVPZZ68hRFXtsH1WW5UKPiwuHwAAAK/h8Ylt+qewGUdEQ/dtuavkYhhHUGNQdJXcvcrvmXq7S6KNJNP/NwXFGPtR4/5jvWJMkxHdZeUDAADguR6c2EZ5G2Wqdj8iunXm2zpGVSWFkCQlhSBV1fd1bin/DFOqNPV+2/HT9In1jeUDAADg1zw2sU2dOlPqo9wlgykGhXjkzvN+1DaES0drF5Z/kpMro+ypebM3lw8AAIDf8tjE1lTauk62v/lqEyXnjKIfbxbrV1RVSXV9yWjtkvKjfFGo8FGptvvpBIdzcLeqUphMRbCyPu5uIFscPwAAAJ6tyDnn4Yevry99fn4eXTEFq422ai9JPC8RvWxXPa584IyH928AAPBwT3+O7fA4rt2o6oaRUAAAAFxl8YgtAAAA8MqePmJ70v7lDac+k5csAAAA4M/779kBnGQqtXnhSxoAAADw573uiC0AAABwARJbAAAArAKJLQAAAFZhcWKbgpXlWVxYKfo3AADvjxFbAAAArMLjE9sY5O3wiC4rHyYP6do/0mt8RW0K/atvbVi4g6To7eSVuEHeTl95mxQmy60N/WPC+tftWt/H5xWj38Vjd48SC7aPLfjx0WPWH75E4kz9hrpYf7h9HFe4Q/0BAAAg/UZi6z5UbbNyzsq5lUtefsjsTKW2cTL1VsObTE21VW2cmnbZo76i3yi6bV9+Vt6W0iTxDHYjVe1+ebstFW1QklPT1jKpk9lmtbXkvVS1WU3ZKcbd/9cmKSajbduX31bSZpKcnqmfqVq1tVHqdmXlvCs7DFnsHeoPAACAnccntumfwmZ8sULovi13lVwMY6IYg6Kr5BYVHhU7p8aZ8Z+MU5PbXaKYgmJZ7ZPGYbkro/6l8efKSKaU5Jyckcrp+jJyVSVjxp8/3C7xXVQ/Sa5qNIToXHnH+gMAAGDw4MQ2ytsoMxkx3TrzbR2jqlI/ipkUglRV39c573m3/Cyp35zb6w8AAIBHJ7apU2dKffRDoCkGhXgkDe1HLUO4dLTSyZW1NpNJrylFeVvspgOYSq4Lh3Ni026U92Nx7pgUQ1CazNn9F0s5d0H9Zqtxbf0BAAAweGxiayptXSfb31y1iZJzRtHbw2SzH7Ws68tHK13TyqXNeHPYJshUrZo+O6zarRQmN49tOrm2klGUt7VSqlUMk2Kj3z/yKfo+OZaRc+U43cAGldtml3zO1C8FK1unsazoVfioVH9/tNT19QcAAMBOkXPOww9fX1/6/Pw8umIKVhtt1T4q8YpetqseV/6VgrXSttXDw3rR+v8VD+/fAADg4Z7+HNvo+5FQH5XqjV7pGfnBFqpTUm0f9/itV64/AADAO1k8YgsAAAC8sqeP2J60f3nBqc/kWbIAAAD48/57dgAnmUpt5iUFAAAAWOZ1R2wBAACAC5DYAgAAYBVIbAEAALAKixPbFL6/VOBvid5Oblyz8vH78uJPt8+7++v9GwCANXjdm8deSQoKXak2tzr1+H7XZF6FCwAA8ESPn4oQg7ydjHSGyVDn/pFe4yt20/D628UvREiHo6k2yNvpK3uTwmS5tWH/mLBhX9b78dFi9vAxYtEXKmytlOJknTBdYSz76IhfHOtvvWLwZ9YFAADAtR6f2LoPVdusnLNybuWSH7/GN5XaxsnU2/0ra021VW2cmnbZo76i3yi6bV9+Vt6W0iRnDHYjVe1+ebstFW1QkmSqVm1tlDqpanfLm7JTmCSdrsnKbS1j6nEf09hcsyu3Pj6WG2yQGfa/rdTFKFO3vLoVAADgzh6f2KZ/CpvxxQqh+7bcVXJxHEVVDIquWvi1flTsnBo3SRKNU5PbXaKcgmJZ6SCHNE6ujPo3SX5d1Wgowrnysvqdk4KinKqhcGNUVUxYAAAAeIQHJ7ZR3sZxxDJnbd33kUqjqlI/SpoUglRdOJrJl/oAAAB4bGKbOnWm1Ee5S1RTDArxSBraj9qGcMlorSQ5ubLWZjJ1IKXdnFYfJZlKrgs6mM6adqO8H78xE8BUcorj/lNSCLwIGAAA4BEem9iaSlvXyfY3T22i5JxR9PYw2exHbev68tFa17RyaTPewLXZzWlt+uy4ardSmNw8tunk2kq7mQpWtk6Kvk+Eo1fho1I9Pvop2OHmsXq8QW0/STjKD+XWSake9jPegFa1ldIwFWMTVDqmIgAAADxCkXPOww9fX1/6/Pw8umIKVhttH3fTU/SyXbX6m6pisAqPbEdc5eH9GwAAPNzT3zwW/TgKmuqN1vgUrGAnN88lpy3JEwAAwN0tHrEFAAAAXtnTR2xP2r+84dTn8EUKAAAA+Nte95W6plKbl72kAQAAAHjdEVsAAADgAiS2AAAAWAUSWwAAAKzC/wNyB/amNxi/CQAAAABJRU5ErkJggg==;" vertex="1" parent="1">
          <mxGeometry x="220" y="2200" width="694" height="120" as="geometry" />
        </mxCell>
        <mxCell id="rJS2hNAMHHPs58hexdFA-29" value="" style="shape=image;verticalLabelPosition=bottom;labelBackgroundColor=default;verticalAlign=top;aspect=fixed;imageAspect=0;image=data:image/png,iVBORw0KGgoAAAANSUhEUgAABOEAAABpCAYAAAB8iTdNAAAVr0lEQVR4nO3dXZKivtvH4S9P/dfSByTLmeBhLwWyk18fSmY5YFWvJs+BqGjLi2IUez5XlTU9AiFvQLwNqO/v79j333//xUu1U5QuXqY6W6ep3HGZqZqLFJpYOXNa7qp4ucblfn6mkVIT64H8NdXpfVfHGOuf5dzn28Sq+VmGOdv/qB9Txfose1U0XfoxNtEd/56Xvznl7+9fxsSqbgaXn+evju6yb0hRcqd1mjo6c0jbxbrrK6aqTtu6+pj3fr0Z84jy3Vb+H/U/uXyJ8fp7TPuOq8yV/btDCWe078XxI2OicXV3DN3YP2Siq7ttLs4x99TfnP1XxkV3ln8X64uqbWoXzchyAAAAAACmZN/f3/Hj40MHX19f+vz8FAAAAAAAAIDH+L9XZwAAAAAAAAD47QjCAQAAAAAAAIkRhAMAAAAAAAASIwgHAAAAAAAAJEYQDgAAAAAAAEiMIBwAAAAAAACQGEE4AAAAAAAAILH3CMKFQlmWKcsyWd++Ojc/rT1/ndZbFeH+7UNhj+XMsmVp4Tlav2+zd2irUMw5foKKLFNm/cP227ZBwRey9rXH77zyr9DKz3+Pbd/H97/RvRX7c+2aqtXbi/y0XtZ6PSqLP9JfauX9c4lZ/eMXl/8Wax+/LD3/r718U97x+vdO46t7vPv5hfYR7fMQqcd9C9Kf2b7Lry/p+k/bjc+zzN68j8nx/YPHp4/2HkE4VyvGqKYyVxYGeWtV+BcexaP5ewxvC91bwjZ4+XDogu3F/+cm4uV3uZoYFWNUjI1qd2eG8DSmbJL2y0dydVRTTuXVqY61Htn1jHFyZa2mfG2Hnlf+FVr5+e+x7Xtf/7s3/66OWtXhGwpVeamzbmpKlXmlh1yCr6W/1Mr755LtZ/WPJ5R/9d5g/LLo/L/y8s3p3+94/XuX8dW/en6hfUT7PISTSZrNBenPbN+l59ex7ReNf0KhjUo1zf661eT+pqDs5Pj+kePTBCaCcIfobKHCZsqyQiEUst17QdpHGbPzaPwhun2K6rbyvW/pbGFlzyK+rby1vW/wbokKO5VNozLfqbDF7cGlOflrQ1f+w/Ibo6qT27fn32Jar+IwG6Cr36rt6qR73dRJXak/+U4+tAr+r3Z5qdLNPxhDkSmzldo2dG193jb7b2P2UejgL/pHV76z+rW+Wzajf80ylP7c5VPJj7Tfsf93bXL8VqL37VTwve37AePl5ff25zcgh/Y4O352vtd2F2lP9M/J9l16fEx9k3OW/vk3/MdzzZXXM771u/wmr19X/eW2KIbrf/KbrOH+Oyv96VL86vPfYiP9T9LI8T0z/2PbH+x669hCZ5e5ye0f177eBzn3c7Djyko7v/zbxuvp/+L++Yz+sbj8Y9mfc35beP1b2L6rH7+MnP/n1O9U+abGP8Pln1m+xee/lV//xo7/g7vGVw+o38mivcP5Zar+h739+Pct2mcygbc9fm7+/JDn0+Vf8vnzavoLDZ5f59bfyPn5AePzEHZyf3rxiNxoFx47wJ8en7bdueTGY+cRvr+/Y99///139v/YVNHIxKqJsalclFysmxhrZ6Kru3VqF03V9DeKlXGxPiZhoqnqeFijqV2UqY5rV2af/mHb2pmz5aesmIv9/FRXLhpXxWZ8tSvpjuTPuXiWXFNH5+bnb2r7fV0258vVr5N4Vp/3aKp9nZ7X9U0JRHOlTY5qFyUTjav3dd/Uxzb4sc+mjs5U+zqZ078mjKY/Y/lk+lPt35XB1Rd/n1Y464+102n50vI3VTRXVqzdqcxNZY7pHpb1++ms/j3WvjOPj+miXDt+6ujMKe9j54fFfpzH5mmqi7a6SGd/7A3Xf3+9q+ePif47N/2x/P/281+3ozvad07/Gzm+O+P5H9++MooyvWta0+Vp5vaPat8Y6+g0VI6fbXa76+n/C/0zbf/o3r6z/FOmzz/Lrn8Pub6sePxyyuLwdWHy/D5Svlnjn6Hyzyrf0vPfePlfff2bOv4Xja8eVL9T1nx+mar/Ub9k/Lvm9pnyLxw/h+3uOT/N/fw5lP5cU/GRq8tvuH6Npb9k/NM/Vo95uufz3ej4fmp82uyPI/XH+s8xLwh3qJDaRXUtc/7B8zzo9rMy6uiMorR/mf6HmmsVPtAIc4Jwx+1v+kAwkT+dlp1eM09yk9vvD8gpSwf5dVXtt2/q6Ko7UpoxiL3aNlMXyVn9ayJfU+lPXKQn05/T/k3drXcl3aa66F8XH0KWlD/u+0YTexfj2PwYpA4GieaWb6x9Zx4fU64eP9f226uz/QX82v4PF7Q6urn5SxiEG1veX+9qWWcMMuekP+z3n//2u7qjfSf63+H/g8d3ZzT/E9tf++LkrM0n9/+Y9t2v634MHk/5vG9wO53+7++fSftH773byz9t8vyz5Pr3qOvLWscvZ7saDsJNnt+Hyjd3/DNW/qnyLT3/HZNZ4fVvxvG/aHz1oPqdsu7zy1j9zyvbu49/190+U973+Jn+/DAh9efPG9wdhJt5/XrvINwDxqeJPOiZcEZlKfn9/RnyXirP7h12qpvuWRVNo62Tik2aBxwGX8h6ads0NzxXZiR/Jlduqu45G/3XzOcCzdw+9QxIV5b7/Rmn+sXPvnorc9tvF9TKyBip3V1M+bVBpmyO225vuBV4jjzf6W8b1KpSnQf99X+1y3PN2suT+ncq/Xq9fO2fX+BUX13+nPy9h99//ktn6fH9jO0Ttu9T/Mv9M/H1I3n7L8z/W/TPf1n68U16059P7j7+F/ff1PW7hvPLss+Hv3v8u4b2mfK+x8/05wek16rdXbyV4rbclXrcDzO4Ui54ee8VXHl2gHhrVRxutDVGyiVzqGRTyin07g9vFXy4+aBtg1dhC+3yUk1d3vSQw9H8ycnlQfbup/pNbe/k8kqb3r3WbXcP/Pl91TsdYjutL2Sz4j0+uJpSbucvfk0vKOyc/jziHDeV/uz9t9097ZfPE5lu/9ZbWS/VTaOmKSXf+4WXdqedyfUnN92u7/hRjAnO5Wp90M79kXO5QgjKrzy3aWDrxP17IeeUB9+7T/++80Nqu+7gbIOXfeQDy1IfP+L8J+n03IvLtpvqf7OP74H8z9q+VbXxag/bB69NyOXcvO0f1r4mVy7pcry0F9S2RmZo7DRUvzPS/zf6Z6L+MSnx+Xvx9S9x/qY84fybVOr8Lz3/TVnF9W/O8T9kYf+dXb9D49eD9Z5fxut/xh5+xfh3ve0z5XccP3d62OfPd3f/+MeVldSbuBL8leN3zvhx1APGp6mM347au5XL1d198ftpmodpnJfTSK9NY62Mi871pn3+mG7cxMoclpvo6v4U1qnbyepYGXPfLZY35K8+W949G2BW/qa278p/sby6mI/d1O40LffG6dpLVeZK+U4PBLxa/stnovXLZ0x1utXnlv41aCj9ucv7ebk2rXa4/frTmV0dj2U4lCNerGNcFevKxP1tqw8q/9nt182V5y2M5++e/n3ZvuP9e8yM46fpT3fvzg/Sw54LV7sr+78l7X7+jIt19bMdh+t/3vljqP/Oa99xv/38N6d99+sM3CIw0f+Gj+95+R/b/pivurpr+xiXtu+5wSn93S0Eg0/kGKvfifR/e/+c2n5Z/3hE+Ufy/ZTr35Lry9rHL+PtM6d+x8s3lv+p8s8r37Lz33tc/4aO/2Xjq8fV7/j4dd3nl+n6n/DW498uhRW3z5Tfcfws8YjPn/eajo8ML59Tf/Me57N4/FONn7fHxo+zPr/NGp8OP2olpez7+zt+fHzo4OvrS5+fn7pLKGR35QOmcQYVdqe6KRemAwDAmP2vcwfXcAvClFAoC06xdhdvZwou6uLtzg31O5A+AAAA/iXLx+dT49Mi28jc9Aizx/nfIxIJRX9q6U7+z/2F6aeVWSkSiAMApNL+VWidyoYA3CRXq/JWvnWna3zr5XeVtkNxs1vq91r6AAAA+LcsHZ9PjU9lVMfm3twt9tiZcAAAAAAAAAB+eNwPMwAAAOD9tV42y/YPLL76GnoIPLAC9F/gfhw/QHLMhAMAAAAAAAASYyYcAAAAAAAAkBhBOAAAAAAAACAxgnAAAAAAAABAYgThAAAAAAAAgMRuC8KFQta3ibLyAGvP36tRP2lRvwAAAAAAYAAz4QAAAAAAAIDECMIBAAAAAAAAiU0H4Vovm2XKskxZEdRWdv93lqkIkhRUHJafvQoFPWH52vP36uXUz4vrFwAAAAAAQMq+v7/jx8fH8Y2vry99fn5eXzsUsrtSTWmelL0brT1/r0b9pEX9AgAAAACAAdyOCgAAAAAAACRGEA4AAAAAAABI7LbbUQEAAAAAAADcjJlwAAAAAAAAQGIE4QAAAAAAAIDECMIBAAAAAAAAiRGEAwAAAAAAABIjCAcAAAAAAAAkRhAOAAAAAAAASIwgHAAAAAAAAJDYTUG41ltZ3969s1BkM7YPKrJMmfU3p780fymEIlOWWa0hW2usn9+E+gUAAAAAAEOeOhPO1VFNaabWUh1ruafkKD1XR1VTRQYAAAAAAMCv9pwgXCiUZZmybGAmXBtU2Kxbx6oIT8nVftfe7vNVFLJdHjNbKFwsP+RpP7PtUI7DrL2iy3+hELp0emlIknb+VEZbKPSr4az8mWzh1V/c32fwA+knMl7+41ryhe3l38r2ZzIuKN9U++wT8Of9xx+WzmyfifwBAAAAAAAs9ZwgnKsVY1RzdUpYULEJctuoGKNi3MoF/5QAkySZslFTGbU7qWz2eajznXwXZDosPxUlKtaHeXpOdVPJtDuZbVRTSUWxT6fOdwqnKI8qL5WHMm6dwuYUBPI+HPcdY1RT5vKF/7HPttrIt07bZp9G/oRI0Xj5u9L5jYIp1XT537r8LIi1pHxT7bNP4M+pbmMj1xZd0HBe+0zlDwAAAAAAYKnX/zBDCNq5Uu4Y5zFypdOz7+B0ZX3Mg3P5bRsbp9JIJpfknJyR8rMCGFXbUsb01nddEKj1CiGcZnkdZmmF9kcg0lRbNbXbp2PcKb0XM2WpPJxmqm28VG/L/cIHlW+0fdq/8ptT+n53mfBI+9yQPwAAAAAAgHu9Pgj3rzO5clMdZ2GdXu/0XDyn+jCTrGm0dVKx6WaSJS9fUGGDTNkc0966G6KTv6L+AQAAAADA2r0+COec8uB7z0hrFXxY3TO5drt9jtrgZW9+aF2rauPVdoVqg9cm5HJOkpxcHmT9uuddjZXfW6vi0IDGSLlk8sNstcTla3famVx/uqltbfDy4Zbe8x71DwAAAAAA3tsTgnDdw/GzTLZq1VaHB/gfnonmVG+dwvF2wo2CK+XaSplN/1yu1lvZqlUouh8fCIWyIqit7PHHB8yfUnmwxx8PKCvXLfcqbKW2rZSdfrnguN3hBweq1qgqpY09/QBBuT3NtHL1VmXre7dDWtniEIjs6q/L02GdZ/54xXD5D8GuXAqb3o9vSGV5mke2pHyT7WNKbd1OtqvbTZCcMwqFlW/DZPsUYSp/AAAAAAAAy2Xf39/x4+Pj+MbX15c+Pz+vrtx6q422asqVPIzswtrz92rUT1rULwAAAAAAGPL621EBAAAAAACAX+6mmXAAAAAAAAAAbsdMOAAAAAAAACAxgnAAAAAAAABAYgThAAAAAAAAgMQIwgEAAAAAAACJEYQDAAAAAAAAEiMIBwAAAAAAACR2WxAuFLK+TZSVB1h7/l6N+kmL+gUAAAAAAAOYCQcAAAAAAAAkRhAOAAAAAAAASGw6CNd62SxTlmXKiqC2svu/s0xFkKSg4rD87FUo6AnL156/Vy+nfl5cvwAAAAAAAFL2/f0dPz4+jm98fX3p8/Pz+tqhkN2VakrzpOzdaO35ezXqJy3qFwAAAAAADOB2VAAAAAAAACAxgnAAAAAAAABAYrfdjgoAAAAAAADgZsyEAwAAAAAAABIjCAcAAAAAAAAkRhAOAAAAAAAASIwgHAAAAAAAAJAYQTgAAAAAAAAgMYJwAAAAAAAAQGIE4QAAAAAAAIDEbgrCtd7K+vbhmWjboOALWZstSv+e/IUiU5ad9tt6qyzbv5cV4bj8sM7ZcuulUJz+373Xnu9gfPkTpWo/7FG/AAAAAABgyP9enQFJMsbJGCeXF7K75+7b1VF1YeWDVyhrubJR/ONlN1JTO0n75buyUWkkqVEsgwq7U92UkqQYpXC2ztkOxpcDAAAAAADg1+N21I5zki/Cq7OxTsGrsIfZfFaF79VT62W79w+TwI6zBa1fnr7OZysGX+z3Zwsd12pDb/tMtricjTiePgAAAAAAQGoE4Q7+1Crlxd2EV7g/KrdRMUbF2Mi1hY7xSlOqqZ1MtT3O8jPlVpVxx5mCi9LXfrZirJ3aaiPfOm2bqLh1yru28j6obA7bRzVlLl/42ekDAAAAAACkRhCux5VOYfO6Z7atVvtXfnOaaeYvbxl2pVzwp5lpwSu4Uu5R6XdMtd0H/Iwk0/3beoUQutl4h+fuFQqh7c2Um5c+AAAAAABAKgTh+kyprQvyfyfWa3eaiuO03o7Otppavh5BhQ0yZXOcabZ1lw+2MypLyftWUivvpXL2w+/mpD/C5MpNddz29Kq7IODC9AEAAAAAAB6AINwFU5ZSqM5mw+VGqnrPEWv/BrV5/vzMvUK7087k+pPvA1dt8PLhylzBbjac97fOgpuZ/iAnlwfZoee8LU4fAAAAAABguVUE4Q4P3s+KoLa68aH+D9h3EVpVdv/gf8mpLs9DSKbcqpY/3s64aV33y6mSQqEsO6Vx/HGAqp23fO1Mqa3byXZ53wTJOaNQ2Ivn5+1nw1XVLbPg5qQfVFz2jSy7eGbcVmXre7ejWtki7AOps/MPAAAAAACQzv9enQGpe/D+mvbtasWzOJyRq5vreXS14mjmp5avnykbxbPfWCgv/t9bt7phFtys9J3qyQocaZ/J9AEAAAAAANJbxUw4vLfzmYwbZpgBAAAAAABcyL6/v+PHx8fxja+vL31+fr4wSwAAAAAAAMDvwkw4pNN62ez0HLyfr0Jv8QOxAAAAAAAAC63imXD4pUyphoevAQAAAAAAMBMOAAAAAAAASI0gHAAAAAAAAJAYQTgAAAAAAAAgMYJwAAAAAAAAQGK3BeFCIevbRFl5gLXn79Won7SoXwAAAAAAMICZcAAAAAAAAEBiBOEAAAAAAACAxKaDcK2XzTJlWaasCGoru/87y1QESQoqDsvPXoWCnrB87fl79XLq58X1CwAAAAAAIGXf39/x4+Pj+MbX15c+Pz+vrx0K2V2ppjRPyt6N1p6/V6N+0qJ+AQAAAADAAG5HBQAAAAAAABIjCAcAAAAAAAAkdtvtqAAAAAAAAABuxkw4AAAAAAAAIDGCcAAAAAAAAEBiBOEAAAAAAACAxAjCAQAAAAAAAIkRhAMAAAAAAAASIwgHAAAAAAAAJEYQDgAAAAAAAEjs/wF5E7CiLV2qlAAAAABJRU5ErkJggg==;" vertex="1" parent="1">
          <mxGeometry x="200" y="2330" width="1249" height="105" as="geometry" />
        </mxCell>
        <mxCell id="rJS2hNAMHHPs58hexdFA-30" value="" style="shape=image;verticalLabelPosition=bottom;labelBackgroundColor=default;verticalAlign=top;aspect=fixed;imageAspect=0;image=data:image/png,iVBORw0KGgoAAAANSUhEUgAAA2EAAACTCAYAAAAHvhGwAAAUMElEQVR4nO3dXZKiPhuG8Zu3Zi19QLKcSTzspUB2Mn1o8l9OsMrV5D0QFXtU8Au15/pVWdVtIDwhAX0MqNbrdRn68+dPOSrH4oyKpCLjSswHhaV1ZlMmFePako9UEZ32y7THljgmFqf9etuHi2e2b9pyWNwWI1M2m8zF7f7eaI0rbrD+3+27PD7JlVhKya05jDm6i/fBeHy5xINyU4yLB32QoyvmqvYBAAAAuKdqvV6Xj48PbX19fenz81MAAAAAgPv737MDAAAAAIB/CUkYAAAAAMyIJAwAAAAAZkQSBgAAAAAzIgkDAAAAgBmRhAEAAADAjEjCAAAAAGBGJGEAAAAAMCOSMAAAAACYEUkYAAAAAMyIJAwAAAAAZkQSBgAAAAAzIgkDAAAAgBmRhAEAAADAjEjCAAAAAGBGJGEAAAAAMCOSMAAAAACYEUkYAAAAAMyIJAwAAAAAZkQSBgAAAAAzIgkDAAAAgBmRhAEAAADAjEjCAAAAAGBG75GEJa+qqlRVlWzonh3N3149vlv99PbNJHm7249VZeXTsyM6lPxt/fvq7Rtza/ufoQubff5u+/oiP/j889P7L/nNueBst71w/75P/yT5qlJlw5vW/5pxvPv4nc+rjI9TXje+90jCXFQpRbk1RwqTgrXy4YlnybPx3UewXk9r4Qzt+/G6oLCqlUtRKUWlZEX37KAOuViUmyv7+MXbN+X4uan9T2Ka/POPyx98/nmX/rv29cfFotHmvXD/vkv/SE7moWE+uv6pnGKJuvSl5V8dv/N5lfFxyuvGN5KEbbNHL28rVZVXSl62fy5JUhc2/w8+Ldh+erTPOjuFwafk1lvZg4y0U7B28An6JVmrU5Ozmnolb71CuuaTiJH4utS3f1sedNFWRtfvDmcRbJC3/f7s92/b9fukf1z2ydyZ+o+134bJJ6zvnxRuPjnafiI0Pn6261vfPz8cWxds/+z6KQz2/zBhnzC+pZv7P/lKlW3VdWkQYzgs7/dZCke2f7J/JsY/HuDJT/Km7N+x9o2Nr9Ptn9i+k/2racfP6CeZp+O/dfwerf/I+fH88StpFU5v/+T4vcP+ndi+9z7/jPXPacH+Pa62MR4cI1f1399tPnr+uOX8Nen4mTA+VoNlrNdFL9O3vv6+8fG1ey915HH0XFXX4+3/6/i64Pg7Wv+ICe07e/wd7N8Lr7B48/H77Pc3dxl/59rf7Y8rnzR4LR4cf7e2byy+TSD9ufrCvr2H9Xpdhv78+XPwf8ltMTKlzaXk1hXJlZhLic4UF/tloiumzcOVSmtcibsqTDFtLNslcnRFpt0t3ZpN/dt1ozMH5ftQzLft/C22rhjXlnx+sSP1nonPuXJQXY7Fuenxja2/2Zf5sFzDfVIO9uelxuo/3P99uWnL95acal9uB2Nhs8H9chPGT25Nkdk8v413rJ+/b//8+vlgPESnfbwT4pva/yNBFnNkTA+CKpIpxsVNrDnuYj7bP1OOz8khnu7f0f45075J4+tU+ye170z/7mIYP35OHr8j8d9j/J47/4wdv7k1u/1ybPtnx++d9u85737+Geufs3JbzJGdFd2d+m/Q5pPnjzucv84fP+fHR2tUZAavyTkWd6S+a18/x/z042u43jXnr6nH36n6x51v3/njrx8rE94fnvPu4/fl39+UM+NvrP4+Rhe//X2n9o3Ft91Ga3RwnM9lWhK2HfDRFfUtO3zhO0y6/k7KYnFGRdo8zPCgOvbm7cQbuilJ2G79b0nMeSPxaV+2f0w8CEfX35zwxlyfhI3UP+FNwn7RK98EjYyfs+tPMLp+br/177eD+Fx8F/T/SJCjSdjRNo/1z6Tjc2qIV/TvMM5j7Zs6vs61f6x95/q3d3USNvFN9C3j9+z5Z8L5YTwJOTN+77R/z7ft3c8/5/pnXGs2b0J2b+ZK/iuJv7r/TsZcLlt/QhtOLj8yPv56k3+szeXa188p3vf42iSAx+qfmBBNef2YePxdbWR8nN2/l7zWnPHO4/eZ72/uMv6mtD/Hfrkj4+6W9r2BO90TZtQ0UthcP6cQpObg3gqnmPt7RXLW0kl+8Zgb5FLwskFa5qzpt3ecic/Uqk3b3+cyfEy8Lnni+o+eAf1XbxeVkrxNMk3e7fulu+Di4Fv7Hw92Y/++hPHz49XH783j9z77973PP7e9ftX1Sv91SZ1axTrpv/CfVnWtSXtxptef6z34+LtL/O97fA2f//54j/tXX/38/A7j95zHvr+5efxNff+7SupkZIzUrQ4utn7x8XO7+30xh2vkUlAIQck1Bzs4WCu/vdDSGKmWzPbaTNPIKR3cH5BCuvik2KUgb71WdaMcm4tuwjsbn5xcnWSv/uKPsfWdXN1qMbi+tuuvoT289nml7djsgpet/MR9NFK/aeRW4fD69y4prZx+X7APV31wXQqyr/RVUt1KK1Prd71pTJfChfcN3tr/N7pT/zzNo+Of3L9XHj8z7P/x88+U88MpN47fyfu36++5+H4t/vuff873zzjnanUhaeV+y7laKSXVbupbsEe//kx14viZND46tYugbrt+ClqkWtN2we3x/4zj60pjx9fLnJ9PcE51CoP7dK57f/jO4/esl39/M15/F6xskGLOyrmRgt3fb/bo42Nrey/aM967nr8cMRa3nT50sb/ufDMNuZ2m/D5NemyatTWuODeY1vzrco5cWrMtN8XF4SUCgxhOXM7XGlNce/3c45T44kF5f+39pPjG1u/b/628/Xa9S45uP6174eUw4/UflhvTDmKf0L48uNzDuBLb7ThpR8ePMfvtulh2y2yXG21ZO77+cBnj2hJb0097Tx3fY/13XmuO7L/9DZVH9+/3a6KP98+Fx+dR5/t3yv49375z8Y+1f1r7TvfvIIKTx8+04/dU/FP2z5hJ58cTx++07Z8av/fbv/v9eOwym/c+/4z3z4iDy+PzkfuNru2/0/vn+/njlvPXZheffv05Nz6i27ymt7G96fi77fz7E46vW5w7vqaU37j1M+2btH+Hx/f2/aF00X1h7zp+3+H9zYRWnKx/nvaN2/Szu2Obp6vW63X5+PjQ1tfXlz4/P3WV5GVXzR2myZO8XSnm5sZ6AAAAAOC7Tr5ayFx0C9P9/LpHJckPp+5XCr+vb8ywrspKhUQMAAAAwF0ZxZKftvW7JGEuFpV7VHTnugAAAADg1dzvizmAexv8kN/xx6U/igvMiPELPA7HF94Z4xeS7ntPGAAAAADgLGbCAAAAAGBGJGEAAAAAMCOSMAAAAACYEUkYAAAAAMzosiQsednQPSgUPBz9BwAAADwdM2EAAAAAMCOSMAAAAACY0XgSNvxBOZ/UtXb3Y3I+SVKSP/tDc5Q/tXy0/wAAAADM6bIfa05edtUoN2am8HBX9B8AAADwdFyOCAAAAAAzIgkDAAAAgBn9umhpF5UfFAhmQP8BAAAAT8dMGAAAAADMiCQMAAAAAGZEEgYAAAAAMyIJAwAAAIAZkYQBAAAAwIxIwgAAAABgRiRhAAAAADCji5KwLljZ0D0qltOSV1VVqqrqOdv/IZ7WfwAAAAB23mMmzEWVUpRb8+xIAAAAAOAmMyVhnZK3u9msygZ5a7WflOkUBuXWBqWpNYfNer5fIfnhjFmSrypV1svbSlXllZKX7Z9Lg/Wt758flF2y/bPrp9Bvv1JVWfmwLR2Pb7ORNFi/kvVBzGcBAAAA72mWJCz5hZJbqpSyeSxrDbOIYBdSk3fleVkr2WmJhmnywQyZi0Uluu1/irmV6VYyy6LcSt5LTS6K9Uop7dfvVpvnS9mUhYmX7U1a3/1Ws+zbXrJc5/ukcTw+SQoh7eoupSg3tYIPk+IDAAAA8FpmSMKS0sopusGlhMYplqzGSOqCUt1s/h6Uuzrpv3tN9xinxkimluScnJHqb1c2uiZqG6Jz9cWbOLt+95/CYj+TFVYXxNcFpZT2s2zbWbLUTZ6tAwAAAPA6Zrsn7N+9fC7J2yQzmOlbugvubTO1atPuZxF3jyg3vjYAAACAFzNDEubk6laLweV5XX+Pk0+STCO3Cjq4+q/bzJ79viBXWa26ftUg619ojqhbaWVq/e6ntroUFNIlKelmVtCGF2oTAAAAgOut1+sy9OfPn3JKbk0xbT5ZflourTNF0uZhTGljPlluTFviriwWt13v4OH2y+RYnNnW7Ups3aaett2v62Ipcft8Lrk1/bb223Wx7JbZLjfasnZ8/eEyxrUltqZIprQ5jsbn4mb/xG/7z7hYLu2J6/sPAAAAwL1U6/W6fHx87JKyr68vfX5+Hk3YumC10FK54avi3xH9BwAAADzfe/xOGAAAAAD8EL8uWdg0WflRkeDh6D8AAADg+ZgJO6cLh18N/9dj+o86AwAAAIB04UzYP8c0yqV5dhQAAAAAfhBmwgAAAABgRiRhAAAAADAjkjAAAAAAmBFJGAAAAADM6LIkLHnZ0D0oFDwc/QcAAAA8HTNhAAAAADAjkjAAAAAAmNF4Ejb8wWKf1LV292PFPklSkj/7Q8aUP7V8tP8AAAAAzKlar9fl4+Nj98TX15c+Pz+PL5287KpRbsxM4eGu6D8AAADg6bgcEQAAAABmRBIGAAAAADP6ddHSLio/KBDMgP4DAAAAno6ZMAAAAACYEUkYAAAAAMyIJAwAAAAAZkQSBgAAAAAzIgkDAAAAgBmRhAEAAADAjEjCAAAAAGBGFyVhXbCyobt6Y8lXE9ZP8lWlyoart4Pjbu0/AAAAALe77Meab+RikRtfSrFEebuaISIAAAAAmNc8lyMmr6qqVFUnZsK6JG+rfhkrn2aJCgAAAABmN08S5qJKKcqtOVKY5BdJbllUSlEpS7kURB4GAAAA4Cd6/hdzpKSVa+R2+ZmRa5yOpWsAAAAA8O6en4QBAAAAwD/k+UmYc6pTUNrdKtYphSS+ww8AAADATzRDEtZ/5XxVybadutb2X8Dh+/u+nOLSKS22X8yxUHKNXNfyNfUAAAAAfpwZvqLeKZZyfhHjFPO3ZcbWAQAAAIA39PzLEQEAAADgH3LRTJhpsvKjIsHD0X8AAADA8zETBgAAAAAzIgkDAAAAgBmRhAEAAADAjEjCAAAAAGBGJGEAAAAAMKOLkrAuWNnQPSqWqyRfqaqsXiysl/SK/QcAAAD8a95+JszFotY8OwoAAAAAmObhSVgXrKqqkvVetqpUVZUq65W+lfv+ic3MVtXP2CT5fnlvK1WVV0p9PYM6JEmr0C/Tlw0nfLq0L6sqWR80LB5uM4UT9QMAAADAHTw8CTNNVm6NupXU5KJSimK9Uugvi9uWb7lYVKLb/qeYW5luJbMsyq3k/aaeWK+UdllSpzZIzXJTf1k6pcU+iQoh7bZdSlFuagUf/tpm1y4UOqdl3tRRc+UeAAAAgDub7XJE10S5Ptdyrr5sZePUGMnUkpyTM1J9cAmiUbtsZMxgedcnaV1QSmk/C7ed5UrdXzNdpl0qR7epx7h9fQAAAABwJ29/T9goU6s27W4WbP+IcuNrAwAAAMBdvUwStlptrv3rUpD1l96N1aldBHX95YNdClqkWs5JkpOrk2zgDi8AAAAAz/fr0RvogpVtO0mVfCyK8qp8kpRklZUbI/O7Ub2wqlpJxim2Tr61smpVt606SZWvVZyk5GVD1lL9F2pIkozaKC1stfnCDeMUl/uZLheXkl+oqvzmCWNk6kbL6GSU5Kvt/WNpE4M294lFpsoAAAAA3Fm1Xq/Lx8fH7omvry99fn4eXbgLVgstlRtulnpH9B8AAADwfC9zOSIAAAAA/AsuuhzRNFn5UZHg4eg/AAAA4PmYCQMAAACAGZGEAQAAAMCMSMIAAAAAYEYkYQAAAAAwI5IwAAAAAJjRRUlYF6xs6B4VCx6M/gMAAACej5kwAAAAAJjRw5OwLlhVVSWfNv8nX6mqqm8zMp2C3yxXVZWst7I2DIqTvK0G5UHDtYd1puBlq0qV9UqD7VvfPz8o21cQBvVb+bAtTfL98ptyr5QO658SHwAAAABsPTwJM01Wbs3ufxeLSnQHy3RhoWQa5VJUStHS1QdJTAhJTd6UlVKUm1rBh7/q7NqFQue0zEVl6VR3++13K+3qiPVKYZgEut9qltv6s1zn+6TRKeZWplvJLItyK3m/qSfWK6U0LT4AAAAA2Pr17AAkyTSNautl2/5/4xSXzeafLiilpLaqvq3llCQN0znTLpUbsys3w6WbKNc/4VytsBoUdv8pLKxSt92+VB8E6NQYSStJzskZqdtWfkF8AAAAAPAi94Q5xe1MUs5aOskv+pkkU6s27W6Waf+Id0pwkrxNMk3e1b10Zny1rYfHBwAAAOAnmS0JW60200xdCrL+4I4sBWvlv01DmXo7F+Xk6iQbDte5m26llan1uza7+EK65I6uB8cHAAAA4EeZJQkzvxvVye6+PKNpnbp2+HXptZQW+y+2CFLT7OeRXFyq6cKuvLJW1qf+vrH+yzN8Utfuv9xjm+d1wcq2nZLvn0t+t6wNnWQaLd1Ktv9ijUWSnDNK3ip0Sd626rpW1f6bRXZxb+s8Hx8AAAAA7FXr9bp8fHzsnvj6+tLn5+fRhbtgtdDwviu8E/oPAAAAeL4XuScMAAAAAP4NF307ommy8qMiwcPRfwAAAMDzMRMGAAAAADMiCQMAAACAGZGEAQAAAMCMSMIAAAAAYEYkYQAAAAAwI5IwAAAAAJjRZUlY8rKhe1AoeDj6DwAAAHg6ZsIAAAAAYEYkYQAAAAAwo/EkrAuyVaWqqlT5pK61m7+rSj5JUpLflh88vJIof3r5aP8BAAAAmFO1Xq/Lx8fH7omvry99fn4eXzp52VWj3JiZwsNd0X8AAADA03E5IgAAAADMiCQMAAAAAGb066KlXVR+UCCYAf0HAAAAPB0zYQAAAAAwo/8DLJKfRbmEyzMAAAAASUVORK5CYII=;" vertex="1" parent="1">
          <mxGeometry x="200" y="2435" width="865" height="147" as="geometry" />
        </mxCell>
      </root>
    </mxGraphModel>
  </diagram>
</mxfile>
